G04 #@! TF.GenerationSoftware,KiCad,Pcbnew,5.0.0*
G04 #@! TF.CreationDate,2018-10-18T22:04:33+02:00*
G04 #@! TF.ProjectId,module_8x_100VDC_16A_out,6D6F64756C655F38785F313030564443,rev?*
G04 #@! TF.SameCoordinates,Original*
G04 #@! TF.FileFunction,Copper,L2,Bot,Signal*
G04 #@! TF.FilePolarity,Positive*
%FSLAX46Y46*%
G04 Gerber Fmt 4.6, Leading zero omitted, Abs format (unit mm)*
G04 Created by KiCad (PCBNEW 5.0.0) date Thu Oct 18 22:04:33 2018*
%MOMM*%
%LPD*%
G01*
G04 APERTURE LIST*
G04 #@! TA.AperFunction,NonConductor*
%ADD10C,0.300000*%
G04 #@! TD*
G04 #@! TA.AperFunction,ComponentPad*
%ADD11R,1.800000X1.800000*%
G04 #@! TD*
G04 #@! TA.AperFunction,ComponentPad*
%ADD12C,1.800000*%
G04 #@! TD*
G04 #@! TA.AperFunction,ComponentPad*
%ADD13R,1.600000X1.600000*%
G04 #@! TD*
G04 #@! TA.AperFunction,ComponentPad*
%ADD14O,1.600000X1.600000*%
G04 #@! TD*
G04 #@! TA.AperFunction,ComponentPad*
%ADD15R,1.700000X1.950000*%
G04 #@! TD*
G04 #@! TA.AperFunction,ComponentPad*
%ADD16O,1.700000X1.950000*%
G04 #@! TD*
G04 #@! TA.AperFunction,ComponentPad*
%ADD17R,2.080000X3.600000*%
G04 #@! TD*
G04 #@! TA.AperFunction,ComponentPad*
%ADD18O,2.080000X3.600000*%
G04 #@! TD*
G04 #@! TA.AperFunction,ComponentPad*
%ADD19C,1.400000*%
G04 #@! TD*
G04 #@! TA.AperFunction,ComponentPad*
%ADD20O,1.400000X1.400000*%
G04 #@! TD*
G04 #@! TA.AperFunction,ComponentPad*
%ADD21R,1.600000X2.400000*%
G04 #@! TD*
G04 #@! TA.AperFunction,ComponentPad*
%ADD22O,1.600000X2.400000*%
G04 #@! TD*
G04 #@! TA.AperFunction,ComponentPad*
%ADD23R,1.905000X2.000000*%
G04 #@! TD*
G04 #@! TA.AperFunction,ComponentPad*
%ADD24O,1.905000X2.000000*%
G04 #@! TD*
G04 #@! TA.AperFunction,ComponentPad*
%ADD25R,2.000000X1.905000*%
G04 #@! TD*
G04 #@! TA.AperFunction,ComponentPad*
%ADD26O,2.000000X1.905000*%
G04 #@! TD*
G04 #@! TA.AperFunction,Conductor*
%ADD27C,2.000000*%
G04 #@! TD*
G04 #@! TA.AperFunction,Conductor*
%ADD28C,0.250000*%
G04 #@! TD*
G04 #@! TA.AperFunction,Conductor*
%ADD29C,2.500000*%
G04 #@! TD*
G04 #@! TA.AperFunction,Conductor*
%ADD30C,0.254000*%
G04 #@! TD*
G04 APERTURE END LIST*
D10*
X107165428Y-128353428D02*
X107094000Y-128282000D01*
X106951142Y-128210571D01*
X106594000Y-128210571D01*
X106451142Y-128282000D01*
X106379714Y-128353428D01*
X106308285Y-128496285D01*
X106308285Y-128639142D01*
X106379714Y-128853428D01*
X107236857Y-129710571D01*
X106308285Y-129710571D01*
X105379714Y-128210571D02*
X105236857Y-128210571D01*
X105094000Y-128282000D01*
X105022571Y-128353428D01*
X104951142Y-128496285D01*
X104879714Y-128782000D01*
X104879714Y-129139142D01*
X104951142Y-129424857D01*
X105022571Y-129567714D01*
X105094000Y-129639142D01*
X105236857Y-129710571D01*
X105379714Y-129710571D01*
X105522571Y-129639142D01*
X105594000Y-129567714D01*
X105665428Y-129424857D01*
X105736857Y-129139142D01*
X105736857Y-128782000D01*
X105665428Y-128496285D01*
X105594000Y-128353428D01*
X105522571Y-128282000D01*
X105379714Y-128210571D01*
X103451142Y-129710571D02*
X104308285Y-129710571D01*
X103879714Y-129710571D02*
X103879714Y-128210571D01*
X104022571Y-128424857D01*
X104165428Y-128567714D01*
X104308285Y-128639142D01*
X102594000Y-128853428D02*
X102736857Y-128782000D01*
X102808285Y-128710571D01*
X102879714Y-128567714D01*
X102879714Y-128496285D01*
X102808285Y-128353428D01*
X102736857Y-128282000D01*
X102594000Y-128210571D01*
X102308285Y-128210571D01*
X102165428Y-128282000D01*
X102094000Y-128353428D01*
X102022571Y-128496285D01*
X102022571Y-128567714D01*
X102094000Y-128710571D01*
X102165428Y-128782000D01*
X102308285Y-128853428D01*
X102594000Y-128853428D01*
X102736857Y-128924857D01*
X102808285Y-128996285D01*
X102879714Y-129139142D01*
X102879714Y-129424857D01*
X102808285Y-129567714D01*
X102736857Y-129639142D01*
X102594000Y-129710571D01*
X102308285Y-129710571D01*
X102165428Y-129639142D01*
X102094000Y-129567714D01*
X102022571Y-129424857D01*
X102022571Y-129139142D01*
X102094000Y-128996285D01*
X102165428Y-128924857D01*
X102308285Y-128853428D01*
X100594000Y-129710571D02*
X101451142Y-129710571D01*
X101022571Y-129710571D02*
X101022571Y-128210571D01*
X101165428Y-128424857D01*
X101308285Y-128567714D01*
X101451142Y-128639142D01*
X99665428Y-128210571D02*
X99522571Y-128210571D01*
X99379714Y-128282000D01*
X99308285Y-128353428D01*
X99236857Y-128496285D01*
X99165428Y-128782000D01*
X99165428Y-129139142D01*
X99236857Y-129424857D01*
X99308285Y-129567714D01*
X99379714Y-129639142D01*
X99522571Y-129710571D01*
X99665428Y-129710571D01*
X99808285Y-129639142D01*
X99879714Y-129567714D01*
X99951142Y-129424857D01*
X100022571Y-129139142D01*
X100022571Y-128782000D01*
X99951142Y-128496285D01*
X99879714Y-128353428D01*
X99808285Y-128282000D01*
X99665428Y-128210571D01*
X98236857Y-128210571D02*
X98094000Y-128210571D01*
X97951142Y-128282000D01*
X97879714Y-128353428D01*
X97808285Y-128496285D01*
X97736857Y-128782000D01*
X97736857Y-129139142D01*
X97808285Y-129424857D01*
X97879714Y-129567714D01*
X97951142Y-129639142D01*
X98094000Y-129710571D01*
X98236857Y-129710571D01*
X98379714Y-129639142D01*
X98451142Y-129567714D01*
X98522571Y-129424857D01*
X98594000Y-129139142D01*
X98594000Y-128782000D01*
X98522571Y-128496285D01*
X98451142Y-128353428D01*
X98379714Y-128282000D01*
X98236857Y-128210571D01*
X96451142Y-128210571D02*
X96736857Y-128210571D01*
X96879714Y-128282000D01*
X96951142Y-128353428D01*
X97094000Y-128567714D01*
X97165428Y-128853428D01*
X97165428Y-129424857D01*
X97094000Y-129567714D01*
X97022571Y-129639142D01*
X96879714Y-129710571D01*
X96594000Y-129710571D01*
X96451142Y-129639142D01*
X96379714Y-129567714D01*
X96308285Y-129424857D01*
X96308285Y-129067714D01*
X96379714Y-128924857D01*
X96451142Y-128853428D01*
X96594000Y-128782000D01*
X96879714Y-128782000D01*
X97022571Y-128853428D01*
X97094000Y-128924857D01*
X97165428Y-129067714D01*
X94522571Y-129710571D02*
X94522571Y-128710571D01*
X94522571Y-128853428D02*
X94451142Y-128782000D01*
X94308285Y-128710571D01*
X94094000Y-128710571D01*
X93951142Y-128782000D01*
X93879714Y-128924857D01*
X93879714Y-129710571D01*
X93879714Y-128924857D02*
X93808285Y-128782000D01*
X93665428Y-128710571D01*
X93451142Y-128710571D01*
X93308285Y-128782000D01*
X93236857Y-128924857D01*
X93236857Y-129710571D01*
X92308285Y-129710571D02*
X92451142Y-129639142D01*
X92522571Y-129567714D01*
X92594000Y-129424857D01*
X92594000Y-128996285D01*
X92522571Y-128853428D01*
X92451142Y-128782000D01*
X92308285Y-128710571D01*
X92094000Y-128710571D01*
X91951142Y-128782000D01*
X91879714Y-128853428D01*
X91808285Y-128996285D01*
X91808285Y-129424857D01*
X91879714Y-129567714D01*
X91951142Y-129639142D01*
X92094000Y-129710571D01*
X92308285Y-129710571D01*
X90522571Y-129710571D02*
X90522571Y-128210571D01*
X90522571Y-129639142D02*
X90665428Y-129710571D01*
X90951142Y-129710571D01*
X91094000Y-129639142D01*
X91165428Y-129567714D01*
X91236857Y-129424857D01*
X91236857Y-128996285D01*
X91165428Y-128853428D01*
X91094000Y-128782000D01*
X90951142Y-128710571D01*
X90665428Y-128710571D01*
X90522571Y-128782000D01*
X89165428Y-128710571D02*
X89165428Y-129710571D01*
X89808285Y-128710571D02*
X89808285Y-129496285D01*
X89736857Y-129639142D01*
X89594000Y-129710571D01*
X89379714Y-129710571D01*
X89236857Y-129639142D01*
X89165428Y-129567714D01*
X88236857Y-129710571D02*
X88379714Y-129639142D01*
X88451142Y-129496285D01*
X88451142Y-128210571D01*
X87094000Y-129639142D02*
X87236857Y-129710571D01*
X87522571Y-129710571D01*
X87665428Y-129639142D01*
X87736857Y-129496285D01*
X87736857Y-128924857D01*
X87665428Y-128782000D01*
X87522571Y-128710571D01*
X87236857Y-128710571D01*
X87094000Y-128782000D01*
X87022571Y-128924857D01*
X87022571Y-129067714D01*
X87736857Y-129210571D01*
X86736857Y-129853428D02*
X85594000Y-129853428D01*
X85022571Y-128853428D02*
X85165428Y-128782000D01*
X85236857Y-128710571D01*
X85308285Y-128567714D01*
X85308285Y-128496285D01*
X85236857Y-128353428D01*
X85165428Y-128282000D01*
X85022571Y-128210571D01*
X84736857Y-128210571D01*
X84594000Y-128282000D01*
X84522571Y-128353428D01*
X84451142Y-128496285D01*
X84451142Y-128567714D01*
X84522571Y-128710571D01*
X84594000Y-128782000D01*
X84736857Y-128853428D01*
X85022571Y-128853428D01*
X85165428Y-128924857D01*
X85236857Y-128996285D01*
X85308285Y-129139142D01*
X85308285Y-129424857D01*
X85236857Y-129567714D01*
X85165428Y-129639142D01*
X85022571Y-129710571D01*
X84736857Y-129710571D01*
X84594000Y-129639142D01*
X84522571Y-129567714D01*
X84451142Y-129424857D01*
X84451142Y-129139142D01*
X84522571Y-128996285D01*
X84594000Y-128924857D01*
X84736857Y-128853428D01*
X83951142Y-129710571D02*
X83165428Y-128710571D01*
X83951142Y-128710571D02*
X83165428Y-129710571D01*
X82951142Y-129853428D02*
X81808285Y-129853428D01*
X80665428Y-129710571D02*
X81522571Y-129710571D01*
X81094000Y-129710571D02*
X81094000Y-128210571D01*
X81236857Y-128424857D01*
X81379714Y-128567714D01*
X81522571Y-128639142D01*
X79736857Y-128210571D02*
X79594000Y-128210571D01*
X79451142Y-128282000D01*
X79379714Y-128353428D01*
X79308285Y-128496285D01*
X79236857Y-128782000D01*
X79236857Y-129139142D01*
X79308285Y-129424857D01*
X79379714Y-129567714D01*
X79451142Y-129639142D01*
X79594000Y-129710571D01*
X79736857Y-129710571D01*
X79879714Y-129639142D01*
X79951142Y-129567714D01*
X80022571Y-129424857D01*
X80094000Y-129139142D01*
X80094000Y-128782000D01*
X80022571Y-128496285D01*
X79951142Y-128353428D01*
X79879714Y-128282000D01*
X79736857Y-128210571D01*
X78308285Y-128210571D02*
X78165428Y-128210571D01*
X78022571Y-128282000D01*
X77951142Y-128353428D01*
X77879714Y-128496285D01*
X77808285Y-128782000D01*
X77808285Y-129139142D01*
X77879714Y-129424857D01*
X77951142Y-129567714D01*
X78022571Y-129639142D01*
X78165428Y-129710571D01*
X78308285Y-129710571D01*
X78451142Y-129639142D01*
X78522571Y-129567714D01*
X78594000Y-129424857D01*
X78665428Y-129139142D01*
X78665428Y-128782000D01*
X78594000Y-128496285D01*
X78522571Y-128353428D01*
X78451142Y-128282000D01*
X78308285Y-128210571D01*
X77379714Y-128210571D02*
X76879714Y-129710571D01*
X76379714Y-128210571D01*
X75879714Y-129710571D02*
X75879714Y-128210571D01*
X75522571Y-128210571D01*
X75308285Y-128282000D01*
X75165428Y-128424857D01*
X75094000Y-128567714D01*
X75022571Y-128853428D01*
X75022571Y-129067714D01*
X75094000Y-129353428D01*
X75165428Y-129496285D01*
X75308285Y-129639142D01*
X75522571Y-129710571D01*
X75879714Y-129710571D01*
X73522571Y-129567714D02*
X73594000Y-129639142D01*
X73808285Y-129710571D01*
X73951142Y-129710571D01*
X74165428Y-129639142D01*
X74308285Y-129496285D01*
X74379714Y-129353428D01*
X74451142Y-129067714D01*
X74451142Y-128853428D01*
X74379714Y-128567714D01*
X74308285Y-128424857D01*
X74165428Y-128282000D01*
X73951142Y-128210571D01*
X73808285Y-128210571D01*
X73594000Y-128282000D01*
X73522571Y-128353428D01*
X73236857Y-129853428D02*
X72094000Y-129853428D01*
X70951142Y-129710571D02*
X71808285Y-129710571D01*
X71379714Y-129710571D02*
X71379714Y-128210571D01*
X71522571Y-128424857D01*
X71665428Y-128567714D01*
X71808285Y-128639142D01*
X69665428Y-128210571D02*
X69951142Y-128210571D01*
X70094000Y-128282000D01*
X70165428Y-128353428D01*
X70308285Y-128567714D01*
X70379714Y-128853428D01*
X70379714Y-129424857D01*
X70308285Y-129567714D01*
X70236857Y-129639142D01*
X70094000Y-129710571D01*
X69808285Y-129710571D01*
X69665428Y-129639142D01*
X69594000Y-129567714D01*
X69522571Y-129424857D01*
X69522571Y-129067714D01*
X69594000Y-128924857D01*
X69665428Y-128853428D01*
X69808285Y-128782000D01*
X70094000Y-128782000D01*
X70236857Y-128853428D01*
X70308285Y-128924857D01*
X70379714Y-129067714D01*
X68951142Y-129282000D02*
X68236857Y-129282000D01*
X69094000Y-129710571D02*
X68594000Y-128210571D01*
X68094000Y-129710571D01*
X67951142Y-129853428D02*
X66808285Y-129853428D01*
X66236857Y-129710571D02*
X66379714Y-129639142D01*
X66451142Y-129567714D01*
X66522571Y-129424857D01*
X66522571Y-128996285D01*
X66451142Y-128853428D01*
X66379714Y-128782000D01*
X66236857Y-128710571D01*
X66022571Y-128710571D01*
X65879714Y-128782000D01*
X65808285Y-128853428D01*
X65736857Y-128996285D01*
X65736857Y-129424857D01*
X65808285Y-129567714D01*
X65879714Y-129639142D01*
X66022571Y-129710571D01*
X66236857Y-129710571D01*
X64451142Y-128710571D02*
X64451142Y-129710571D01*
X65094000Y-128710571D02*
X65094000Y-129496285D01*
X65022571Y-129639142D01*
X64879714Y-129710571D01*
X64665428Y-129710571D01*
X64522571Y-129639142D01*
X64451142Y-129567714D01*
X63951142Y-128710571D02*
X63379714Y-128710571D01*
X63736857Y-128210571D02*
X63736857Y-129496285D01*
X63665428Y-129639142D01*
X63522571Y-129710571D01*
X63379714Y-129710571D01*
D11*
G04 #@! TO.P,D1,1*
G04 #@! TO.N,/GNDD*
X68580000Y-120650000D03*
D12*
G04 #@! TO.P,D1,2*
G04 #@! TO.N,Net-(D1-Pad2)*
X68580000Y-123190000D03*
G04 #@! TD*
D11*
G04 #@! TO.P,D2,1*
G04 #@! TO.N,/GNDD*
X73660000Y-120650000D03*
D12*
G04 #@! TO.P,D2,2*
G04 #@! TO.N,Net-(D2-Pad2)*
X73660000Y-123190000D03*
G04 #@! TD*
G04 #@! TO.P,D3,2*
G04 #@! TO.N,Net-(D3-Pad2)*
X78740000Y-123190000D03*
D11*
G04 #@! TO.P,D3,1*
G04 #@! TO.N,/GNDD*
X78740000Y-120650000D03*
G04 #@! TD*
G04 #@! TO.P,D4,1*
G04 #@! TO.N,/GNDD*
X83820000Y-120650000D03*
D12*
G04 #@! TO.P,D4,2*
G04 #@! TO.N,Net-(D4-Pad2)*
X83820000Y-123190000D03*
G04 #@! TD*
G04 #@! TO.P,D5,2*
G04 #@! TO.N,Net-(D5-Pad2)*
X90170000Y-123190000D03*
D11*
G04 #@! TO.P,D5,1*
G04 #@! TO.N,/GNDD*
X90170000Y-120650000D03*
G04 #@! TD*
G04 #@! TO.P,D6,1*
G04 #@! TO.N,/GNDD*
X95250000Y-120650000D03*
D12*
G04 #@! TO.P,D6,2*
G04 #@! TO.N,Net-(D6-Pad2)*
X95250000Y-123190000D03*
G04 #@! TD*
G04 #@! TO.P,D7,2*
G04 #@! TO.N,Net-(D7-Pad2)*
X100330000Y-123190000D03*
D11*
G04 #@! TO.P,D7,1*
G04 #@! TO.N,/GNDD*
X100330000Y-120650000D03*
G04 #@! TD*
D12*
G04 #@! TO.P,D8,2*
G04 #@! TO.N,Net-(D8-Pad2)*
X105410000Y-123190000D03*
D11*
G04 #@! TO.P,D8,1*
G04 #@! TO.N,/GNDD*
X105410000Y-120650000D03*
G04 #@! TD*
D13*
G04 #@! TO.P,D9,1*
G04 #@! TO.N,/+9V*
X107950000Y-125730000D03*
D14*
G04 #@! TO.P,D9,2*
G04 #@! TO.N,/PWR_GND*
X107950000Y-133350000D03*
G04 #@! TD*
D15*
G04 #@! TO.P,J1,1*
G04 #@! TO.N,/GNDD*
X75010000Y-114300000D03*
D16*
G04 #@! TO.P,J1,2*
G04 #@! TO.N,/GPB0*
X77510000Y-114300000D03*
G04 #@! TO.P,J1,3*
G04 #@! TO.N,/GPB1*
X80010000Y-114300000D03*
G04 #@! TO.P,J1,4*
G04 #@! TO.N,/GPB2*
X82510000Y-114300000D03*
G04 #@! TO.P,J1,5*
G04 #@! TO.N,/GPB3*
X85010000Y-114300000D03*
G04 #@! TO.P,J1,6*
G04 #@! TO.N,/GPB4*
X87510000Y-114300000D03*
G04 #@! TO.P,J1,7*
G04 #@! TO.N,/GPB5*
X90010000Y-114300000D03*
G04 #@! TO.P,J1,8*
G04 #@! TO.N,/GPB6*
X92510000Y-114300000D03*
G04 #@! TO.P,J1,9*
G04 #@! TO.N,/GPB7*
X95010000Y-114300000D03*
G04 #@! TO.P,J1,10*
G04 #@! TO.N,/+24V*
X97510000Y-114300000D03*
G04 #@! TD*
D17*
G04 #@! TO.P,J2,1*
G04 #@! TO.N,/out0*
X66040000Y-181610000D03*
D18*
G04 #@! TO.P,J2,2*
G04 #@! TO.N,/out1*
X71120000Y-181610000D03*
G04 #@! TO.P,J2,3*
G04 #@! TO.N,/out2*
X76200000Y-181610000D03*
G04 #@! TO.P,J2,4*
G04 #@! TO.N,/out3*
X81280000Y-181610000D03*
G04 #@! TO.P,J2,5*
G04 #@! TO.N,/out4*
X86360000Y-181610000D03*
G04 #@! TO.P,J2,6*
G04 #@! TO.N,/out5*
X91440000Y-181610000D03*
G04 #@! TO.P,J2,7*
G04 #@! TO.N,/out6*
X96520000Y-181610000D03*
G04 #@! TO.P,J2,8*
G04 #@! TO.N,/out7*
X101600000Y-181610000D03*
G04 #@! TO.P,J2,9*
G04 #@! TO.N,/PWR_GND*
X106680000Y-181610000D03*
G04 #@! TD*
D19*
G04 #@! TO.P,R1,1*
G04 #@! TO.N,/GPB0*
X66040000Y-118110000D03*
D20*
G04 #@! TO.P,R1,2*
G04 #@! TO.N,Net-(R1-Pad2)*
X66040000Y-123190000D03*
G04 #@! TD*
G04 #@! TO.P,R2,2*
G04 #@! TO.N,Net-(R2-Pad2)*
X71120000Y-123190000D03*
D19*
G04 #@! TO.P,R2,1*
G04 #@! TO.N,/GPB1*
X71120000Y-118110000D03*
G04 #@! TD*
D20*
G04 #@! TO.P,R3,2*
G04 #@! TO.N,Net-(R3-Pad2)*
X76200000Y-123190000D03*
D19*
G04 #@! TO.P,R3,1*
G04 #@! TO.N,/GPB2*
X76200000Y-118110000D03*
G04 #@! TD*
D20*
G04 #@! TO.P,R4,2*
G04 #@! TO.N,Net-(R4-Pad2)*
X81280000Y-123190000D03*
D19*
G04 #@! TO.P,R4,1*
G04 #@! TO.N,/GPB3*
X81280000Y-118110000D03*
G04 #@! TD*
G04 #@! TO.P,R5,1*
G04 #@! TO.N,/GPB4*
X87630000Y-118110000D03*
D20*
G04 #@! TO.P,R5,2*
G04 #@! TO.N,Net-(R5-Pad2)*
X87630000Y-123190000D03*
G04 #@! TD*
D19*
G04 #@! TO.P,R6,1*
G04 #@! TO.N,/GPB5*
X92710000Y-118110000D03*
D20*
G04 #@! TO.P,R6,2*
G04 #@! TO.N,Net-(R6-Pad2)*
X92710000Y-123190000D03*
G04 #@! TD*
G04 #@! TO.P,R7,2*
G04 #@! TO.N,Net-(R7-Pad2)*
X97790000Y-123190000D03*
D19*
G04 #@! TO.P,R7,1*
G04 #@! TO.N,/GPB6*
X97790000Y-118110000D03*
G04 #@! TD*
D20*
G04 #@! TO.P,R8,2*
G04 #@! TO.N,Net-(R8-Pad2)*
X102870000Y-123190000D03*
D19*
G04 #@! TO.P,R8,1*
G04 #@! TO.N,/GPB7*
X102870000Y-118110000D03*
G04 #@! TD*
D20*
G04 #@! TO.P,R9,2*
G04 #@! TO.N,/+9V*
X107950000Y-123190000D03*
D19*
G04 #@! TO.P,R9,1*
G04 #@! TO.N,/+24V*
X107950000Y-118110000D03*
G04 #@! TD*
G04 #@! TO.P,R10,1*
G04 #@! TO.N,Net-(Q1-Pad1)*
X81280000Y-146050000D03*
D20*
G04 #@! TO.P,R10,2*
G04 #@! TO.N,/PWR_GND*
X81280000Y-140970000D03*
G04 #@! TD*
D19*
G04 #@! TO.P,R11,1*
G04 #@! TO.N,Net-(Q2-Pad1)*
X81280000Y-158750000D03*
D20*
G04 #@! TO.P,R11,2*
G04 #@! TO.N,/PWR_GND*
X81280000Y-153670000D03*
G04 #@! TD*
D19*
G04 #@! TO.P,R12,1*
G04 #@! TO.N,Net-(Q3-Pad1)*
X78486000Y-135890000D03*
D20*
G04 #@! TO.P,R12,2*
G04 #@! TO.N,/PWR_GND*
X73406000Y-135890000D03*
G04 #@! TD*
D19*
G04 #@! TO.P,R13,1*
G04 #@! TO.N,Net-(Q4-Pad1)*
X85598000Y-135890000D03*
D20*
G04 #@! TO.P,R13,2*
G04 #@! TO.N,/PWR_GND*
X80518000Y-135890000D03*
G04 #@! TD*
G04 #@! TO.P,R14,2*
G04 #@! TO.N,/PWR_GND*
X92710000Y-135890000D03*
D19*
G04 #@! TO.P,R14,1*
G04 #@! TO.N,Net-(Q5-Pad1)*
X87630000Y-135890000D03*
G04 #@! TD*
D20*
G04 #@! TO.P,R15,2*
G04 #@! TO.N,/PWR_GND*
X91440000Y-158750000D03*
D19*
G04 #@! TO.P,R15,1*
G04 #@! TO.N,Net-(Q6-Pad1)*
X91440000Y-153670000D03*
G04 #@! TD*
G04 #@! TO.P,R16,1*
G04 #@! TO.N,Net-(Q7-Pad1)*
X99822000Y-135890000D03*
D20*
G04 #@! TO.P,R16,2*
G04 #@! TO.N,/PWR_GND*
X94742000Y-135890000D03*
G04 #@! TD*
D19*
G04 #@! TO.P,R17,1*
G04 #@! TO.N,Net-(Q8-Pad1)*
X91440000Y-140970000D03*
D20*
G04 #@! TO.P,R17,2*
G04 #@! TO.N,/PWR_GND*
X91440000Y-146050000D03*
G04 #@! TD*
D21*
G04 #@! TO.P,U1,1*
G04 #@! TO.N,/+9V*
X66040000Y-133350000D03*
D22*
G04 #@! TO.P,U1,9*
G04 #@! TO.N,Net-(D4-Pad2)*
X83820000Y-125730000D03*
G04 #@! TO.P,U1,2*
G04 #@! TO.N,Net-(Q1-Pad1)*
X68580000Y-133350000D03*
G04 #@! TO.P,U1,10*
G04 #@! TO.N,Net-(R4-Pad2)*
X81280000Y-125730000D03*
G04 #@! TO.P,U1,3*
G04 #@! TO.N,/+9V*
X71120000Y-133350000D03*
G04 #@! TO.P,U1,11*
G04 #@! TO.N,Net-(D3-Pad2)*
X78740000Y-125730000D03*
G04 #@! TO.P,U1,4*
G04 #@! TO.N,Net-(Q2-Pad1)*
X73660000Y-133350000D03*
G04 #@! TO.P,U1,12*
G04 #@! TO.N,Net-(R3-Pad2)*
X76200000Y-125730000D03*
G04 #@! TO.P,U1,5*
G04 #@! TO.N,/+9V*
X76200000Y-133350000D03*
G04 #@! TO.P,U1,13*
G04 #@! TO.N,Net-(D2-Pad2)*
X73660000Y-125730000D03*
G04 #@! TO.P,U1,6*
G04 #@! TO.N,Net-(Q3-Pad1)*
X78740000Y-133350000D03*
G04 #@! TO.P,U1,14*
G04 #@! TO.N,Net-(R2-Pad2)*
X71120000Y-125730000D03*
G04 #@! TO.P,U1,7*
G04 #@! TO.N,/+9V*
X81280000Y-133350000D03*
G04 #@! TO.P,U1,15*
G04 #@! TO.N,Net-(D1-Pad2)*
X68580000Y-125730000D03*
G04 #@! TO.P,U1,8*
G04 #@! TO.N,Net-(Q4-Pad1)*
X83820000Y-133350000D03*
G04 #@! TO.P,U1,16*
G04 #@! TO.N,Net-(R1-Pad2)*
X66040000Y-125730000D03*
G04 #@! TD*
G04 #@! TO.P,U2,16*
G04 #@! TO.N,Net-(R5-Pad2)*
X87630000Y-125730000D03*
G04 #@! TO.P,U2,8*
G04 #@! TO.N,Net-(Q8-Pad1)*
X105410000Y-133350000D03*
G04 #@! TO.P,U2,15*
G04 #@! TO.N,Net-(D5-Pad2)*
X90170000Y-125730000D03*
G04 #@! TO.P,U2,7*
G04 #@! TO.N,/+9V*
X102870000Y-133350000D03*
G04 #@! TO.P,U2,14*
G04 #@! TO.N,Net-(R6-Pad2)*
X92710000Y-125730000D03*
G04 #@! TO.P,U2,6*
G04 #@! TO.N,Net-(Q7-Pad1)*
X100330000Y-133350000D03*
G04 #@! TO.P,U2,13*
G04 #@! TO.N,Net-(D6-Pad2)*
X95250000Y-125730000D03*
G04 #@! TO.P,U2,5*
G04 #@! TO.N,/+9V*
X97790000Y-133350000D03*
G04 #@! TO.P,U2,12*
G04 #@! TO.N,Net-(R7-Pad2)*
X97790000Y-125730000D03*
G04 #@! TO.P,U2,4*
G04 #@! TO.N,Net-(Q6-Pad1)*
X95250000Y-133350000D03*
G04 #@! TO.P,U2,11*
G04 #@! TO.N,Net-(D7-Pad2)*
X100330000Y-125730000D03*
G04 #@! TO.P,U2,3*
G04 #@! TO.N,/+9V*
X92710000Y-133350000D03*
G04 #@! TO.P,U2,10*
G04 #@! TO.N,Net-(R8-Pad2)*
X102870000Y-125730000D03*
G04 #@! TO.P,U2,2*
G04 #@! TO.N,Net-(Q5-Pad1)*
X90170000Y-133350000D03*
G04 #@! TO.P,U2,9*
G04 #@! TO.N,Net-(D8-Pad2)*
X105410000Y-125730000D03*
D21*
G04 #@! TO.P,U2,1*
G04 #@! TO.N,/+9V*
X87630000Y-133350000D03*
G04 #@! TD*
D23*
G04 #@! TO.P,Q3,1*
G04 #@! TO.N,Net-(Q3-Pad1)*
X74930000Y-176530000D03*
D24*
G04 #@! TO.P,Q3,2*
G04 #@! TO.N,/out2*
X77470000Y-176530000D03*
G04 #@! TO.P,Q3,3*
G04 #@! TO.N,/PWR_GND*
X80010000Y-176530000D03*
G04 #@! TD*
D25*
G04 #@! TO.P,Q4,1*
G04 #@! TO.N,Net-(Q4-Pad1)*
X83820000Y-171450000D03*
D26*
G04 #@! TO.P,Q4,2*
G04 #@! TO.N,/out3*
X83820000Y-168910000D03*
G04 #@! TO.P,Q4,3*
G04 #@! TO.N,/PWR_GND*
X83820000Y-166370000D03*
G04 #@! TD*
G04 #@! TO.P,Q2,3*
G04 #@! TO.N,/PWR_GND*
X83820000Y-153670000D03*
G04 #@! TO.P,Q2,2*
G04 #@! TO.N,/out1*
X83820000Y-156210000D03*
D25*
G04 #@! TO.P,Q2,1*
G04 #@! TO.N,Net-(Q2-Pad1)*
X83820000Y-158750000D03*
G04 #@! TD*
G04 #@! TO.P,Q5,1*
G04 #@! TO.N,Net-(Q5-Pad1)*
X88900000Y-166370000D03*
D26*
G04 #@! TO.P,Q5,2*
G04 #@! TO.N,/out4*
X88900000Y-168910000D03*
G04 #@! TO.P,Q5,3*
G04 #@! TO.N,/PWR_GND*
X88900000Y-171450000D03*
G04 #@! TD*
G04 #@! TO.P,Q1,3*
G04 #@! TO.N,/PWR_GND*
X83820000Y-140970000D03*
G04 #@! TO.P,Q1,2*
G04 #@! TO.N,/out0*
X83820000Y-143510000D03*
D25*
G04 #@! TO.P,Q1,1*
G04 #@! TO.N,Net-(Q1-Pad1)*
X83820000Y-146050000D03*
G04 #@! TD*
G04 #@! TO.P,Q6,1*
G04 #@! TO.N,Net-(Q6-Pad1)*
X88900000Y-153670000D03*
D26*
G04 #@! TO.P,Q6,2*
G04 #@! TO.N,/out5*
X88900000Y-156210000D03*
G04 #@! TO.P,Q6,3*
G04 #@! TO.N,/PWR_GND*
X88900000Y-158750000D03*
G04 #@! TD*
D23*
G04 #@! TO.P,Q7,1*
G04 #@! TO.N,Net-(Q7-Pad1)*
X92710000Y-176530000D03*
D24*
G04 #@! TO.P,Q7,2*
G04 #@! TO.N,/out6*
X95250000Y-176530000D03*
G04 #@! TO.P,Q7,3*
G04 #@! TO.N,/PWR_GND*
X97790000Y-176530000D03*
G04 #@! TD*
D25*
G04 #@! TO.P,Q8,1*
G04 #@! TO.N,Net-(Q8-Pad1)*
X88900000Y-140970000D03*
D26*
G04 #@! TO.P,Q8,2*
G04 #@! TO.N,/out7*
X88900000Y-143510000D03*
G04 #@! TO.P,Q8,3*
G04 #@! TO.N,/PWR_GND*
X88900000Y-146050000D03*
G04 #@! TD*
D27*
G04 #@! TO.N,Net-(D1-Pad2)*
X68580000Y-123190000D02*
X68580000Y-125730000D01*
G04 #@! TO.N,Net-(D2-Pad2)*
X73660000Y-123190000D02*
X73660000Y-125730000D01*
G04 #@! TO.N,Net-(D3-Pad2)*
X78740000Y-123190000D02*
X78740000Y-125730000D01*
G04 #@! TO.N,Net-(D4-Pad2)*
X83820000Y-123190000D02*
X83820000Y-125730000D01*
G04 #@! TO.N,Net-(D5-Pad2)*
X90170000Y-123190000D02*
X90170000Y-125730000D01*
G04 #@! TO.N,Net-(D6-Pad2)*
X95250000Y-123190000D02*
X95250000Y-125730000D01*
G04 #@! TO.N,Net-(D7-Pad2)*
X100330000Y-123190000D02*
X100330000Y-125730000D01*
G04 #@! TO.N,Net-(D8-Pad2)*
X105410000Y-123190000D02*
X105410000Y-125730000D01*
D28*
G04 #@! TO.N,/+9V*
X107950000Y-124179949D02*
X107950000Y-125730000D01*
X107950000Y-123190000D02*
X107950000Y-124179949D01*
G04 #@! TO.N,/GPB0*
X76957000Y-116078000D02*
X68072000Y-116078000D01*
X68072000Y-116078000D02*
X66040000Y-118110000D01*
X77510000Y-114300000D02*
X77510000Y-115525000D01*
X77510000Y-115525000D02*
X76957000Y-116078000D01*
G04 #@! TO.N,/GPB1*
X72644000Y-116586000D02*
X71120000Y-118110000D01*
X77849000Y-116586000D02*
X72644000Y-116586000D01*
X80010000Y-114300000D02*
X80010000Y-114425000D01*
X80010000Y-114425000D02*
X77849000Y-116586000D01*
G04 #@! TO.N,/GPB2*
X80857000Y-116078000D02*
X79221949Y-116078000D01*
X77189949Y-118110000D02*
X76200000Y-118110000D01*
X79221949Y-116078000D02*
X77189949Y-118110000D01*
X82510000Y-114300000D02*
X82510000Y-114425000D01*
X82510000Y-114425000D02*
X80857000Y-116078000D01*
G04 #@! TO.N,/GPB3*
X81325000Y-118110000D02*
X81280000Y-118110000D01*
X85010000Y-114425000D02*
X81325000Y-118110000D01*
X85010000Y-114300000D02*
X85010000Y-114425000D01*
G04 #@! TO.N,/GPB4*
X87510000Y-117990000D02*
X87630000Y-118110000D01*
X87510000Y-114300000D02*
X87510000Y-117990000D01*
G04 #@! TO.N,/GPB5*
X92710000Y-117125000D02*
X92710000Y-118110000D01*
X90010000Y-114425000D02*
X92710000Y-117125000D01*
X90010000Y-114300000D02*
X90010000Y-114425000D01*
G04 #@! TO.N,/GPB6*
X97536000Y-118110000D02*
X97790000Y-118110000D01*
X95504000Y-116078000D02*
X97536000Y-118110000D01*
X93063000Y-116078000D02*
X95504000Y-116078000D01*
X92510000Y-114300000D02*
X92510000Y-115525000D01*
X92510000Y-115525000D02*
X93063000Y-116078000D01*
G04 #@! TO.N,/GPB7*
X102616000Y-118110000D02*
X102870000Y-118110000D01*
X100584000Y-116078000D02*
X102616000Y-118110000D01*
X96663000Y-116078000D02*
X100584000Y-116078000D01*
X95010000Y-114300000D02*
X95010000Y-114425000D01*
X95010000Y-114425000D02*
X96663000Y-116078000D01*
G04 #@! TO.N,/+24V*
X104140000Y-114300000D02*
X107950000Y-118110000D01*
X97510000Y-114300000D02*
X104140000Y-114300000D01*
D29*
G04 #@! TO.N,/out0*
X70993000Y-170307000D02*
X66040000Y-175260000D01*
X66040000Y-175260000D02*
X66040000Y-181610000D01*
X70993000Y-152837000D02*
X70993000Y-170307000D01*
X83820000Y-143510000D02*
X80320000Y-143510000D01*
X80320000Y-143510000D02*
X70993000Y-152837000D01*
G04 #@! TO.N,/out1*
X71120000Y-180848000D02*
X71120000Y-181610000D01*
X80637998Y-156210000D02*
X77216000Y-159631998D01*
X83820000Y-156210000D02*
X80637998Y-156210000D01*
X77216000Y-169926000D02*
X72390000Y-174752000D01*
X77216000Y-159631998D02*
X77216000Y-169926000D01*
X72390000Y-179578000D02*
X71120000Y-180848000D01*
X72390000Y-174752000D02*
X72390000Y-179578000D01*
G04 #@! TO.N,/out5*
X92082002Y-156210000D02*
X88900000Y-156210000D01*
X91440000Y-180850000D02*
X90170000Y-179580000D01*
X91440000Y-181610000D02*
X91440000Y-180850000D01*
X90170000Y-179580000D02*
X90170000Y-174244000D01*
X90170000Y-174244000D02*
X94860001Y-169553999D01*
X94860001Y-169553999D02*
X94860001Y-158987999D01*
X94860001Y-158987999D02*
X92082002Y-156210000D01*
G04 #@! TO.N,/out7*
X101600000Y-152710000D02*
X101600000Y-177310000D01*
X92400000Y-143510000D02*
X101600000Y-152710000D01*
X101600000Y-177310000D02*
X101600000Y-181610000D01*
X88900000Y-143510000D02*
X92400000Y-143510000D01*
D27*
G04 #@! TO.N,Net-(R1-Pad2)*
X66040000Y-123190000D02*
X66040000Y-125730000D01*
G04 #@! TO.N,Net-(R2-Pad2)*
X71120000Y-123190000D02*
X71120000Y-125730000D01*
G04 #@! TO.N,Net-(R3-Pad2)*
X76200000Y-123190000D02*
X76200000Y-125730000D01*
G04 #@! TO.N,Net-(R4-Pad2)*
X81280000Y-123190000D02*
X81280000Y-125730000D01*
G04 #@! TO.N,Net-(R5-Pad2)*
X87630000Y-123190000D02*
X87630000Y-125730000D01*
G04 #@! TO.N,Net-(R6-Pad2)*
X92710000Y-123190000D02*
X92710000Y-125730000D01*
G04 #@! TO.N,Net-(R7-Pad2)*
X97790000Y-123190000D02*
X97790000Y-125730000D01*
G04 #@! TO.N,Net-(R8-Pad2)*
X102870000Y-123190000D02*
X102870000Y-125730000D01*
G04 #@! TD*
D30*
G04 #@! TO.N,/PWR_GND*
G36*
X108993000Y-185447000D02*
X63727000Y-185447000D01*
X63727000Y-175260000D01*
X64145881Y-175260000D01*
X64155000Y-175352589D01*
X64155001Y-181702597D01*
X64182276Y-181979524D01*
X64290062Y-182334848D01*
X64361928Y-182469300D01*
X64361928Y-183410000D01*
X64374188Y-183534482D01*
X64410498Y-183654180D01*
X64469463Y-183764494D01*
X64548815Y-183861185D01*
X64645506Y-183940537D01*
X64755820Y-183999502D01*
X64875518Y-184035812D01*
X65000000Y-184048072D01*
X67080000Y-184048072D01*
X67204482Y-184035812D01*
X67324180Y-183999502D01*
X67434494Y-183940537D01*
X67531185Y-183861185D01*
X67610537Y-183764494D01*
X67669502Y-183654180D01*
X67705812Y-183534482D01*
X67718072Y-183410000D01*
X67718072Y-182469302D01*
X67789939Y-182334848D01*
X67897725Y-181979524D01*
X67925000Y-181702597D01*
X67925000Y-180848000D01*
X69225881Y-180848000D01*
X69235000Y-180940589D01*
X69235000Y-181702597D01*
X69262275Y-181979524D01*
X69370061Y-182334848D01*
X69447749Y-182480192D01*
X69469236Y-182698357D01*
X69565016Y-183014096D01*
X69720551Y-183305082D01*
X69929867Y-183560134D01*
X70184919Y-183769450D01*
X70475905Y-183924985D01*
X70791644Y-184020764D01*
X71120000Y-184053104D01*
X71448357Y-184020764D01*
X71764096Y-183924985D01*
X72055082Y-183769450D01*
X72310134Y-183560134D01*
X72519450Y-183305082D01*
X72674985Y-183014096D01*
X72770764Y-182698357D01*
X72792251Y-182480192D01*
X72869939Y-182334848D01*
X72977725Y-181979524D01*
X73005000Y-181702596D01*
X73005000Y-181628792D01*
X73657423Y-180976370D01*
X73729345Y-180917345D01*
X73852140Y-180767719D01*
X74525000Y-180767719D01*
X74525000Y-182452282D01*
X74549236Y-182698357D01*
X74645016Y-183014096D01*
X74800551Y-183305082D01*
X75009867Y-183560134D01*
X75264919Y-183769450D01*
X75555905Y-183924985D01*
X75871644Y-184020764D01*
X76200000Y-184053104D01*
X76528357Y-184020764D01*
X76844096Y-183924985D01*
X77135082Y-183769450D01*
X77390134Y-183560134D01*
X77599450Y-183305082D01*
X77754985Y-183014096D01*
X77850764Y-182698357D01*
X77875000Y-182452282D01*
X77875000Y-180767719D01*
X79605000Y-180767719D01*
X79605000Y-182452282D01*
X79629236Y-182698357D01*
X79725016Y-183014096D01*
X79880551Y-183305082D01*
X80089867Y-183560134D01*
X80344919Y-183769450D01*
X80635905Y-183924985D01*
X80951644Y-184020764D01*
X81280000Y-184053104D01*
X81608357Y-184020764D01*
X81924096Y-183924985D01*
X82215082Y-183769450D01*
X82470134Y-183560134D01*
X82679450Y-183305082D01*
X82834985Y-183014096D01*
X82930764Y-182698357D01*
X82955000Y-182452282D01*
X82955000Y-180767719D01*
X84685000Y-180767719D01*
X84685000Y-182452282D01*
X84709236Y-182698357D01*
X84805016Y-183014096D01*
X84960551Y-183305082D01*
X85169867Y-183560134D01*
X85424919Y-183769450D01*
X85715905Y-183924985D01*
X86031644Y-184020764D01*
X86360000Y-184053104D01*
X86688357Y-184020764D01*
X87004096Y-183924985D01*
X87295082Y-183769450D01*
X87550134Y-183560134D01*
X87759450Y-183305082D01*
X87914985Y-183014096D01*
X88010764Y-182698357D01*
X88035000Y-182452282D01*
X88035000Y-180767718D01*
X88010764Y-180521643D01*
X87914985Y-180205904D01*
X87759450Y-179914918D01*
X87550134Y-179659866D01*
X87295081Y-179450550D01*
X87004095Y-179295015D01*
X86688356Y-179199236D01*
X86360000Y-179166896D01*
X86031643Y-179199236D01*
X85715904Y-179295015D01*
X85424918Y-179450550D01*
X85169866Y-179659866D01*
X84960550Y-179914919D01*
X84805015Y-180205905D01*
X84709236Y-180521644D01*
X84685000Y-180767719D01*
X82955000Y-180767719D01*
X82955000Y-180767718D01*
X82930764Y-180521643D01*
X82834985Y-180205904D01*
X82679450Y-179914918D01*
X82470134Y-179659866D01*
X82215081Y-179450550D01*
X81924095Y-179295015D01*
X81608356Y-179199236D01*
X81280000Y-179166896D01*
X80951643Y-179199236D01*
X80635904Y-179295015D01*
X80344918Y-179450550D01*
X80089866Y-179659866D01*
X79880550Y-179914919D01*
X79725015Y-180205905D01*
X79629236Y-180521644D01*
X79605000Y-180767719D01*
X77875000Y-180767719D01*
X77875000Y-180767718D01*
X77850764Y-180521643D01*
X77754985Y-180205904D01*
X77599450Y-179914918D01*
X77390134Y-179659866D01*
X77135081Y-179450550D01*
X76844095Y-179295015D01*
X76528356Y-179199236D01*
X76200000Y-179166896D01*
X75871643Y-179199236D01*
X75555904Y-179295015D01*
X75264918Y-179450550D01*
X75009866Y-179659866D01*
X74800550Y-179914919D01*
X74645015Y-180205905D01*
X74549236Y-180521644D01*
X74525000Y-180767719D01*
X73852140Y-180767719D01*
X73862248Y-180755403D01*
X73914321Y-180691951D01*
X73964903Y-180630317D01*
X74139939Y-180302848D01*
X74247725Y-179947524D01*
X74275000Y-179670597D01*
X74275000Y-179670588D01*
X74284119Y-179578001D01*
X74275000Y-179485414D01*
X74275000Y-178168072D01*
X75882500Y-178168072D01*
X76006982Y-178155812D01*
X76126680Y-178119502D01*
X76236994Y-178060537D01*
X76333685Y-177981185D01*
X76413037Y-177884494D01*
X76457905Y-177800553D01*
X76583766Y-177903845D01*
X76859552Y-178051255D01*
X77158797Y-178142030D01*
X77470000Y-178172681D01*
X77781204Y-178142030D01*
X78080449Y-178051255D01*
X78356235Y-177903845D01*
X78597963Y-177705463D01*
X78796345Y-177463734D01*
X78943755Y-177187948D01*
X79034530Y-176888703D01*
X79057500Y-176655485D01*
X79057500Y-176404514D01*
X79034530Y-176171296D01*
X78943755Y-175872051D01*
X78796345Y-175596265D01*
X78597963Y-175354537D01*
X78356234Y-175156155D01*
X78080448Y-175008745D01*
X77781203Y-174917970D01*
X77470000Y-174887319D01*
X77158796Y-174917970D01*
X76859551Y-175008745D01*
X76583765Y-175156155D01*
X76457905Y-175259446D01*
X76413037Y-175175506D01*
X76333685Y-175078815D01*
X76236994Y-174999463D01*
X76126680Y-174940498D01*
X76006982Y-174904188D01*
X75882500Y-174891928D01*
X74915864Y-174891928D01*
X78483423Y-171324370D01*
X78555345Y-171265345D01*
X78671252Y-171124113D01*
X78790903Y-170978317D01*
X78874766Y-170821420D01*
X78965939Y-170650848D01*
X79073725Y-170295524D01*
X79101000Y-170018597D01*
X79110120Y-169926000D01*
X79101000Y-169833403D01*
X79101000Y-168910000D01*
X82177319Y-168910000D01*
X82207970Y-169221204D01*
X82298745Y-169520449D01*
X82446155Y-169796235D01*
X82549446Y-169922095D01*
X82465506Y-169966963D01*
X82368815Y-170046315D01*
X82289463Y-170143006D01*
X82230498Y-170253320D01*
X82194188Y-170373018D01*
X82181928Y-170497500D01*
X82181928Y-172402500D01*
X82194188Y-172526982D01*
X82230498Y-172646680D01*
X82289463Y-172756994D01*
X82368815Y-172853685D01*
X82465506Y-172933037D01*
X82575820Y-172992002D01*
X82695518Y-173028312D01*
X82820000Y-173040572D01*
X84820000Y-173040572D01*
X84944482Y-173028312D01*
X85064180Y-172992002D01*
X85174494Y-172933037D01*
X85271185Y-172853685D01*
X85350537Y-172756994D01*
X85409502Y-172646680D01*
X85445812Y-172526982D01*
X85458072Y-172402500D01*
X85458072Y-170497500D01*
X85445812Y-170373018D01*
X85409502Y-170253320D01*
X85350537Y-170143006D01*
X85271185Y-170046315D01*
X85174494Y-169966963D01*
X85090554Y-169922095D01*
X85193845Y-169796235D01*
X85341255Y-169520449D01*
X85432030Y-169221204D01*
X85462681Y-168910000D01*
X87257319Y-168910000D01*
X87287970Y-169221204D01*
X87378745Y-169520449D01*
X87526155Y-169796235D01*
X87724537Y-170037963D01*
X87966265Y-170236345D01*
X88242051Y-170383755D01*
X88541296Y-170474530D01*
X88774514Y-170497500D01*
X89025486Y-170497500D01*
X89258704Y-170474530D01*
X89557949Y-170383755D01*
X89833735Y-170236345D01*
X90075463Y-170037963D01*
X90273845Y-169796235D01*
X90421255Y-169520449D01*
X90512030Y-169221204D01*
X90542681Y-168910000D01*
X90512030Y-168598796D01*
X90421255Y-168299551D01*
X90273845Y-168023765D01*
X90170554Y-167897905D01*
X90254494Y-167853037D01*
X90351185Y-167773685D01*
X90430537Y-167676994D01*
X90489502Y-167566680D01*
X90525812Y-167446982D01*
X90538072Y-167322500D01*
X90538072Y-165417500D01*
X90525812Y-165293018D01*
X90489502Y-165173320D01*
X90430537Y-165063006D01*
X90351185Y-164966315D01*
X90254494Y-164886963D01*
X90144180Y-164827998D01*
X90024482Y-164791688D01*
X89900000Y-164779428D01*
X87900000Y-164779428D01*
X87775518Y-164791688D01*
X87655820Y-164827998D01*
X87545506Y-164886963D01*
X87448815Y-164966315D01*
X87369463Y-165063006D01*
X87310498Y-165173320D01*
X87274188Y-165293018D01*
X87261928Y-165417500D01*
X87261928Y-167322500D01*
X87274188Y-167446982D01*
X87310498Y-167566680D01*
X87369463Y-167676994D01*
X87448815Y-167773685D01*
X87545506Y-167853037D01*
X87629446Y-167897905D01*
X87526155Y-168023765D01*
X87378745Y-168299551D01*
X87287970Y-168598796D01*
X87257319Y-168910000D01*
X85462681Y-168910000D01*
X85432030Y-168598796D01*
X85341255Y-168299551D01*
X85193845Y-168023765D01*
X84995463Y-167782037D01*
X84753735Y-167583655D01*
X84477949Y-167436245D01*
X84178704Y-167345470D01*
X83945486Y-167322500D01*
X83694514Y-167322500D01*
X83461296Y-167345470D01*
X83162051Y-167436245D01*
X82886265Y-167583655D01*
X82644537Y-167782037D01*
X82446155Y-168023765D01*
X82298745Y-168299551D01*
X82207970Y-168598796D01*
X82177319Y-168910000D01*
X79101000Y-168910000D01*
X79101000Y-160412790D01*
X80110755Y-159403036D01*
X80243038Y-159601013D01*
X80428987Y-159786962D01*
X80647641Y-159933061D01*
X80890595Y-160033696D01*
X81148514Y-160085000D01*
X81411486Y-160085000D01*
X81669405Y-160033696D01*
X81912359Y-159933061D01*
X82131013Y-159786962D01*
X82184936Y-159733039D01*
X82194188Y-159826982D01*
X82230498Y-159946680D01*
X82289463Y-160056994D01*
X82368815Y-160153685D01*
X82465506Y-160233037D01*
X82575820Y-160292002D01*
X82695518Y-160328312D01*
X82820000Y-160340572D01*
X84820000Y-160340572D01*
X84944482Y-160328312D01*
X85064180Y-160292002D01*
X85174494Y-160233037D01*
X85271185Y-160153685D01*
X85350537Y-160056994D01*
X85409502Y-159946680D01*
X85445812Y-159826982D01*
X85458072Y-159702500D01*
X85458072Y-157797500D01*
X85445812Y-157673018D01*
X85409502Y-157553320D01*
X85350537Y-157443006D01*
X85298576Y-157379691D01*
X85394903Y-157262317D01*
X85569939Y-156934848D01*
X85677725Y-156579524D01*
X85714120Y-156210000D01*
X87005880Y-156210000D01*
X87042275Y-156579524D01*
X87150061Y-156934848D01*
X87325097Y-157262317D01*
X87560655Y-157549345D01*
X87847683Y-157784903D01*
X88175152Y-157959939D01*
X88530476Y-158067725D01*
X88807403Y-158095000D01*
X91301210Y-158095000D01*
X92975002Y-159768793D01*
X92975001Y-168773206D01*
X88902577Y-172845631D01*
X88830656Y-172904655D01*
X88771631Y-172976577D01*
X88771628Y-172976580D01*
X88595098Y-173191683D01*
X88420062Y-173519152D01*
X88312275Y-173874476D01*
X88275881Y-174244000D01*
X88285001Y-174336599D01*
X88285000Y-179487411D01*
X88275881Y-179580000D01*
X88285000Y-179672589D01*
X88285000Y-179672596D01*
X88312275Y-179949523D01*
X88420061Y-180304847D01*
X88595097Y-180632317D01*
X88830655Y-180919345D01*
X88902582Y-180978374D01*
X89555000Y-181630793D01*
X89555000Y-181702596D01*
X89582275Y-181979523D01*
X89690061Y-182334847D01*
X89767749Y-182480191D01*
X89789236Y-182698357D01*
X89885016Y-183014096D01*
X90040551Y-183305082D01*
X90249867Y-183560134D01*
X90504919Y-183769450D01*
X90795905Y-183924985D01*
X91111644Y-184020764D01*
X91440000Y-184053104D01*
X91768357Y-184020764D01*
X92084096Y-183924985D01*
X92375082Y-183769450D01*
X92630134Y-183560134D01*
X92839450Y-183305082D01*
X92994985Y-183014096D01*
X93090764Y-182698357D01*
X93112251Y-182480192D01*
X93189939Y-182334848D01*
X93297725Y-181979524D01*
X93325000Y-181702597D01*
X93325000Y-180942586D01*
X93334119Y-180849999D01*
X93326016Y-180767719D01*
X94845000Y-180767719D01*
X94845000Y-182452282D01*
X94869236Y-182698357D01*
X94965016Y-183014096D01*
X95120551Y-183305082D01*
X95329867Y-183560134D01*
X95584919Y-183769450D01*
X95875905Y-183924985D01*
X96191644Y-184020764D01*
X96520000Y-184053104D01*
X96848357Y-184020764D01*
X97164096Y-183924985D01*
X97455082Y-183769450D01*
X97710134Y-183560134D01*
X97919450Y-183305082D01*
X98074985Y-183014096D01*
X98170764Y-182698357D01*
X98195000Y-182452282D01*
X98195000Y-180767718D01*
X98170764Y-180521643D01*
X98074985Y-180205904D01*
X97919450Y-179914918D01*
X97710134Y-179659866D01*
X97455081Y-179450550D01*
X97164095Y-179295015D01*
X96848356Y-179199236D01*
X96520000Y-179166896D01*
X96191643Y-179199236D01*
X95875904Y-179295015D01*
X95584918Y-179450550D01*
X95329866Y-179659866D01*
X95120550Y-179914919D01*
X94965015Y-180205905D01*
X94869236Y-180521644D01*
X94845000Y-180767719D01*
X93326016Y-180767719D01*
X93325000Y-180757412D01*
X93325000Y-180757404D01*
X93297725Y-180480476D01*
X93189939Y-180125152D01*
X93014903Y-179797683D01*
X92964321Y-179736049D01*
X92838372Y-179582579D01*
X92838370Y-179582577D01*
X92779345Y-179510655D01*
X92707423Y-179451630D01*
X92055000Y-178799208D01*
X92055000Y-178168072D01*
X93662500Y-178168072D01*
X93786982Y-178155812D01*
X93906680Y-178119502D01*
X94016994Y-178060537D01*
X94113685Y-177981185D01*
X94193037Y-177884494D01*
X94237905Y-177800553D01*
X94363766Y-177903845D01*
X94639552Y-178051255D01*
X94938797Y-178142030D01*
X95250000Y-178172681D01*
X95561204Y-178142030D01*
X95860449Y-178051255D01*
X96136235Y-177903845D01*
X96377963Y-177705463D01*
X96576345Y-177463734D01*
X96723755Y-177187948D01*
X96814530Y-176888703D01*
X96837500Y-176655485D01*
X96837500Y-176404514D01*
X96814530Y-176171296D01*
X96723755Y-175872051D01*
X96576345Y-175596265D01*
X96377963Y-175354537D01*
X96136234Y-175156155D01*
X95860448Y-175008745D01*
X95561203Y-174917970D01*
X95250000Y-174887319D01*
X94938796Y-174917970D01*
X94639551Y-175008745D01*
X94363765Y-175156155D01*
X94237905Y-175259446D01*
X94193037Y-175175506D01*
X94113685Y-175078815D01*
X94016994Y-174999463D01*
X93906680Y-174940498D01*
X93786982Y-174904188D01*
X93662500Y-174891928D01*
X92187864Y-174891928D01*
X96127424Y-170952369D01*
X96199346Y-170893344D01*
X96434904Y-170606316D01*
X96609940Y-170278847D01*
X96704549Y-169966963D01*
X96717726Y-169923524D01*
X96730263Y-169796235D01*
X96745001Y-169646596D01*
X96745001Y-169646589D01*
X96754120Y-169554000D01*
X96745001Y-169461411D01*
X96745001Y-159080588D01*
X96754120Y-158987999D01*
X96745001Y-158895410D01*
X96745001Y-158895402D01*
X96717726Y-158618475D01*
X96609940Y-158263151D01*
X96434904Y-157935682D01*
X96302439Y-157774273D01*
X96258373Y-157720578D01*
X96258371Y-157720576D01*
X96199346Y-157648654D01*
X96127424Y-157589629D01*
X93480376Y-154942582D01*
X93421347Y-154870655D01*
X93134319Y-154635097D01*
X92806850Y-154460061D01*
X92566421Y-154387128D01*
X92623061Y-154302359D01*
X92723696Y-154059405D01*
X92775000Y-153801486D01*
X92775000Y-153538514D01*
X92723696Y-153280595D01*
X92623061Y-153037641D01*
X92476962Y-152818987D01*
X92291013Y-152633038D01*
X92072359Y-152486939D01*
X91829405Y-152386304D01*
X91571486Y-152335000D01*
X91308514Y-152335000D01*
X91050595Y-152386304D01*
X90807641Y-152486939D01*
X90588987Y-152633038D01*
X90535064Y-152686961D01*
X90525812Y-152593018D01*
X90489502Y-152473320D01*
X90430537Y-152363006D01*
X90351185Y-152266315D01*
X90254494Y-152186963D01*
X90144180Y-152127998D01*
X90024482Y-152091688D01*
X89900000Y-152079428D01*
X87900000Y-152079428D01*
X87775518Y-152091688D01*
X87655820Y-152127998D01*
X87545506Y-152186963D01*
X87448815Y-152266315D01*
X87369463Y-152363006D01*
X87310498Y-152473320D01*
X87274188Y-152593018D01*
X87261928Y-152717500D01*
X87261928Y-154622500D01*
X87274188Y-154746982D01*
X87310498Y-154866680D01*
X87369463Y-154976994D01*
X87421424Y-155040309D01*
X87325097Y-155157683D01*
X87150061Y-155485152D01*
X87042275Y-155840476D01*
X87005880Y-156210000D01*
X85714120Y-156210000D01*
X85677725Y-155840476D01*
X85569939Y-155485152D01*
X85394903Y-155157683D01*
X85159345Y-154870655D01*
X84872317Y-154635097D01*
X84544848Y-154460061D01*
X84189524Y-154352275D01*
X83912597Y-154325000D01*
X80730587Y-154325000D01*
X80637998Y-154315881D01*
X80545409Y-154325000D01*
X80545401Y-154325000D01*
X80300660Y-154349105D01*
X80268473Y-154352275D01*
X80160687Y-154384972D01*
X79913150Y-154460061D01*
X79585681Y-154635097D01*
X79524047Y-154685679D01*
X79370577Y-154811628D01*
X79370575Y-154811630D01*
X79298653Y-154870655D01*
X79239628Y-154942577D01*
X75948582Y-158233624D01*
X75876655Y-158292653D01*
X75641097Y-158579681D01*
X75466061Y-158907151D01*
X75358275Y-159262475D01*
X75331000Y-159539402D01*
X75331000Y-159539409D01*
X75321881Y-159631998D01*
X75331000Y-159724587D01*
X75331001Y-169145206D01*
X71122582Y-173353626D01*
X71050655Y-173412655D01*
X70815097Y-173699683D01*
X70640061Y-174027153D01*
X70532275Y-174382477D01*
X70505000Y-174659404D01*
X70505000Y-174659411D01*
X70495881Y-174752000D01*
X70505000Y-174844590D01*
X70505001Y-178797207D01*
X69852582Y-179449626D01*
X69780655Y-179508655D01*
X69545097Y-179795683D01*
X69370061Y-180123153D01*
X69262275Y-180478477D01*
X69235000Y-180755404D01*
X69235000Y-180755411D01*
X69225881Y-180848000D01*
X67925000Y-180848000D01*
X67925000Y-176040792D01*
X72260423Y-171705370D01*
X72332345Y-171646345D01*
X72451707Y-171500903D01*
X72567903Y-171359317D01*
X72656576Y-171193421D01*
X72742939Y-171031848D01*
X72850725Y-170676524D01*
X72878000Y-170399597D01*
X72887120Y-170307000D01*
X72878000Y-170214403D01*
X72878000Y-153617792D01*
X80013902Y-146481891D01*
X80096939Y-146682359D01*
X80243038Y-146901013D01*
X80428987Y-147086962D01*
X80647641Y-147233061D01*
X80890595Y-147333696D01*
X81148514Y-147385000D01*
X81411486Y-147385000D01*
X81669405Y-147333696D01*
X81912359Y-147233061D01*
X82131013Y-147086962D01*
X82184936Y-147033039D01*
X82194188Y-147126982D01*
X82230498Y-147246680D01*
X82289463Y-147356994D01*
X82368815Y-147453685D01*
X82465506Y-147533037D01*
X82575820Y-147592002D01*
X82695518Y-147628312D01*
X82820000Y-147640572D01*
X84820000Y-147640572D01*
X84944482Y-147628312D01*
X85064180Y-147592002D01*
X85174494Y-147533037D01*
X85271185Y-147453685D01*
X85350537Y-147356994D01*
X85409502Y-147246680D01*
X85445812Y-147126982D01*
X85458072Y-147002500D01*
X85458072Y-145097500D01*
X85445812Y-144973018D01*
X85409502Y-144853320D01*
X85350537Y-144743006D01*
X85298576Y-144679691D01*
X85394903Y-144562317D01*
X85569939Y-144234848D01*
X85677725Y-143879524D01*
X85714120Y-143510000D01*
X87005880Y-143510000D01*
X87042275Y-143879524D01*
X87150061Y-144234848D01*
X87325097Y-144562317D01*
X87560655Y-144849345D01*
X87847683Y-145084903D01*
X88175152Y-145259939D01*
X88530476Y-145367725D01*
X88807403Y-145395000D01*
X91619208Y-145395000D01*
X99715000Y-153490793D01*
X99715001Y-177217394D01*
X99715000Y-177217404D01*
X99715001Y-181702597D01*
X99742276Y-181979524D01*
X99850062Y-182334848D01*
X99927749Y-182480189D01*
X99949236Y-182698357D01*
X100045016Y-183014096D01*
X100200551Y-183305082D01*
X100409867Y-183560134D01*
X100664919Y-183769450D01*
X100955905Y-183924985D01*
X101271644Y-184020764D01*
X101600000Y-184053104D01*
X101928357Y-184020764D01*
X102244096Y-183924985D01*
X102535082Y-183769450D01*
X102790134Y-183560134D01*
X102999450Y-183305082D01*
X103154985Y-183014096D01*
X103250764Y-182698357D01*
X103272251Y-182480192D01*
X103349939Y-182334848D01*
X103457725Y-181979524D01*
X103485000Y-181702597D01*
X103485000Y-170087378D01*
X103567351Y-170241446D01*
X103865391Y-170604609D01*
X104228554Y-170902649D01*
X104642884Y-171124113D01*
X105092458Y-171260490D01*
X105442843Y-171295000D01*
X105677157Y-171295000D01*
X106027542Y-171260490D01*
X106477116Y-171124113D01*
X106891446Y-170902649D01*
X107254609Y-170604609D01*
X107552649Y-170241446D01*
X107774113Y-169827116D01*
X107910490Y-169377542D01*
X107956539Y-168910000D01*
X107910490Y-168442458D01*
X107774113Y-167992884D01*
X107552649Y-167578554D01*
X107254609Y-167215391D01*
X106891446Y-166917351D01*
X106477116Y-166695887D01*
X106027542Y-166559510D01*
X105677157Y-166525000D01*
X105442843Y-166525000D01*
X105092458Y-166559510D01*
X104642884Y-166695887D01*
X104228554Y-166917351D01*
X103865391Y-167215391D01*
X103567351Y-167578554D01*
X103485000Y-167732622D01*
X103485000Y-157387378D01*
X103567351Y-157541446D01*
X103865391Y-157904609D01*
X104228554Y-158202649D01*
X104642884Y-158424113D01*
X105092458Y-158560490D01*
X105442843Y-158595000D01*
X105677157Y-158595000D01*
X106027542Y-158560490D01*
X106477116Y-158424113D01*
X106891446Y-158202649D01*
X107254609Y-157904609D01*
X107552649Y-157541446D01*
X107774113Y-157127116D01*
X107910490Y-156677542D01*
X107956539Y-156210000D01*
X107910490Y-155742458D01*
X107774113Y-155292884D01*
X107552649Y-154878554D01*
X107254609Y-154515391D01*
X106891446Y-154217351D01*
X106477116Y-153995887D01*
X106027542Y-153859510D01*
X105677157Y-153825000D01*
X105442843Y-153825000D01*
X105092458Y-153859510D01*
X104642884Y-153995887D01*
X104228554Y-154217351D01*
X103865391Y-154515391D01*
X103567351Y-154878554D01*
X103485000Y-155032622D01*
X103485000Y-152802597D01*
X103494120Y-152710000D01*
X103457725Y-152340476D01*
X103456064Y-152335000D01*
X103349939Y-151985152D01*
X103174903Y-151657683D01*
X103102599Y-151569580D01*
X102998372Y-151442579D01*
X102998370Y-151442577D01*
X102939345Y-151370655D01*
X102867423Y-151311630D01*
X95065793Y-143510000D01*
X103163461Y-143510000D01*
X103209510Y-143977542D01*
X103345887Y-144427116D01*
X103567351Y-144841446D01*
X103865391Y-145204609D01*
X104228554Y-145502649D01*
X104642884Y-145724113D01*
X105092458Y-145860490D01*
X105442843Y-145895000D01*
X105677157Y-145895000D01*
X106027542Y-145860490D01*
X106477116Y-145724113D01*
X106891446Y-145502649D01*
X107254609Y-145204609D01*
X107552649Y-144841446D01*
X107774113Y-144427116D01*
X107910490Y-143977542D01*
X107956539Y-143510000D01*
X107910490Y-143042458D01*
X107774113Y-142592884D01*
X107552649Y-142178554D01*
X107254609Y-141815391D01*
X106891446Y-141517351D01*
X106477116Y-141295887D01*
X106027542Y-141159510D01*
X105677157Y-141125000D01*
X105442843Y-141125000D01*
X105092458Y-141159510D01*
X104642884Y-141295887D01*
X104228554Y-141517351D01*
X103865391Y-141815391D01*
X103567351Y-142178554D01*
X103345887Y-142592884D01*
X103209510Y-143042458D01*
X103163461Y-143510000D01*
X95065793Y-143510000D01*
X93798374Y-142242582D01*
X93739345Y-142170655D01*
X93452317Y-141935097D01*
X93124848Y-141760061D01*
X92769524Y-141652275D01*
X92600811Y-141635658D01*
X92623061Y-141602359D01*
X92723696Y-141359405D01*
X92775000Y-141101486D01*
X92775000Y-140838514D01*
X92723696Y-140580595D01*
X92623061Y-140337641D01*
X92476962Y-140118987D01*
X92291013Y-139933038D01*
X92072359Y-139786939D01*
X91829405Y-139686304D01*
X91571486Y-139635000D01*
X91308514Y-139635000D01*
X91050595Y-139686304D01*
X90807641Y-139786939D01*
X90588987Y-139933038D01*
X90535064Y-139986961D01*
X90525812Y-139893018D01*
X90489502Y-139773320D01*
X90430537Y-139663006D01*
X90351185Y-139566315D01*
X90254494Y-139486963D01*
X90144180Y-139427998D01*
X90024482Y-139391688D01*
X89900000Y-139379428D01*
X87900000Y-139379428D01*
X87775518Y-139391688D01*
X87655820Y-139427998D01*
X87545506Y-139486963D01*
X87448815Y-139566315D01*
X87369463Y-139663006D01*
X87310498Y-139773320D01*
X87274188Y-139893018D01*
X87261928Y-140017500D01*
X87261928Y-141922500D01*
X87274188Y-142046982D01*
X87310498Y-142166680D01*
X87369463Y-142276994D01*
X87421424Y-142340309D01*
X87325097Y-142457683D01*
X87150061Y-142785152D01*
X87042275Y-143140476D01*
X87005880Y-143510000D01*
X85714120Y-143510000D01*
X85677725Y-143140476D01*
X85569939Y-142785152D01*
X85394903Y-142457683D01*
X85159345Y-142170655D01*
X84872317Y-141935097D01*
X84544848Y-141760061D01*
X84189524Y-141652275D01*
X83912597Y-141625000D01*
X80412589Y-141625000D01*
X80320000Y-141615881D01*
X80227411Y-141625000D01*
X80227403Y-141625000D01*
X79982662Y-141649105D01*
X79950475Y-141652275D01*
X79842689Y-141684972D01*
X79595152Y-141760061D01*
X79267683Y-141935097D01*
X79144434Y-142036245D01*
X79052579Y-142111628D01*
X79052577Y-142111630D01*
X78980655Y-142170655D01*
X78921630Y-142242577D01*
X69725582Y-151438626D01*
X69653655Y-151497655D01*
X69418097Y-151784683D01*
X69243061Y-152112153D01*
X69220368Y-152186963D01*
X69135275Y-152467476D01*
X69133358Y-152486939D01*
X69108000Y-152744404D01*
X69108000Y-152744411D01*
X69098881Y-152837000D01*
X69108000Y-152929589D01*
X69108000Y-154824149D01*
X68854609Y-154515391D01*
X68491446Y-154217351D01*
X68077116Y-153995887D01*
X67627542Y-153859510D01*
X67277157Y-153825000D01*
X67042843Y-153825000D01*
X66692458Y-153859510D01*
X66242884Y-153995887D01*
X65828554Y-154217351D01*
X65465391Y-154515391D01*
X65167351Y-154878554D01*
X64945887Y-155292884D01*
X64809510Y-155742458D01*
X64763461Y-156210000D01*
X64809510Y-156677542D01*
X64945887Y-157127116D01*
X65167351Y-157541446D01*
X65465391Y-157904609D01*
X65828554Y-158202649D01*
X66242884Y-158424113D01*
X66692458Y-158560490D01*
X67042843Y-158595000D01*
X67277157Y-158595000D01*
X67627542Y-158560490D01*
X68077116Y-158424113D01*
X68491446Y-158202649D01*
X68854609Y-157904609D01*
X69108000Y-157595851D01*
X69108001Y-167524150D01*
X68854609Y-167215391D01*
X68491446Y-166917351D01*
X68077116Y-166695887D01*
X67627542Y-166559510D01*
X67277157Y-166525000D01*
X67042843Y-166525000D01*
X66692458Y-166559510D01*
X66242884Y-166695887D01*
X65828554Y-166917351D01*
X65465391Y-167215391D01*
X65167351Y-167578554D01*
X64945887Y-167992884D01*
X64809510Y-168442458D01*
X64763461Y-168910000D01*
X64809510Y-169377542D01*
X64945887Y-169827116D01*
X65167351Y-170241446D01*
X65465391Y-170604609D01*
X65828554Y-170902649D01*
X66242884Y-171124113D01*
X66692458Y-171260490D01*
X67042843Y-171295000D01*
X67277157Y-171295000D01*
X67345987Y-171288221D01*
X64772582Y-173861626D01*
X64700655Y-173920655D01*
X64465097Y-174207683D01*
X64290061Y-174535153D01*
X64182275Y-174890477D01*
X64155000Y-175167404D01*
X64155000Y-175167411D01*
X64145881Y-175260000D01*
X63727000Y-175260000D01*
X63727000Y-143510000D01*
X64763461Y-143510000D01*
X64809510Y-143977542D01*
X64945887Y-144427116D01*
X65167351Y-144841446D01*
X65465391Y-145204609D01*
X65828554Y-145502649D01*
X66242884Y-145724113D01*
X66692458Y-145860490D01*
X67042843Y-145895000D01*
X67277157Y-145895000D01*
X67627542Y-145860490D01*
X68077116Y-145724113D01*
X68491446Y-145502649D01*
X68854609Y-145204609D01*
X69152649Y-144841446D01*
X69374113Y-144427116D01*
X69510490Y-143977542D01*
X69556539Y-143510000D01*
X69510490Y-143042458D01*
X69374113Y-142592884D01*
X69152649Y-142178554D01*
X68854609Y-141815391D01*
X68491446Y-141517351D01*
X68077116Y-141295887D01*
X67627542Y-141159510D01*
X67277157Y-141125000D01*
X67042843Y-141125000D01*
X66692458Y-141159510D01*
X66242884Y-141295887D01*
X65828554Y-141517351D01*
X65465391Y-141815391D01*
X65167351Y-142178554D01*
X64945887Y-142592884D01*
X64809510Y-143042458D01*
X64763461Y-143510000D01*
X63727000Y-143510000D01*
X63727000Y-136017000D01*
X77151000Y-136017000D01*
X77151000Y-136021486D01*
X77202304Y-136279405D01*
X77302939Y-136522359D01*
X77449038Y-136741013D01*
X77634987Y-136926962D01*
X77853641Y-137073061D01*
X78096595Y-137173696D01*
X78354514Y-137225000D01*
X78617486Y-137225000D01*
X78875405Y-137173696D01*
X79118359Y-137073061D01*
X79337013Y-136926962D01*
X79522962Y-136741013D01*
X79669061Y-136522359D01*
X79769696Y-136279405D01*
X79821000Y-136021486D01*
X79821000Y-136017000D01*
X84263000Y-136017000D01*
X84263000Y-136021486D01*
X84314304Y-136279405D01*
X84414939Y-136522359D01*
X84561038Y-136741013D01*
X84746987Y-136926962D01*
X84965641Y-137073061D01*
X85208595Y-137173696D01*
X85466514Y-137225000D01*
X85729486Y-137225000D01*
X85987405Y-137173696D01*
X86230359Y-137073061D01*
X86449013Y-136926962D01*
X86614000Y-136761975D01*
X86778987Y-136926962D01*
X86997641Y-137073061D01*
X87240595Y-137173696D01*
X87498514Y-137225000D01*
X87761486Y-137225000D01*
X88019405Y-137173696D01*
X88262359Y-137073061D01*
X88481013Y-136926962D01*
X88666962Y-136741013D01*
X88813061Y-136522359D01*
X88913696Y-136279405D01*
X88965000Y-136021486D01*
X88965000Y-136017000D01*
X98487000Y-136017000D01*
X98487000Y-136021486D01*
X98538304Y-136279405D01*
X98638939Y-136522359D01*
X98785038Y-136741013D01*
X98970987Y-136926962D01*
X99189641Y-137073061D01*
X99432595Y-137173696D01*
X99690514Y-137225000D01*
X99953486Y-137225000D01*
X100211405Y-137173696D01*
X100454359Y-137073061D01*
X100673013Y-136926962D01*
X100858962Y-136741013D01*
X101005061Y-136522359D01*
X101105696Y-136279405D01*
X101157000Y-136021486D01*
X101157000Y-136017000D01*
X107188000Y-136017000D01*
X107212776Y-136014560D01*
X107236601Y-136007333D01*
X107258557Y-135995597D01*
X107277803Y-135979803D01*
X107293597Y-135960557D01*
X107305333Y-135938601D01*
X107312560Y-135914776D01*
X107315000Y-135890000D01*
X107315000Y-132715000D01*
X108993001Y-132715000D01*
X108993000Y-185447000D01*
X108993000Y-185447000D01*
G37*
X108993000Y-185447000D02*
X63727000Y-185447000D01*
X63727000Y-175260000D01*
X64145881Y-175260000D01*
X64155000Y-175352589D01*
X64155001Y-181702597D01*
X64182276Y-181979524D01*
X64290062Y-182334848D01*
X64361928Y-182469300D01*
X64361928Y-183410000D01*
X64374188Y-183534482D01*
X64410498Y-183654180D01*
X64469463Y-183764494D01*
X64548815Y-183861185D01*
X64645506Y-183940537D01*
X64755820Y-183999502D01*
X64875518Y-184035812D01*
X65000000Y-184048072D01*
X67080000Y-184048072D01*
X67204482Y-184035812D01*
X67324180Y-183999502D01*
X67434494Y-183940537D01*
X67531185Y-183861185D01*
X67610537Y-183764494D01*
X67669502Y-183654180D01*
X67705812Y-183534482D01*
X67718072Y-183410000D01*
X67718072Y-182469302D01*
X67789939Y-182334848D01*
X67897725Y-181979524D01*
X67925000Y-181702597D01*
X67925000Y-180848000D01*
X69225881Y-180848000D01*
X69235000Y-180940589D01*
X69235000Y-181702597D01*
X69262275Y-181979524D01*
X69370061Y-182334848D01*
X69447749Y-182480192D01*
X69469236Y-182698357D01*
X69565016Y-183014096D01*
X69720551Y-183305082D01*
X69929867Y-183560134D01*
X70184919Y-183769450D01*
X70475905Y-183924985D01*
X70791644Y-184020764D01*
X71120000Y-184053104D01*
X71448357Y-184020764D01*
X71764096Y-183924985D01*
X72055082Y-183769450D01*
X72310134Y-183560134D01*
X72519450Y-183305082D01*
X72674985Y-183014096D01*
X72770764Y-182698357D01*
X72792251Y-182480192D01*
X72869939Y-182334848D01*
X72977725Y-181979524D01*
X73005000Y-181702596D01*
X73005000Y-181628792D01*
X73657423Y-180976370D01*
X73729345Y-180917345D01*
X73852140Y-180767719D01*
X74525000Y-180767719D01*
X74525000Y-182452282D01*
X74549236Y-182698357D01*
X74645016Y-183014096D01*
X74800551Y-183305082D01*
X75009867Y-183560134D01*
X75264919Y-183769450D01*
X75555905Y-183924985D01*
X75871644Y-184020764D01*
X76200000Y-184053104D01*
X76528357Y-184020764D01*
X76844096Y-183924985D01*
X77135082Y-183769450D01*
X77390134Y-183560134D01*
X77599450Y-183305082D01*
X77754985Y-183014096D01*
X77850764Y-182698357D01*
X77875000Y-182452282D01*
X77875000Y-180767719D01*
X79605000Y-180767719D01*
X79605000Y-182452282D01*
X79629236Y-182698357D01*
X79725016Y-183014096D01*
X79880551Y-183305082D01*
X80089867Y-183560134D01*
X80344919Y-183769450D01*
X80635905Y-183924985D01*
X80951644Y-184020764D01*
X81280000Y-184053104D01*
X81608357Y-184020764D01*
X81924096Y-183924985D01*
X82215082Y-183769450D01*
X82470134Y-183560134D01*
X82679450Y-183305082D01*
X82834985Y-183014096D01*
X82930764Y-182698357D01*
X82955000Y-182452282D01*
X82955000Y-180767719D01*
X84685000Y-180767719D01*
X84685000Y-182452282D01*
X84709236Y-182698357D01*
X84805016Y-183014096D01*
X84960551Y-183305082D01*
X85169867Y-183560134D01*
X85424919Y-183769450D01*
X85715905Y-183924985D01*
X86031644Y-184020764D01*
X86360000Y-184053104D01*
X86688357Y-184020764D01*
X87004096Y-183924985D01*
X87295082Y-183769450D01*
X87550134Y-183560134D01*
X87759450Y-183305082D01*
X87914985Y-183014096D01*
X88010764Y-182698357D01*
X88035000Y-182452282D01*
X88035000Y-180767718D01*
X88010764Y-180521643D01*
X87914985Y-180205904D01*
X87759450Y-179914918D01*
X87550134Y-179659866D01*
X87295081Y-179450550D01*
X87004095Y-179295015D01*
X86688356Y-179199236D01*
X86360000Y-179166896D01*
X86031643Y-179199236D01*
X85715904Y-179295015D01*
X85424918Y-179450550D01*
X85169866Y-179659866D01*
X84960550Y-179914919D01*
X84805015Y-180205905D01*
X84709236Y-180521644D01*
X84685000Y-180767719D01*
X82955000Y-180767719D01*
X82955000Y-180767718D01*
X82930764Y-180521643D01*
X82834985Y-180205904D01*
X82679450Y-179914918D01*
X82470134Y-179659866D01*
X82215081Y-179450550D01*
X81924095Y-179295015D01*
X81608356Y-179199236D01*
X81280000Y-179166896D01*
X80951643Y-179199236D01*
X80635904Y-179295015D01*
X80344918Y-179450550D01*
X80089866Y-179659866D01*
X79880550Y-179914919D01*
X79725015Y-180205905D01*
X79629236Y-180521644D01*
X79605000Y-180767719D01*
X77875000Y-180767719D01*
X77875000Y-180767718D01*
X77850764Y-180521643D01*
X77754985Y-180205904D01*
X77599450Y-179914918D01*
X77390134Y-179659866D01*
X77135081Y-179450550D01*
X76844095Y-179295015D01*
X76528356Y-179199236D01*
X76200000Y-179166896D01*
X75871643Y-179199236D01*
X75555904Y-179295015D01*
X75264918Y-179450550D01*
X75009866Y-179659866D01*
X74800550Y-179914919D01*
X74645015Y-180205905D01*
X74549236Y-180521644D01*
X74525000Y-180767719D01*
X73852140Y-180767719D01*
X73862248Y-180755403D01*
X73914321Y-180691951D01*
X73964903Y-180630317D01*
X74139939Y-180302848D01*
X74247725Y-179947524D01*
X74275000Y-179670597D01*
X74275000Y-179670588D01*
X74284119Y-179578001D01*
X74275000Y-179485414D01*
X74275000Y-178168072D01*
X75882500Y-178168072D01*
X76006982Y-178155812D01*
X76126680Y-178119502D01*
X76236994Y-178060537D01*
X76333685Y-177981185D01*
X76413037Y-177884494D01*
X76457905Y-177800553D01*
X76583766Y-177903845D01*
X76859552Y-178051255D01*
X77158797Y-178142030D01*
X77470000Y-178172681D01*
X77781204Y-178142030D01*
X78080449Y-178051255D01*
X78356235Y-177903845D01*
X78597963Y-177705463D01*
X78796345Y-177463734D01*
X78943755Y-177187948D01*
X79034530Y-176888703D01*
X79057500Y-176655485D01*
X79057500Y-176404514D01*
X79034530Y-176171296D01*
X78943755Y-175872051D01*
X78796345Y-175596265D01*
X78597963Y-175354537D01*
X78356234Y-175156155D01*
X78080448Y-175008745D01*
X77781203Y-174917970D01*
X77470000Y-174887319D01*
X77158796Y-174917970D01*
X76859551Y-175008745D01*
X76583765Y-175156155D01*
X76457905Y-175259446D01*
X76413037Y-175175506D01*
X76333685Y-175078815D01*
X76236994Y-174999463D01*
X76126680Y-174940498D01*
X76006982Y-174904188D01*
X75882500Y-174891928D01*
X74915864Y-174891928D01*
X78483423Y-171324370D01*
X78555345Y-171265345D01*
X78671252Y-171124113D01*
X78790903Y-170978317D01*
X78874766Y-170821420D01*
X78965939Y-170650848D01*
X79073725Y-170295524D01*
X79101000Y-170018597D01*
X79110120Y-169926000D01*
X79101000Y-169833403D01*
X79101000Y-168910000D01*
X82177319Y-168910000D01*
X82207970Y-169221204D01*
X82298745Y-169520449D01*
X82446155Y-169796235D01*
X82549446Y-169922095D01*
X82465506Y-169966963D01*
X82368815Y-170046315D01*
X82289463Y-170143006D01*
X82230498Y-170253320D01*
X82194188Y-170373018D01*
X82181928Y-170497500D01*
X82181928Y-172402500D01*
X82194188Y-172526982D01*
X82230498Y-172646680D01*
X82289463Y-172756994D01*
X82368815Y-172853685D01*
X82465506Y-172933037D01*
X82575820Y-172992002D01*
X82695518Y-173028312D01*
X82820000Y-173040572D01*
X84820000Y-173040572D01*
X84944482Y-173028312D01*
X85064180Y-172992002D01*
X85174494Y-172933037D01*
X85271185Y-172853685D01*
X85350537Y-172756994D01*
X85409502Y-172646680D01*
X85445812Y-172526982D01*
X85458072Y-172402500D01*
X85458072Y-170497500D01*
X85445812Y-170373018D01*
X85409502Y-170253320D01*
X85350537Y-170143006D01*
X85271185Y-170046315D01*
X85174494Y-169966963D01*
X85090554Y-169922095D01*
X85193845Y-169796235D01*
X85341255Y-169520449D01*
X85432030Y-169221204D01*
X85462681Y-168910000D01*
X87257319Y-168910000D01*
X87287970Y-169221204D01*
X87378745Y-169520449D01*
X87526155Y-169796235D01*
X87724537Y-170037963D01*
X87966265Y-170236345D01*
X88242051Y-170383755D01*
X88541296Y-170474530D01*
X88774514Y-170497500D01*
X89025486Y-170497500D01*
X89258704Y-170474530D01*
X89557949Y-170383755D01*
X89833735Y-170236345D01*
X90075463Y-170037963D01*
X90273845Y-169796235D01*
X90421255Y-169520449D01*
X90512030Y-169221204D01*
X90542681Y-168910000D01*
X90512030Y-168598796D01*
X90421255Y-168299551D01*
X90273845Y-168023765D01*
X90170554Y-167897905D01*
X90254494Y-167853037D01*
X90351185Y-167773685D01*
X90430537Y-167676994D01*
X90489502Y-167566680D01*
X90525812Y-167446982D01*
X90538072Y-167322500D01*
X90538072Y-165417500D01*
X90525812Y-165293018D01*
X90489502Y-165173320D01*
X90430537Y-165063006D01*
X90351185Y-164966315D01*
X90254494Y-164886963D01*
X90144180Y-164827998D01*
X90024482Y-164791688D01*
X89900000Y-164779428D01*
X87900000Y-164779428D01*
X87775518Y-164791688D01*
X87655820Y-164827998D01*
X87545506Y-164886963D01*
X87448815Y-164966315D01*
X87369463Y-165063006D01*
X87310498Y-165173320D01*
X87274188Y-165293018D01*
X87261928Y-165417500D01*
X87261928Y-167322500D01*
X87274188Y-167446982D01*
X87310498Y-167566680D01*
X87369463Y-167676994D01*
X87448815Y-167773685D01*
X87545506Y-167853037D01*
X87629446Y-167897905D01*
X87526155Y-168023765D01*
X87378745Y-168299551D01*
X87287970Y-168598796D01*
X87257319Y-168910000D01*
X85462681Y-168910000D01*
X85432030Y-168598796D01*
X85341255Y-168299551D01*
X85193845Y-168023765D01*
X84995463Y-167782037D01*
X84753735Y-167583655D01*
X84477949Y-167436245D01*
X84178704Y-167345470D01*
X83945486Y-167322500D01*
X83694514Y-167322500D01*
X83461296Y-167345470D01*
X83162051Y-167436245D01*
X82886265Y-167583655D01*
X82644537Y-167782037D01*
X82446155Y-168023765D01*
X82298745Y-168299551D01*
X82207970Y-168598796D01*
X82177319Y-168910000D01*
X79101000Y-168910000D01*
X79101000Y-160412790D01*
X80110755Y-159403036D01*
X80243038Y-159601013D01*
X80428987Y-159786962D01*
X80647641Y-159933061D01*
X80890595Y-160033696D01*
X81148514Y-160085000D01*
X81411486Y-160085000D01*
X81669405Y-160033696D01*
X81912359Y-159933061D01*
X82131013Y-159786962D01*
X82184936Y-159733039D01*
X82194188Y-159826982D01*
X82230498Y-159946680D01*
X82289463Y-160056994D01*
X82368815Y-160153685D01*
X82465506Y-160233037D01*
X82575820Y-160292002D01*
X82695518Y-160328312D01*
X82820000Y-160340572D01*
X84820000Y-160340572D01*
X84944482Y-160328312D01*
X85064180Y-160292002D01*
X85174494Y-160233037D01*
X85271185Y-160153685D01*
X85350537Y-160056994D01*
X85409502Y-159946680D01*
X85445812Y-159826982D01*
X85458072Y-159702500D01*
X85458072Y-157797500D01*
X85445812Y-157673018D01*
X85409502Y-157553320D01*
X85350537Y-157443006D01*
X85298576Y-157379691D01*
X85394903Y-157262317D01*
X85569939Y-156934848D01*
X85677725Y-156579524D01*
X85714120Y-156210000D01*
X87005880Y-156210000D01*
X87042275Y-156579524D01*
X87150061Y-156934848D01*
X87325097Y-157262317D01*
X87560655Y-157549345D01*
X87847683Y-157784903D01*
X88175152Y-157959939D01*
X88530476Y-158067725D01*
X88807403Y-158095000D01*
X91301210Y-158095000D01*
X92975002Y-159768793D01*
X92975001Y-168773206D01*
X88902577Y-172845631D01*
X88830656Y-172904655D01*
X88771631Y-172976577D01*
X88771628Y-172976580D01*
X88595098Y-173191683D01*
X88420062Y-173519152D01*
X88312275Y-173874476D01*
X88275881Y-174244000D01*
X88285001Y-174336599D01*
X88285000Y-179487411D01*
X88275881Y-179580000D01*
X88285000Y-179672589D01*
X88285000Y-179672596D01*
X88312275Y-179949523D01*
X88420061Y-180304847D01*
X88595097Y-180632317D01*
X88830655Y-180919345D01*
X88902582Y-180978374D01*
X89555000Y-181630793D01*
X89555000Y-181702596D01*
X89582275Y-181979523D01*
X89690061Y-182334847D01*
X89767749Y-182480191D01*
X89789236Y-182698357D01*
X89885016Y-183014096D01*
X90040551Y-183305082D01*
X90249867Y-183560134D01*
X90504919Y-183769450D01*
X90795905Y-183924985D01*
X91111644Y-184020764D01*
X91440000Y-184053104D01*
X91768357Y-184020764D01*
X92084096Y-183924985D01*
X92375082Y-183769450D01*
X92630134Y-183560134D01*
X92839450Y-183305082D01*
X92994985Y-183014096D01*
X93090764Y-182698357D01*
X93112251Y-182480192D01*
X93189939Y-182334848D01*
X93297725Y-181979524D01*
X93325000Y-181702597D01*
X93325000Y-180942586D01*
X93334119Y-180849999D01*
X93326016Y-180767719D01*
X94845000Y-180767719D01*
X94845000Y-182452282D01*
X94869236Y-182698357D01*
X94965016Y-183014096D01*
X95120551Y-183305082D01*
X95329867Y-183560134D01*
X95584919Y-183769450D01*
X95875905Y-183924985D01*
X96191644Y-184020764D01*
X96520000Y-184053104D01*
X96848357Y-184020764D01*
X97164096Y-183924985D01*
X97455082Y-183769450D01*
X97710134Y-183560134D01*
X97919450Y-183305082D01*
X98074985Y-183014096D01*
X98170764Y-182698357D01*
X98195000Y-182452282D01*
X98195000Y-180767718D01*
X98170764Y-180521643D01*
X98074985Y-180205904D01*
X97919450Y-179914918D01*
X97710134Y-179659866D01*
X97455081Y-179450550D01*
X97164095Y-179295015D01*
X96848356Y-179199236D01*
X96520000Y-179166896D01*
X96191643Y-179199236D01*
X95875904Y-179295015D01*
X95584918Y-179450550D01*
X95329866Y-179659866D01*
X95120550Y-179914919D01*
X94965015Y-180205905D01*
X94869236Y-180521644D01*
X94845000Y-180767719D01*
X93326016Y-180767719D01*
X93325000Y-180757412D01*
X93325000Y-180757404D01*
X93297725Y-180480476D01*
X93189939Y-180125152D01*
X93014903Y-179797683D01*
X92964321Y-179736049D01*
X92838372Y-179582579D01*
X92838370Y-179582577D01*
X92779345Y-179510655D01*
X92707423Y-179451630D01*
X92055000Y-178799208D01*
X92055000Y-178168072D01*
X93662500Y-178168072D01*
X93786982Y-178155812D01*
X93906680Y-178119502D01*
X94016994Y-178060537D01*
X94113685Y-177981185D01*
X94193037Y-177884494D01*
X94237905Y-177800553D01*
X94363766Y-177903845D01*
X94639552Y-178051255D01*
X94938797Y-178142030D01*
X95250000Y-178172681D01*
X95561204Y-178142030D01*
X95860449Y-178051255D01*
X96136235Y-177903845D01*
X96377963Y-177705463D01*
X96576345Y-177463734D01*
X96723755Y-177187948D01*
X96814530Y-176888703D01*
X96837500Y-176655485D01*
X96837500Y-176404514D01*
X96814530Y-176171296D01*
X96723755Y-175872051D01*
X96576345Y-175596265D01*
X96377963Y-175354537D01*
X96136234Y-175156155D01*
X95860448Y-175008745D01*
X95561203Y-174917970D01*
X95250000Y-174887319D01*
X94938796Y-174917970D01*
X94639551Y-175008745D01*
X94363765Y-175156155D01*
X94237905Y-175259446D01*
X94193037Y-175175506D01*
X94113685Y-175078815D01*
X94016994Y-174999463D01*
X93906680Y-174940498D01*
X93786982Y-174904188D01*
X93662500Y-174891928D01*
X92187864Y-174891928D01*
X96127424Y-170952369D01*
X96199346Y-170893344D01*
X96434904Y-170606316D01*
X96609940Y-170278847D01*
X96704549Y-169966963D01*
X96717726Y-169923524D01*
X96730263Y-169796235D01*
X96745001Y-169646596D01*
X96745001Y-169646589D01*
X96754120Y-169554000D01*
X96745001Y-169461411D01*
X96745001Y-159080588D01*
X96754120Y-158987999D01*
X96745001Y-158895410D01*
X96745001Y-158895402D01*
X96717726Y-158618475D01*
X96609940Y-158263151D01*
X96434904Y-157935682D01*
X96302439Y-157774273D01*
X96258373Y-157720578D01*
X96258371Y-157720576D01*
X96199346Y-157648654D01*
X96127424Y-157589629D01*
X93480376Y-154942582D01*
X93421347Y-154870655D01*
X93134319Y-154635097D01*
X92806850Y-154460061D01*
X92566421Y-154387128D01*
X92623061Y-154302359D01*
X92723696Y-154059405D01*
X92775000Y-153801486D01*
X92775000Y-153538514D01*
X92723696Y-153280595D01*
X92623061Y-153037641D01*
X92476962Y-152818987D01*
X92291013Y-152633038D01*
X92072359Y-152486939D01*
X91829405Y-152386304D01*
X91571486Y-152335000D01*
X91308514Y-152335000D01*
X91050595Y-152386304D01*
X90807641Y-152486939D01*
X90588987Y-152633038D01*
X90535064Y-152686961D01*
X90525812Y-152593018D01*
X90489502Y-152473320D01*
X90430537Y-152363006D01*
X90351185Y-152266315D01*
X90254494Y-152186963D01*
X90144180Y-152127998D01*
X90024482Y-152091688D01*
X89900000Y-152079428D01*
X87900000Y-152079428D01*
X87775518Y-152091688D01*
X87655820Y-152127998D01*
X87545506Y-152186963D01*
X87448815Y-152266315D01*
X87369463Y-152363006D01*
X87310498Y-152473320D01*
X87274188Y-152593018D01*
X87261928Y-152717500D01*
X87261928Y-154622500D01*
X87274188Y-154746982D01*
X87310498Y-154866680D01*
X87369463Y-154976994D01*
X87421424Y-155040309D01*
X87325097Y-155157683D01*
X87150061Y-155485152D01*
X87042275Y-155840476D01*
X87005880Y-156210000D01*
X85714120Y-156210000D01*
X85677725Y-155840476D01*
X85569939Y-155485152D01*
X85394903Y-155157683D01*
X85159345Y-154870655D01*
X84872317Y-154635097D01*
X84544848Y-154460061D01*
X84189524Y-154352275D01*
X83912597Y-154325000D01*
X80730587Y-154325000D01*
X80637998Y-154315881D01*
X80545409Y-154325000D01*
X80545401Y-154325000D01*
X80300660Y-154349105D01*
X80268473Y-154352275D01*
X80160687Y-154384972D01*
X79913150Y-154460061D01*
X79585681Y-154635097D01*
X79524047Y-154685679D01*
X79370577Y-154811628D01*
X79370575Y-154811630D01*
X79298653Y-154870655D01*
X79239628Y-154942577D01*
X75948582Y-158233624D01*
X75876655Y-158292653D01*
X75641097Y-158579681D01*
X75466061Y-158907151D01*
X75358275Y-159262475D01*
X75331000Y-159539402D01*
X75331000Y-159539409D01*
X75321881Y-159631998D01*
X75331000Y-159724587D01*
X75331001Y-169145206D01*
X71122582Y-173353626D01*
X71050655Y-173412655D01*
X70815097Y-173699683D01*
X70640061Y-174027153D01*
X70532275Y-174382477D01*
X70505000Y-174659404D01*
X70505000Y-174659411D01*
X70495881Y-174752000D01*
X70505000Y-174844590D01*
X70505001Y-178797207D01*
X69852582Y-179449626D01*
X69780655Y-179508655D01*
X69545097Y-179795683D01*
X69370061Y-180123153D01*
X69262275Y-180478477D01*
X69235000Y-180755404D01*
X69235000Y-180755411D01*
X69225881Y-180848000D01*
X67925000Y-180848000D01*
X67925000Y-176040792D01*
X72260423Y-171705370D01*
X72332345Y-171646345D01*
X72451707Y-171500903D01*
X72567903Y-171359317D01*
X72656576Y-171193421D01*
X72742939Y-171031848D01*
X72850725Y-170676524D01*
X72878000Y-170399597D01*
X72887120Y-170307000D01*
X72878000Y-170214403D01*
X72878000Y-153617792D01*
X80013902Y-146481891D01*
X80096939Y-146682359D01*
X80243038Y-146901013D01*
X80428987Y-147086962D01*
X80647641Y-147233061D01*
X80890595Y-147333696D01*
X81148514Y-147385000D01*
X81411486Y-147385000D01*
X81669405Y-147333696D01*
X81912359Y-147233061D01*
X82131013Y-147086962D01*
X82184936Y-147033039D01*
X82194188Y-147126982D01*
X82230498Y-147246680D01*
X82289463Y-147356994D01*
X82368815Y-147453685D01*
X82465506Y-147533037D01*
X82575820Y-147592002D01*
X82695518Y-147628312D01*
X82820000Y-147640572D01*
X84820000Y-147640572D01*
X84944482Y-147628312D01*
X85064180Y-147592002D01*
X85174494Y-147533037D01*
X85271185Y-147453685D01*
X85350537Y-147356994D01*
X85409502Y-147246680D01*
X85445812Y-147126982D01*
X85458072Y-147002500D01*
X85458072Y-145097500D01*
X85445812Y-144973018D01*
X85409502Y-144853320D01*
X85350537Y-144743006D01*
X85298576Y-144679691D01*
X85394903Y-144562317D01*
X85569939Y-144234848D01*
X85677725Y-143879524D01*
X85714120Y-143510000D01*
X87005880Y-143510000D01*
X87042275Y-143879524D01*
X87150061Y-144234848D01*
X87325097Y-144562317D01*
X87560655Y-144849345D01*
X87847683Y-145084903D01*
X88175152Y-145259939D01*
X88530476Y-145367725D01*
X88807403Y-145395000D01*
X91619208Y-145395000D01*
X99715000Y-153490793D01*
X99715001Y-177217394D01*
X99715000Y-177217404D01*
X99715001Y-181702597D01*
X99742276Y-181979524D01*
X99850062Y-182334848D01*
X99927749Y-182480189D01*
X99949236Y-182698357D01*
X100045016Y-183014096D01*
X100200551Y-183305082D01*
X100409867Y-183560134D01*
X100664919Y-183769450D01*
X100955905Y-183924985D01*
X101271644Y-184020764D01*
X101600000Y-184053104D01*
X101928357Y-184020764D01*
X102244096Y-183924985D01*
X102535082Y-183769450D01*
X102790134Y-183560134D01*
X102999450Y-183305082D01*
X103154985Y-183014096D01*
X103250764Y-182698357D01*
X103272251Y-182480192D01*
X103349939Y-182334848D01*
X103457725Y-181979524D01*
X103485000Y-181702597D01*
X103485000Y-170087378D01*
X103567351Y-170241446D01*
X103865391Y-170604609D01*
X104228554Y-170902649D01*
X104642884Y-171124113D01*
X105092458Y-171260490D01*
X105442843Y-171295000D01*
X105677157Y-171295000D01*
X106027542Y-171260490D01*
X106477116Y-171124113D01*
X106891446Y-170902649D01*
X107254609Y-170604609D01*
X107552649Y-170241446D01*
X107774113Y-169827116D01*
X107910490Y-169377542D01*
X107956539Y-168910000D01*
X107910490Y-168442458D01*
X107774113Y-167992884D01*
X107552649Y-167578554D01*
X107254609Y-167215391D01*
X106891446Y-166917351D01*
X106477116Y-166695887D01*
X106027542Y-166559510D01*
X105677157Y-166525000D01*
X105442843Y-166525000D01*
X105092458Y-166559510D01*
X104642884Y-166695887D01*
X104228554Y-166917351D01*
X103865391Y-167215391D01*
X103567351Y-167578554D01*
X103485000Y-167732622D01*
X103485000Y-157387378D01*
X103567351Y-157541446D01*
X103865391Y-157904609D01*
X104228554Y-158202649D01*
X104642884Y-158424113D01*
X105092458Y-158560490D01*
X105442843Y-158595000D01*
X105677157Y-158595000D01*
X106027542Y-158560490D01*
X106477116Y-158424113D01*
X106891446Y-158202649D01*
X107254609Y-157904609D01*
X107552649Y-157541446D01*
X107774113Y-157127116D01*
X107910490Y-156677542D01*
X107956539Y-156210000D01*
X107910490Y-155742458D01*
X107774113Y-155292884D01*
X107552649Y-154878554D01*
X107254609Y-154515391D01*
X106891446Y-154217351D01*
X106477116Y-153995887D01*
X106027542Y-153859510D01*
X105677157Y-153825000D01*
X105442843Y-153825000D01*
X105092458Y-153859510D01*
X104642884Y-153995887D01*
X104228554Y-154217351D01*
X103865391Y-154515391D01*
X103567351Y-154878554D01*
X103485000Y-155032622D01*
X103485000Y-152802597D01*
X103494120Y-152710000D01*
X103457725Y-152340476D01*
X103456064Y-152335000D01*
X103349939Y-151985152D01*
X103174903Y-151657683D01*
X103102599Y-151569580D01*
X102998372Y-151442579D01*
X102998370Y-151442577D01*
X102939345Y-151370655D01*
X102867423Y-151311630D01*
X95065793Y-143510000D01*
X103163461Y-143510000D01*
X103209510Y-143977542D01*
X103345887Y-144427116D01*
X103567351Y-144841446D01*
X103865391Y-145204609D01*
X104228554Y-145502649D01*
X104642884Y-145724113D01*
X105092458Y-145860490D01*
X105442843Y-145895000D01*
X105677157Y-145895000D01*
X106027542Y-145860490D01*
X106477116Y-145724113D01*
X106891446Y-145502649D01*
X107254609Y-145204609D01*
X107552649Y-144841446D01*
X107774113Y-144427116D01*
X107910490Y-143977542D01*
X107956539Y-143510000D01*
X107910490Y-143042458D01*
X107774113Y-142592884D01*
X107552649Y-142178554D01*
X107254609Y-141815391D01*
X106891446Y-141517351D01*
X106477116Y-141295887D01*
X106027542Y-141159510D01*
X105677157Y-141125000D01*
X105442843Y-141125000D01*
X105092458Y-141159510D01*
X104642884Y-141295887D01*
X104228554Y-141517351D01*
X103865391Y-141815391D01*
X103567351Y-142178554D01*
X103345887Y-142592884D01*
X103209510Y-143042458D01*
X103163461Y-143510000D01*
X95065793Y-143510000D01*
X93798374Y-142242582D01*
X93739345Y-142170655D01*
X93452317Y-141935097D01*
X93124848Y-141760061D01*
X92769524Y-141652275D01*
X92600811Y-141635658D01*
X92623061Y-141602359D01*
X92723696Y-141359405D01*
X92775000Y-141101486D01*
X92775000Y-140838514D01*
X92723696Y-140580595D01*
X92623061Y-140337641D01*
X92476962Y-140118987D01*
X92291013Y-139933038D01*
X92072359Y-139786939D01*
X91829405Y-139686304D01*
X91571486Y-139635000D01*
X91308514Y-139635000D01*
X91050595Y-139686304D01*
X90807641Y-139786939D01*
X90588987Y-139933038D01*
X90535064Y-139986961D01*
X90525812Y-139893018D01*
X90489502Y-139773320D01*
X90430537Y-139663006D01*
X90351185Y-139566315D01*
X90254494Y-139486963D01*
X90144180Y-139427998D01*
X90024482Y-139391688D01*
X89900000Y-139379428D01*
X87900000Y-139379428D01*
X87775518Y-139391688D01*
X87655820Y-139427998D01*
X87545506Y-139486963D01*
X87448815Y-139566315D01*
X87369463Y-139663006D01*
X87310498Y-139773320D01*
X87274188Y-139893018D01*
X87261928Y-140017500D01*
X87261928Y-141922500D01*
X87274188Y-142046982D01*
X87310498Y-142166680D01*
X87369463Y-142276994D01*
X87421424Y-142340309D01*
X87325097Y-142457683D01*
X87150061Y-142785152D01*
X87042275Y-143140476D01*
X87005880Y-143510000D01*
X85714120Y-143510000D01*
X85677725Y-143140476D01*
X85569939Y-142785152D01*
X85394903Y-142457683D01*
X85159345Y-142170655D01*
X84872317Y-141935097D01*
X84544848Y-141760061D01*
X84189524Y-141652275D01*
X83912597Y-141625000D01*
X80412589Y-141625000D01*
X80320000Y-141615881D01*
X80227411Y-141625000D01*
X80227403Y-141625000D01*
X79982662Y-141649105D01*
X79950475Y-141652275D01*
X79842689Y-141684972D01*
X79595152Y-141760061D01*
X79267683Y-141935097D01*
X79144434Y-142036245D01*
X79052579Y-142111628D01*
X79052577Y-142111630D01*
X78980655Y-142170655D01*
X78921630Y-142242577D01*
X69725582Y-151438626D01*
X69653655Y-151497655D01*
X69418097Y-151784683D01*
X69243061Y-152112153D01*
X69220368Y-152186963D01*
X69135275Y-152467476D01*
X69133358Y-152486939D01*
X69108000Y-152744404D01*
X69108000Y-152744411D01*
X69098881Y-152837000D01*
X69108000Y-152929589D01*
X69108000Y-154824149D01*
X68854609Y-154515391D01*
X68491446Y-154217351D01*
X68077116Y-153995887D01*
X67627542Y-153859510D01*
X67277157Y-153825000D01*
X67042843Y-153825000D01*
X66692458Y-153859510D01*
X66242884Y-153995887D01*
X65828554Y-154217351D01*
X65465391Y-154515391D01*
X65167351Y-154878554D01*
X64945887Y-155292884D01*
X64809510Y-155742458D01*
X64763461Y-156210000D01*
X64809510Y-156677542D01*
X64945887Y-157127116D01*
X65167351Y-157541446D01*
X65465391Y-157904609D01*
X65828554Y-158202649D01*
X66242884Y-158424113D01*
X66692458Y-158560490D01*
X67042843Y-158595000D01*
X67277157Y-158595000D01*
X67627542Y-158560490D01*
X68077116Y-158424113D01*
X68491446Y-158202649D01*
X68854609Y-157904609D01*
X69108000Y-157595851D01*
X69108001Y-167524150D01*
X68854609Y-167215391D01*
X68491446Y-166917351D01*
X68077116Y-166695887D01*
X67627542Y-166559510D01*
X67277157Y-166525000D01*
X67042843Y-166525000D01*
X66692458Y-166559510D01*
X66242884Y-166695887D01*
X65828554Y-166917351D01*
X65465391Y-167215391D01*
X65167351Y-167578554D01*
X64945887Y-167992884D01*
X64809510Y-168442458D01*
X64763461Y-168910000D01*
X64809510Y-169377542D01*
X64945887Y-169827116D01*
X65167351Y-170241446D01*
X65465391Y-170604609D01*
X65828554Y-170902649D01*
X66242884Y-171124113D01*
X66692458Y-171260490D01*
X67042843Y-171295000D01*
X67277157Y-171295000D01*
X67345987Y-171288221D01*
X64772582Y-173861626D01*
X64700655Y-173920655D01*
X64465097Y-174207683D01*
X64290061Y-174535153D01*
X64182275Y-174890477D01*
X64155000Y-175167404D01*
X64155000Y-175167411D01*
X64145881Y-175260000D01*
X63727000Y-175260000D01*
X63727000Y-143510000D01*
X64763461Y-143510000D01*
X64809510Y-143977542D01*
X64945887Y-144427116D01*
X65167351Y-144841446D01*
X65465391Y-145204609D01*
X65828554Y-145502649D01*
X66242884Y-145724113D01*
X66692458Y-145860490D01*
X67042843Y-145895000D01*
X67277157Y-145895000D01*
X67627542Y-145860490D01*
X68077116Y-145724113D01*
X68491446Y-145502649D01*
X68854609Y-145204609D01*
X69152649Y-144841446D01*
X69374113Y-144427116D01*
X69510490Y-143977542D01*
X69556539Y-143510000D01*
X69510490Y-143042458D01*
X69374113Y-142592884D01*
X69152649Y-142178554D01*
X68854609Y-141815391D01*
X68491446Y-141517351D01*
X68077116Y-141295887D01*
X67627542Y-141159510D01*
X67277157Y-141125000D01*
X67042843Y-141125000D01*
X66692458Y-141159510D01*
X66242884Y-141295887D01*
X65828554Y-141517351D01*
X65465391Y-141815391D01*
X65167351Y-142178554D01*
X64945887Y-142592884D01*
X64809510Y-143042458D01*
X64763461Y-143510000D01*
X63727000Y-143510000D01*
X63727000Y-136017000D01*
X77151000Y-136017000D01*
X77151000Y-136021486D01*
X77202304Y-136279405D01*
X77302939Y-136522359D01*
X77449038Y-136741013D01*
X77634987Y-136926962D01*
X77853641Y-137073061D01*
X78096595Y-137173696D01*
X78354514Y-137225000D01*
X78617486Y-137225000D01*
X78875405Y-137173696D01*
X79118359Y-137073061D01*
X79337013Y-136926962D01*
X79522962Y-136741013D01*
X79669061Y-136522359D01*
X79769696Y-136279405D01*
X79821000Y-136021486D01*
X79821000Y-136017000D01*
X84263000Y-136017000D01*
X84263000Y-136021486D01*
X84314304Y-136279405D01*
X84414939Y-136522359D01*
X84561038Y-136741013D01*
X84746987Y-136926962D01*
X84965641Y-137073061D01*
X85208595Y-137173696D01*
X85466514Y-137225000D01*
X85729486Y-137225000D01*
X85987405Y-137173696D01*
X86230359Y-137073061D01*
X86449013Y-136926962D01*
X86614000Y-136761975D01*
X86778987Y-136926962D01*
X86997641Y-137073061D01*
X87240595Y-137173696D01*
X87498514Y-137225000D01*
X87761486Y-137225000D01*
X88019405Y-137173696D01*
X88262359Y-137073061D01*
X88481013Y-136926962D01*
X88666962Y-136741013D01*
X88813061Y-136522359D01*
X88913696Y-136279405D01*
X88965000Y-136021486D01*
X88965000Y-136017000D01*
X98487000Y-136017000D01*
X98487000Y-136021486D01*
X98538304Y-136279405D01*
X98638939Y-136522359D01*
X98785038Y-136741013D01*
X98970987Y-136926962D01*
X99189641Y-137073061D01*
X99432595Y-137173696D01*
X99690514Y-137225000D01*
X99953486Y-137225000D01*
X100211405Y-137173696D01*
X100454359Y-137073061D01*
X100673013Y-136926962D01*
X100858962Y-136741013D01*
X101005061Y-136522359D01*
X101105696Y-136279405D01*
X101157000Y-136021486D01*
X101157000Y-136017000D01*
X107188000Y-136017000D01*
X107212776Y-136014560D01*
X107236601Y-136007333D01*
X107258557Y-135995597D01*
X107277803Y-135979803D01*
X107293597Y-135960557D01*
X107305333Y-135938601D01*
X107312560Y-135914776D01*
X107315000Y-135890000D01*
X107315000Y-132715000D01*
X108993001Y-132715000D01*
X108993000Y-185447000D01*
G04 #@! TO.N,/+9V*
G36*
X108077000Y-125603000D02*
X108097000Y-125603000D01*
X108097000Y-125857000D01*
X108077000Y-125857000D01*
X108077000Y-127006250D01*
X108235750Y-127165000D01*
X108839000Y-127165000D01*
X108839000Y-131699000D01*
X106120676Y-131699000D01*
X105969908Y-131598260D01*
X105410000Y-131486887D01*
X104850091Y-131598260D01*
X104699323Y-131699000D01*
X103886000Y-131699000D01*
X103837399Y-131708667D01*
X103796197Y-131736197D01*
X103768667Y-131777399D01*
X103759026Y-131825868D01*
X103301819Y-131575633D01*
X103219039Y-131558096D01*
X102997000Y-131680085D01*
X102997000Y-133223000D01*
X102743000Y-133223000D01*
X102743000Y-131680085D01*
X102520961Y-131558096D01*
X102438181Y-131575633D01*
X101945104Y-131845500D01*
X101602499Y-132271499D01*
X101364576Y-131915423D01*
X100889908Y-131598260D01*
X100330000Y-131486887D01*
X99770091Y-131598260D01*
X99295423Y-131915424D01*
X99057501Y-132271499D01*
X98714896Y-131845500D01*
X98221819Y-131575633D01*
X98139039Y-131558096D01*
X97917000Y-131680085D01*
X97917000Y-133223000D01*
X97663000Y-133223000D01*
X97663000Y-131680085D01*
X97440961Y-131558096D01*
X97358181Y-131575633D01*
X96865104Y-131845500D01*
X96522499Y-132271499D01*
X96284576Y-131915423D01*
X95809908Y-131598260D01*
X95250000Y-131486887D01*
X94690091Y-131598260D01*
X94215423Y-131915424D01*
X93977501Y-132271499D01*
X93634896Y-131845500D01*
X93141819Y-131575633D01*
X93059039Y-131558096D01*
X92837000Y-131680085D01*
X92837000Y-133223000D01*
X92583000Y-133223000D01*
X92583000Y-131680085D01*
X92360961Y-131558096D01*
X92278181Y-131575633D01*
X91785104Y-131845500D01*
X91442499Y-132271499D01*
X91204576Y-131915423D01*
X90729908Y-131598260D01*
X90170000Y-131486887D01*
X89610091Y-131598260D01*
X89135423Y-131915424D01*
X89064266Y-132021918D01*
X88968327Y-131790302D01*
X88789699Y-131611673D01*
X88556310Y-131515000D01*
X87915750Y-131515000D01*
X87757000Y-131673750D01*
X87757000Y-133223000D01*
X87503000Y-133223000D01*
X87503000Y-131673750D01*
X87344250Y-131515000D01*
X86703690Y-131515000D01*
X86470301Y-131611673D01*
X86291673Y-131790302D01*
X86195000Y-132023691D01*
X86195000Y-133064250D01*
X86353748Y-133222998D01*
X86195000Y-133222998D01*
X86195000Y-133223000D01*
X85255000Y-133223000D01*
X85255000Y-132808667D01*
X85171740Y-132390091D01*
X84854576Y-131915423D01*
X84379908Y-131598260D01*
X83820000Y-131486887D01*
X83260091Y-131598260D01*
X82785423Y-131915424D01*
X82547501Y-132271499D01*
X82204896Y-131845500D01*
X81711819Y-131575633D01*
X81629039Y-131558096D01*
X81407000Y-131680085D01*
X81407000Y-133223000D01*
X81153000Y-133223000D01*
X81153000Y-131680085D01*
X80930961Y-131558096D01*
X80848181Y-131575633D01*
X80355104Y-131845500D01*
X80012499Y-132271499D01*
X79774576Y-131915423D01*
X79299908Y-131598260D01*
X78740000Y-131486887D01*
X78180091Y-131598260D01*
X77705423Y-131915424D01*
X77467501Y-132271499D01*
X77124896Y-131845500D01*
X76631819Y-131575633D01*
X76549039Y-131558096D01*
X76327000Y-131680085D01*
X76327000Y-133223000D01*
X76073000Y-133223000D01*
X76073000Y-131680085D01*
X75850961Y-131558096D01*
X75768181Y-131575633D01*
X75275104Y-131845500D01*
X74932499Y-132271499D01*
X74694576Y-131915423D01*
X74219908Y-131598260D01*
X73660000Y-131486887D01*
X73100091Y-131598260D01*
X72625423Y-131915424D01*
X72387501Y-132271499D01*
X72044896Y-131845500D01*
X71551819Y-131575633D01*
X71469039Y-131558096D01*
X71247000Y-131680085D01*
X71247000Y-133223000D01*
X70993000Y-133223000D01*
X70993000Y-131680085D01*
X70770961Y-131558096D01*
X70688181Y-131575633D01*
X70195104Y-131845500D01*
X69852499Y-132271499D01*
X69614576Y-131915423D01*
X69139908Y-131598260D01*
X68580000Y-131486887D01*
X68020091Y-131598260D01*
X67545423Y-131915424D01*
X67474266Y-132021918D01*
X67378327Y-131790302D01*
X67199699Y-131611673D01*
X66966310Y-131515000D01*
X66325750Y-131515000D01*
X66167000Y-131673750D01*
X66167000Y-133223000D01*
X65913000Y-133223000D01*
X65913000Y-131673750D01*
X65754250Y-131515000D01*
X65151000Y-131515000D01*
X65151000Y-131062000D01*
X108236143Y-131062000D01*
X108236143Y-127242000D01*
X107823000Y-127242000D01*
X107823000Y-125583000D01*
X108077000Y-125583000D01*
X108077000Y-125603000D01*
X108077000Y-125603000D01*
G37*
X108077000Y-125603000D02*
X108097000Y-125603000D01*
X108097000Y-125857000D01*
X108077000Y-125857000D01*
X108077000Y-127006250D01*
X108235750Y-127165000D01*
X108839000Y-127165000D01*
X108839000Y-131699000D01*
X106120676Y-131699000D01*
X105969908Y-131598260D01*
X105410000Y-131486887D01*
X104850091Y-131598260D01*
X104699323Y-131699000D01*
X103886000Y-131699000D01*
X103837399Y-131708667D01*
X103796197Y-131736197D01*
X103768667Y-131777399D01*
X103759026Y-131825868D01*
X103301819Y-131575633D01*
X103219039Y-131558096D01*
X102997000Y-131680085D01*
X102997000Y-133223000D01*
X102743000Y-133223000D01*
X102743000Y-131680085D01*
X102520961Y-131558096D01*
X102438181Y-131575633D01*
X101945104Y-131845500D01*
X101602499Y-132271499D01*
X101364576Y-131915423D01*
X100889908Y-131598260D01*
X100330000Y-131486887D01*
X99770091Y-131598260D01*
X99295423Y-131915424D01*
X99057501Y-132271499D01*
X98714896Y-131845500D01*
X98221819Y-131575633D01*
X98139039Y-131558096D01*
X97917000Y-131680085D01*
X97917000Y-133223000D01*
X97663000Y-133223000D01*
X97663000Y-131680085D01*
X97440961Y-131558096D01*
X97358181Y-131575633D01*
X96865104Y-131845500D01*
X96522499Y-132271499D01*
X96284576Y-131915423D01*
X95809908Y-131598260D01*
X95250000Y-131486887D01*
X94690091Y-131598260D01*
X94215423Y-131915424D01*
X93977501Y-132271499D01*
X93634896Y-131845500D01*
X93141819Y-131575633D01*
X93059039Y-131558096D01*
X92837000Y-131680085D01*
X92837000Y-133223000D01*
X92583000Y-133223000D01*
X92583000Y-131680085D01*
X92360961Y-131558096D01*
X92278181Y-131575633D01*
X91785104Y-131845500D01*
X91442499Y-132271499D01*
X91204576Y-131915423D01*
X90729908Y-131598260D01*
X90170000Y-131486887D01*
X89610091Y-131598260D01*
X89135423Y-131915424D01*
X89064266Y-132021918D01*
X88968327Y-131790302D01*
X88789699Y-131611673D01*
X88556310Y-131515000D01*
X87915750Y-131515000D01*
X87757000Y-131673750D01*
X87757000Y-133223000D01*
X87503000Y-133223000D01*
X87503000Y-131673750D01*
X87344250Y-131515000D01*
X86703690Y-131515000D01*
X86470301Y-131611673D01*
X86291673Y-131790302D01*
X86195000Y-132023691D01*
X86195000Y-133064250D01*
X86353748Y-133222998D01*
X86195000Y-133222998D01*
X86195000Y-133223000D01*
X85255000Y-133223000D01*
X85255000Y-132808667D01*
X85171740Y-132390091D01*
X84854576Y-131915423D01*
X84379908Y-131598260D01*
X83820000Y-131486887D01*
X83260091Y-131598260D01*
X82785423Y-131915424D01*
X82547501Y-132271499D01*
X82204896Y-131845500D01*
X81711819Y-131575633D01*
X81629039Y-131558096D01*
X81407000Y-131680085D01*
X81407000Y-133223000D01*
X81153000Y-133223000D01*
X81153000Y-131680085D01*
X80930961Y-131558096D01*
X80848181Y-131575633D01*
X80355104Y-131845500D01*
X80012499Y-132271499D01*
X79774576Y-131915423D01*
X79299908Y-131598260D01*
X78740000Y-131486887D01*
X78180091Y-131598260D01*
X77705423Y-131915424D01*
X77467501Y-132271499D01*
X77124896Y-131845500D01*
X76631819Y-131575633D01*
X76549039Y-131558096D01*
X76327000Y-131680085D01*
X76327000Y-133223000D01*
X76073000Y-133223000D01*
X76073000Y-131680085D01*
X75850961Y-131558096D01*
X75768181Y-131575633D01*
X75275104Y-131845500D01*
X74932499Y-132271499D01*
X74694576Y-131915423D01*
X74219908Y-131598260D01*
X73660000Y-131486887D01*
X73100091Y-131598260D01*
X72625423Y-131915424D01*
X72387501Y-132271499D01*
X72044896Y-131845500D01*
X71551819Y-131575633D01*
X71469039Y-131558096D01*
X71247000Y-131680085D01*
X71247000Y-133223000D01*
X70993000Y-133223000D01*
X70993000Y-131680085D01*
X70770961Y-131558096D01*
X70688181Y-131575633D01*
X70195104Y-131845500D01*
X69852499Y-132271499D01*
X69614576Y-131915423D01*
X69139908Y-131598260D01*
X68580000Y-131486887D01*
X68020091Y-131598260D01*
X67545423Y-131915424D01*
X67474266Y-132021918D01*
X67378327Y-131790302D01*
X67199699Y-131611673D01*
X66966310Y-131515000D01*
X66325750Y-131515000D01*
X66167000Y-131673750D01*
X66167000Y-133223000D01*
X65913000Y-133223000D01*
X65913000Y-131673750D01*
X65754250Y-131515000D01*
X65151000Y-131515000D01*
X65151000Y-131062000D01*
X108236143Y-131062000D01*
X108236143Y-127242000D01*
X107823000Y-127242000D01*
X107823000Y-125583000D01*
X108077000Y-125583000D01*
X108077000Y-125603000D01*
G04 #@! TO.N,/GNDD*
G36*
X108993001Y-117265026D02*
X108706217Y-116978242D01*
X108215548Y-116775000D01*
X107689802Y-116775000D01*
X104730331Y-113815530D01*
X104687929Y-113752071D01*
X104436537Y-113584096D01*
X104214852Y-113540000D01*
X104214847Y-113540000D01*
X104140000Y-113525112D01*
X104065153Y-113540000D01*
X98871700Y-113540000D01*
X98580625Y-113104375D01*
X98089417Y-112776161D01*
X97510000Y-112660908D01*
X96930582Y-112776161D01*
X96439375Y-113104375D01*
X96260000Y-113372829D01*
X96080625Y-113104375D01*
X95589417Y-112776161D01*
X95010000Y-112660908D01*
X94430582Y-112776161D01*
X93939375Y-113104375D01*
X93760000Y-113372829D01*
X93580625Y-113104375D01*
X93089417Y-112776161D01*
X92510000Y-112660908D01*
X91930582Y-112776161D01*
X91439375Y-113104375D01*
X91260000Y-113372829D01*
X91080625Y-113104375D01*
X90589417Y-112776161D01*
X90010000Y-112660908D01*
X89430582Y-112776161D01*
X88939375Y-113104375D01*
X88760000Y-113372829D01*
X88580625Y-113104375D01*
X88089417Y-112776161D01*
X87510000Y-112660908D01*
X86930582Y-112776161D01*
X86439375Y-113104375D01*
X86260000Y-113372829D01*
X86080625Y-113104375D01*
X85589417Y-112776161D01*
X85010000Y-112660908D01*
X84430582Y-112776161D01*
X83939375Y-113104375D01*
X83760000Y-113372829D01*
X83580625Y-113104375D01*
X83089417Y-112776161D01*
X82510000Y-112660908D01*
X81930582Y-112776161D01*
X81439375Y-113104375D01*
X81260000Y-113372829D01*
X81080625Y-113104375D01*
X80589417Y-112776161D01*
X80010000Y-112660908D01*
X79430582Y-112776161D01*
X78939375Y-113104375D01*
X78760000Y-113372829D01*
X78580625Y-113104375D01*
X78089417Y-112776161D01*
X77510000Y-112660908D01*
X76930582Y-112776161D01*
X76452344Y-113095709D01*
X76398327Y-112965301D01*
X76219698Y-112786673D01*
X75986309Y-112690000D01*
X75295750Y-112690000D01*
X75137000Y-112848750D01*
X75137000Y-114173000D01*
X75157000Y-114173000D01*
X75157000Y-114427000D01*
X75137000Y-114427000D01*
X75137000Y-114447000D01*
X74883000Y-114447000D01*
X74883000Y-114427000D01*
X73683750Y-114427000D01*
X73525000Y-114585750D01*
X73525000Y-115318000D01*
X68146847Y-115318000D01*
X68072000Y-115303112D01*
X67997153Y-115318000D01*
X67997148Y-115318000D01*
X67775463Y-115362096D01*
X67524071Y-115530071D01*
X67481671Y-115593527D01*
X66300199Y-116775000D01*
X65774452Y-116775000D01*
X65283783Y-116978242D01*
X64908242Y-117353783D01*
X64705000Y-117844452D01*
X64705000Y-118375548D01*
X64908242Y-118866217D01*
X65283783Y-119241758D01*
X65774452Y-119445000D01*
X66305548Y-119445000D01*
X66796217Y-119241758D01*
X67171758Y-118866217D01*
X67375000Y-118375548D01*
X67375000Y-117849801D01*
X68386802Y-116838000D01*
X70702357Y-116838000D01*
X70363783Y-116978242D01*
X69988242Y-117353783D01*
X69785000Y-117844452D01*
X69785000Y-118375548D01*
X69988242Y-118866217D01*
X70363783Y-119241758D01*
X70854452Y-119445000D01*
X71385548Y-119445000D01*
X71876217Y-119241758D01*
X72251758Y-118866217D01*
X72455000Y-118375548D01*
X72455000Y-117849802D01*
X72958803Y-117346000D01*
X75076025Y-117346000D01*
X75068242Y-117353783D01*
X74865000Y-117844452D01*
X74865000Y-118375548D01*
X75068242Y-118866217D01*
X75443783Y-119241758D01*
X75934452Y-119445000D01*
X76465548Y-119445000D01*
X76956217Y-119241758D01*
X77331758Y-118866217D01*
X77336062Y-118855825D01*
X77486486Y-118825904D01*
X77737878Y-118657929D01*
X77780280Y-118594470D01*
X79536751Y-116838000D01*
X80782153Y-116838000D01*
X80836337Y-116848778D01*
X80523783Y-116978242D01*
X80148242Y-117353783D01*
X79945000Y-117844452D01*
X79945000Y-118375548D01*
X80148242Y-118866217D01*
X80523783Y-119241758D01*
X81014452Y-119445000D01*
X81545548Y-119445000D01*
X82036217Y-119241758D01*
X82411758Y-118866217D01*
X82615000Y-118375548D01*
X82615000Y-117894801D01*
X84643593Y-115866209D01*
X85010000Y-115939092D01*
X85589418Y-115823839D01*
X86080625Y-115495625D01*
X86260000Y-115227171D01*
X86439375Y-115495625D01*
X86750000Y-115703178D01*
X86750001Y-117102024D01*
X86498242Y-117353783D01*
X86295000Y-117844452D01*
X86295000Y-118375548D01*
X86498242Y-118866217D01*
X86873783Y-119241758D01*
X87364452Y-119445000D01*
X87895548Y-119445000D01*
X88386217Y-119241758D01*
X88761758Y-118866217D01*
X88965000Y-118375548D01*
X88965000Y-117844452D01*
X88761758Y-117353783D01*
X88386217Y-116978242D01*
X88270000Y-116930103D01*
X88270000Y-115703178D01*
X88580625Y-115495625D01*
X88760000Y-115227171D01*
X88939375Y-115495625D01*
X89430583Y-115823839D01*
X90010000Y-115939092D01*
X90376408Y-115866209D01*
X91721112Y-117210913D01*
X91578242Y-117353783D01*
X91375000Y-117844452D01*
X91375000Y-118375548D01*
X91578242Y-118866217D01*
X91953783Y-119241758D01*
X92444452Y-119445000D01*
X92975548Y-119445000D01*
X93466217Y-119241758D01*
X93841758Y-118866217D01*
X94045000Y-118375548D01*
X94045000Y-117844452D01*
X93841758Y-117353783D01*
X93466217Y-116978242D01*
X93454752Y-116973493D01*
X93427801Y-116838000D01*
X95189199Y-116838000D01*
X96455000Y-118103802D01*
X96455000Y-118375548D01*
X96658242Y-118866217D01*
X97033783Y-119241758D01*
X97524452Y-119445000D01*
X98055548Y-119445000D01*
X98546217Y-119241758D01*
X98921758Y-118866217D01*
X99125000Y-118375548D01*
X99125000Y-117844452D01*
X98921758Y-117353783D01*
X98546217Y-116978242D01*
X98207643Y-116838000D01*
X100269199Y-116838000D01*
X101535000Y-118103802D01*
X101535000Y-118375548D01*
X101738242Y-118866217D01*
X102113783Y-119241758D01*
X102604452Y-119445000D01*
X103135548Y-119445000D01*
X103626217Y-119241758D01*
X104001758Y-118866217D01*
X104205000Y-118375548D01*
X104205000Y-117844452D01*
X104001758Y-117353783D01*
X103626217Y-116978242D01*
X103135548Y-116775000D01*
X102604452Y-116775000D01*
X102428630Y-116847828D01*
X101174331Y-115593530D01*
X101131929Y-115530071D01*
X100880537Y-115362096D01*
X100658852Y-115318000D01*
X100658847Y-115318000D01*
X100584000Y-115303112D01*
X100509153Y-115318000D01*
X98699310Y-115318000D01*
X98871700Y-115060000D01*
X103825199Y-115060000D01*
X106615000Y-117849802D01*
X106615000Y-118375548D01*
X106818242Y-118866217D01*
X107193783Y-119241758D01*
X107684452Y-119445000D01*
X108215548Y-119445000D01*
X108706217Y-119241758D01*
X108993001Y-118954974D01*
X108993001Y-121539000D01*
X106945000Y-121539000D01*
X106945000Y-120935750D01*
X106786250Y-120777000D01*
X105537000Y-120777000D01*
X105537000Y-120797000D01*
X105283000Y-120797000D01*
X105283000Y-120777000D01*
X104033750Y-120777000D01*
X103875000Y-120935750D01*
X103875000Y-121539000D01*
X102950593Y-121539000D01*
X102870000Y-121522969D01*
X102789407Y-121539000D01*
X101865000Y-121539000D01*
X101865000Y-120935750D01*
X101706250Y-120777000D01*
X100457000Y-120777000D01*
X100457000Y-120797000D01*
X100203000Y-120797000D01*
X100203000Y-120777000D01*
X98953750Y-120777000D01*
X98795000Y-120935750D01*
X98795000Y-121539000D01*
X97870593Y-121539000D01*
X97790000Y-121522969D01*
X97709407Y-121539000D01*
X96785000Y-121539000D01*
X96785000Y-120935750D01*
X96626250Y-120777000D01*
X95377000Y-120777000D01*
X95377000Y-120797000D01*
X95123000Y-120797000D01*
X95123000Y-120777000D01*
X93873750Y-120777000D01*
X93715000Y-120935750D01*
X93715000Y-121539000D01*
X92790593Y-121539000D01*
X92710000Y-121522969D01*
X92629407Y-121539000D01*
X91705000Y-121539000D01*
X91705000Y-120935750D01*
X91546250Y-120777000D01*
X90297000Y-120777000D01*
X90297000Y-120797000D01*
X90043000Y-120797000D01*
X90043000Y-120777000D01*
X88793750Y-120777000D01*
X88635000Y-120935750D01*
X88635000Y-121539000D01*
X87710593Y-121539000D01*
X87630000Y-121522969D01*
X87549407Y-121539000D01*
X85355000Y-121539000D01*
X85355000Y-120935750D01*
X85196250Y-120777000D01*
X83947000Y-120777000D01*
X83947000Y-120797000D01*
X83693000Y-120797000D01*
X83693000Y-120777000D01*
X82443750Y-120777000D01*
X82285000Y-120935750D01*
X82285000Y-121539000D01*
X81360593Y-121539000D01*
X81280000Y-121522969D01*
X81199407Y-121539000D01*
X80275000Y-121539000D01*
X80275000Y-120935750D01*
X80116250Y-120777000D01*
X78867000Y-120777000D01*
X78867000Y-120797000D01*
X78613000Y-120797000D01*
X78613000Y-120777000D01*
X77363750Y-120777000D01*
X77205000Y-120935750D01*
X77205000Y-121539000D01*
X76280593Y-121539000D01*
X76200000Y-121522969D01*
X76119407Y-121539000D01*
X75195000Y-121539000D01*
X75195000Y-120935750D01*
X75036250Y-120777000D01*
X73787000Y-120777000D01*
X73787000Y-120797000D01*
X73533000Y-120797000D01*
X73533000Y-120777000D01*
X72283750Y-120777000D01*
X72125000Y-120935750D01*
X72125000Y-121539000D01*
X71200593Y-121539000D01*
X71120000Y-121522969D01*
X71039407Y-121539000D01*
X70115000Y-121539000D01*
X70115000Y-120935750D01*
X69956250Y-120777000D01*
X68707000Y-120777000D01*
X68707000Y-120797000D01*
X68453000Y-120797000D01*
X68453000Y-120777000D01*
X67203750Y-120777000D01*
X67045000Y-120935750D01*
X67045000Y-121539000D01*
X66120593Y-121539000D01*
X66040000Y-121522969D01*
X65959407Y-121539000D01*
X63727000Y-121539000D01*
X63727000Y-119623691D01*
X67045000Y-119623691D01*
X67045000Y-120364250D01*
X67203750Y-120523000D01*
X68453000Y-120523000D01*
X68453000Y-119273750D01*
X68707000Y-119273750D01*
X68707000Y-120523000D01*
X69956250Y-120523000D01*
X70115000Y-120364250D01*
X70115000Y-119623691D01*
X72125000Y-119623691D01*
X72125000Y-120364250D01*
X72283750Y-120523000D01*
X73533000Y-120523000D01*
X73533000Y-119273750D01*
X73787000Y-119273750D01*
X73787000Y-120523000D01*
X75036250Y-120523000D01*
X75195000Y-120364250D01*
X75195000Y-119623691D01*
X77205000Y-119623691D01*
X77205000Y-120364250D01*
X77363750Y-120523000D01*
X78613000Y-120523000D01*
X78613000Y-119273750D01*
X78867000Y-119273750D01*
X78867000Y-120523000D01*
X80116250Y-120523000D01*
X80275000Y-120364250D01*
X80275000Y-119623691D01*
X82285000Y-119623691D01*
X82285000Y-120364250D01*
X82443750Y-120523000D01*
X83693000Y-120523000D01*
X83693000Y-119273750D01*
X83947000Y-119273750D01*
X83947000Y-120523000D01*
X85196250Y-120523000D01*
X85355000Y-120364250D01*
X85355000Y-119623691D01*
X88635000Y-119623691D01*
X88635000Y-120364250D01*
X88793750Y-120523000D01*
X90043000Y-120523000D01*
X90043000Y-119273750D01*
X90297000Y-119273750D01*
X90297000Y-120523000D01*
X91546250Y-120523000D01*
X91705000Y-120364250D01*
X91705000Y-119623691D01*
X93715000Y-119623691D01*
X93715000Y-120364250D01*
X93873750Y-120523000D01*
X95123000Y-120523000D01*
X95123000Y-119273750D01*
X95377000Y-119273750D01*
X95377000Y-120523000D01*
X96626250Y-120523000D01*
X96785000Y-120364250D01*
X96785000Y-119623691D01*
X98795000Y-119623691D01*
X98795000Y-120364250D01*
X98953750Y-120523000D01*
X100203000Y-120523000D01*
X100203000Y-119273750D01*
X100457000Y-119273750D01*
X100457000Y-120523000D01*
X101706250Y-120523000D01*
X101865000Y-120364250D01*
X101865000Y-119623691D01*
X103875000Y-119623691D01*
X103875000Y-120364250D01*
X104033750Y-120523000D01*
X105283000Y-120523000D01*
X105283000Y-119273750D01*
X105537000Y-119273750D01*
X105537000Y-120523000D01*
X106786250Y-120523000D01*
X106945000Y-120364250D01*
X106945000Y-119623691D01*
X106848327Y-119390302D01*
X106669699Y-119211673D01*
X106436310Y-119115000D01*
X105695750Y-119115000D01*
X105537000Y-119273750D01*
X105283000Y-119273750D01*
X105124250Y-119115000D01*
X104383690Y-119115000D01*
X104150301Y-119211673D01*
X103971673Y-119390302D01*
X103875000Y-119623691D01*
X101865000Y-119623691D01*
X101768327Y-119390302D01*
X101589699Y-119211673D01*
X101356310Y-119115000D01*
X100615750Y-119115000D01*
X100457000Y-119273750D01*
X100203000Y-119273750D01*
X100044250Y-119115000D01*
X99303690Y-119115000D01*
X99070301Y-119211673D01*
X98891673Y-119390302D01*
X98795000Y-119623691D01*
X96785000Y-119623691D01*
X96688327Y-119390302D01*
X96509699Y-119211673D01*
X96276310Y-119115000D01*
X95535750Y-119115000D01*
X95377000Y-119273750D01*
X95123000Y-119273750D01*
X94964250Y-119115000D01*
X94223690Y-119115000D01*
X93990301Y-119211673D01*
X93811673Y-119390302D01*
X93715000Y-119623691D01*
X91705000Y-119623691D01*
X91608327Y-119390302D01*
X91429699Y-119211673D01*
X91196310Y-119115000D01*
X90455750Y-119115000D01*
X90297000Y-119273750D01*
X90043000Y-119273750D01*
X89884250Y-119115000D01*
X89143690Y-119115000D01*
X88910301Y-119211673D01*
X88731673Y-119390302D01*
X88635000Y-119623691D01*
X85355000Y-119623691D01*
X85258327Y-119390302D01*
X85079699Y-119211673D01*
X84846310Y-119115000D01*
X84105750Y-119115000D01*
X83947000Y-119273750D01*
X83693000Y-119273750D01*
X83534250Y-119115000D01*
X82793690Y-119115000D01*
X82560301Y-119211673D01*
X82381673Y-119390302D01*
X82285000Y-119623691D01*
X80275000Y-119623691D01*
X80178327Y-119390302D01*
X79999699Y-119211673D01*
X79766310Y-119115000D01*
X79025750Y-119115000D01*
X78867000Y-119273750D01*
X78613000Y-119273750D01*
X78454250Y-119115000D01*
X77713690Y-119115000D01*
X77480301Y-119211673D01*
X77301673Y-119390302D01*
X77205000Y-119623691D01*
X75195000Y-119623691D01*
X75098327Y-119390302D01*
X74919699Y-119211673D01*
X74686310Y-119115000D01*
X73945750Y-119115000D01*
X73787000Y-119273750D01*
X73533000Y-119273750D01*
X73374250Y-119115000D01*
X72633690Y-119115000D01*
X72400301Y-119211673D01*
X72221673Y-119390302D01*
X72125000Y-119623691D01*
X70115000Y-119623691D01*
X70018327Y-119390302D01*
X69839699Y-119211673D01*
X69606310Y-119115000D01*
X68865750Y-119115000D01*
X68707000Y-119273750D01*
X68453000Y-119273750D01*
X68294250Y-119115000D01*
X67553690Y-119115000D01*
X67320301Y-119211673D01*
X67141673Y-119390302D01*
X67045000Y-119623691D01*
X63727000Y-119623691D01*
X63727000Y-113198690D01*
X73525000Y-113198690D01*
X73525000Y-114014250D01*
X73683750Y-114173000D01*
X74883000Y-114173000D01*
X74883000Y-112848750D01*
X74724250Y-112690000D01*
X74033691Y-112690000D01*
X73800302Y-112786673D01*
X73621673Y-112965301D01*
X73525000Y-113198690D01*
X63727000Y-113198690D01*
X63727000Y-112495000D01*
X108993001Y-112495000D01*
X108993001Y-117265026D01*
X108993001Y-117265026D01*
G37*
X108993001Y-117265026D02*
X108706217Y-116978242D01*
X108215548Y-116775000D01*
X107689802Y-116775000D01*
X104730331Y-113815530D01*
X104687929Y-113752071D01*
X104436537Y-113584096D01*
X104214852Y-113540000D01*
X104214847Y-113540000D01*
X104140000Y-113525112D01*
X104065153Y-113540000D01*
X98871700Y-113540000D01*
X98580625Y-113104375D01*
X98089417Y-112776161D01*
X97510000Y-112660908D01*
X96930582Y-112776161D01*
X96439375Y-113104375D01*
X96260000Y-113372829D01*
X96080625Y-113104375D01*
X95589417Y-112776161D01*
X95010000Y-112660908D01*
X94430582Y-112776161D01*
X93939375Y-113104375D01*
X93760000Y-113372829D01*
X93580625Y-113104375D01*
X93089417Y-112776161D01*
X92510000Y-112660908D01*
X91930582Y-112776161D01*
X91439375Y-113104375D01*
X91260000Y-113372829D01*
X91080625Y-113104375D01*
X90589417Y-112776161D01*
X90010000Y-112660908D01*
X89430582Y-112776161D01*
X88939375Y-113104375D01*
X88760000Y-113372829D01*
X88580625Y-113104375D01*
X88089417Y-112776161D01*
X87510000Y-112660908D01*
X86930582Y-112776161D01*
X86439375Y-113104375D01*
X86260000Y-113372829D01*
X86080625Y-113104375D01*
X85589417Y-112776161D01*
X85010000Y-112660908D01*
X84430582Y-112776161D01*
X83939375Y-113104375D01*
X83760000Y-113372829D01*
X83580625Y-113104375D01*
X83089417Y-112776161D01*
X82510000Y-112660908D01*
X81930582Y-112776161D01*
X81439375Y-113104375D01*
X81260000Y-113372829D01*
X81080625Y-113104375D01*
X80589417Y-112776161D01*
X80010000Y-112660908D01*
X79430582Y-112776161D01*
X78939375Y-113104375D01*
X78760000Y-113372829D01*
X78580625Y-113104375D01*
X78089417Y-112776161D01*
X77510000Y-112660908D01*
X76930582Y-112776161D01*
X76452344Y-113095709D01*
X76398327Y-112965301D01*
X76219698Y-112786673D01*
X75986309Y-112690000D01*
X75295750Y-112690000D01*
X75137000Y-112848750D01*
X75137000Y-114173000D01*
X75157000Y-114173000D01*
X75157000Y-114427000D01*
X75137000Y-114427000D01*
X75137000Y-114447000D01*
X74883000Y-114447000D01*
X74883000Y-114427000D01*
X73683750Y-114427000D01*
X73525000Y-114585750D01*
X73525000Y-115318000D01*
X68146847Y-115318000D01*
X68072000Y-115303112D01*
X67997153Y-115318000D01*
X67997148Y-115318000D01*
X67775463Y-115362096D01*
X67524071Y-115530071D01*
X67481671Y-115593527D01*
X66300199Y-116775000D01*
X65774452Y-116775000D01*
X65283783Y-116978242D01*
X64908242Y-117353783D01*
X64705000Y-117844452D01*
X64705000Y-118375548D01*
X64908242Y-118866217D01*
X65283783Y-119241758D01*
X65774452Y-119445000D01*
X66305548Y-119445000D01*
X66796217Y-119241758D01*
X67171758Y-118866217D01*
X67375000Y-118375548D01*
X67375000Y-117849801D01*
X68386802Y-116838000D01*
X70702357Y-116838000D01*
X70363783Y-116978242D01*
X69988242Y-117353783D01*
X69785000Y-117844452D01*
X69785000Y-118375548D01*
X69988242Y-118866217D01*
X70363783Y-119241758D01*
X70854452Y-119445000D01*
X71385548Y-119445000D01*
X71876217Y-119241758D01*
X72251758Y-118866217D01*
X72455000Y-118375548D01*
X72455000Y-117849802D01*
X72958803Y-117346000D01*
X75076025Y-117346000D01*
X75068242Y-117353783D01*
X74865000Y-117844452D01*
X74865000Y-118375548D01*
X75068242Y-118866217D01*
X75443783Y-119241758D01*
X75934452Y-119445000D01*
X76465548Y-119445000D01*
X76956217Y-119241758D01*
X77331758Y-118866217D01*
X77336062Y-118855825D01*
X77486486Y-118825904D01*
X77737878Y-118657929D01*
X77780280Y-118594470D01*
X79536751Y-116838000D01*
X80782153Y-116838000D01*
X80836337Y-116848778D01*
X80523783Y-116978242D01*
X80148242Y-117353783D01*
X79945000Y-117844452D01*
X79945000Y-118375548D01*
X80148242Y-118866217D01*
X80523783Y-119241758D01*
X81014452Y-119445000D01*
X81545548Y-119445000D01*
X82036217Y-119241758D01*
X82411758Y-118866217D01*
X82615000Y-118375548D01*
X82615000Y-117894801D01*
X84643593Y-115866209D01*
X85010000Y-115939092D01*
X85589418Y-115823839D01*
X86080625Y-115495625D01*
X86260000Y-115227171D01*
X86439375Y-115495625D01*
X86750000Y-115703178D01*
X86750001Y-117102024D01*
X86498242Y-117353783D01*
X86295000Y-117844452D01*
X86295000Y-118375548D01*
X86498242Y-118866217D01*
X86873783Y-119241758D01*
X87364452Y-119445000D01*
X87895548Y-119445000D01*
X88386217Y-119241758D01*
X88761758Y-118866217D01*
X88965000Y-118375548D01*
X88965000Y-117844452D01*
X88761758Y-117353783D01*
X88386217Y-116978242D01*
X88270000Y-116930103D01*
X88270000Y-115703178D01*
X88580625Y-115495625D01*
X88760000Y-115227171D01*
X88939375Y-115495625D01*
X89430583Y-115823839D01*
X90010000Y-115939092D01*
X90376408Y-115866209D01*
X91721112Y-117210913D01*
X91578242Y-117353783D01*
X91375000Y-117844452D01*
X91375000Y-118375548D01*
X91578242Y-118866217D01*
X91953783Y-119241758D01*
X92444452Y-119445000D01*
X92975548Y-119445000D01*
X93466217Y-119241758D01*
X93841758Y-118866217D01*
X94045000Y-118375548D01*
X94045000Y-117844452D01*
X93841758Y-117353783D01*
X93466217Y-116978242D01*
X93454752Y-116973493D01*
X93427801Y-116838000D01*
X95189199Y-116838000D01*
X96455000Y-118103802D01*
X96455000Y-118375548D01*
X96658242Y-118866217D01*
X97033783Y-119241758D01*
X97524452Y-119445000D01*
X98055548Y-119445000D01*
X98546217Y-119241758D01*
X98921758Y-118866217D01*
X99125000Y-118375548D01*
X99125000Y-117844452D01*
X98921758Y-117353783D01*
X98546217Y-116978242D01*
X98207643Y-116838000D01*
X100269199Y-116838000D01*
X101535000Y-118103802D01*
X101535000Y-118375548D01*
X101738242Y-118866217D01*
X102113783Y-119241758D01*
X102604452Y-119445000D01*
X103135548Y-119445000D01*
X103626217Y-119241758D01*
X104001758Y-118866217D01*
X104205000Y-118375548D01*
X104205000Y-117844452D01*
X104001758Y-117353783D01*
X103626217Y-116978242D01*
X103135548Y-116775000D01*
X102604452Y-116775000D01*
X102428630Y-116847828D01*
X101174331Y-115593530D01*
X101131929Y-115530071D01*
X100880537Y-115362096D01*
X100658852Y-115318000D01*
X100658847Y-115318000D01*
X100584000Y-115303112D01*
X100509153Y-115318000D01*
X98699310Y-115318000D01*
X98871700Y-115060000D01*
X103825199Y-115060000D01*
X106615000Y-117849802D01*
X106615000Y-118375548D01*
X106818242Y-118866217D01*
X107193783Y-119241758D01*
X107684452Y-119445000D01*
X108215548Y-119445000D01*
X108706217Y-119241758D01*
X108993001Y-118954974D01*
X108993001Y-121539000D01*
X106945000Y-121539000D01*
X106945000Y-120935750D01*
X106786250Y-120777000D01*
X105537000Y-120777000D01*
X105537000Y-120797000D01*
X105283000Y-120797000D01*
X105283000Y-120777000D01*
X104033750Y-120777000D01*
X103875000Y-120935750D01*
X103875000Y-121539000D01*
X102950593Y-121539000D01*
X102870000Y-121522969D01*
X102789407Y-121539000D01*
X101865000Y-121539000D01*
X101865000Y-120935750D01*
X101706250Y-120777000D01*
X100457000Y-120777000D01*
X100457000Y-120797000D01*
X100203000Y-120797000D01*
X100203000Y-120777000D01*
X98953750Y-120777000D01*
X98795000Y-120935750D01*
X98795000Y-121539000D01*
X97870593Y-121539000D01*
X97790000Y-121522969D01*
X97709407Y-121539000D01*
X96785000Y-121539000D01*
X96785000Y-120935750D01*
X96626250Y-120777000D01*
X95377000Y-120777000D01*
X95377000Y-120797000D01*
X95123000Y-120797000D01*
X95123000Y-120777000D01*
X93873750Y-120777000D01*
X93715000Y-120935750D01*
X93715000Y-121539000D01*
X92790593Y-121539000D01*
X92710000Y-121522969D01*
X92629407Y-121539000D01*
X91705000Y-121539000D01*
X91705000Y-120935750D01*
X91546250Y-120777000D01*
X90297000Y-120777000D01*
X90297000Y-120797000D01*
X90043000Y-120797000D01*
X90043000Y-120777000D01*
X88793750Y-120777000D01*
X88635000Y-120935750D01*
X88635000Y-121539000D01*
X87710593Y-121539000D01*
X87630000Y-121522969D01*
X87549407Y-121539000D01*
X85355000Y-121539000D01*
X85355000Y-120935750D01*
X85196250Y-120777000D01*
X83947000Y-120777000D01*
X83947000Y-120797000D01*
X83693000Y-120797000D01*
X83693000Y-120777000D01*
X82443750Y-120777000D01*
X82285000Y-120935750D01*
X82285000Y-121539000D01*
X81360593Y-121539000D01*
X81280000Y-121522969D01*
X81199407Y-121539000D01*
X80275000Y-121539000D01*
X80275000Y-120935750D01*
X80116250Y-120777000D01*
X78867000Y-120777000D01*
X78867000Y-120797000D01*
X78613000Y-120797000D01*
X78613000Y-120777000D01*
X77363750Y-120777000D01*
X77205000Y-120935750D01*
X77205000Y-121539000D01*
X76280593Y-121539000D01*
X76200000Y-121522969D01*
X76119407Y-121539000D01*
X75195000Y-121539000D01*
X75195000Y-120935750D01*
X75036250Y-120777000D01*
X73787000Y-120777000D01*
X73787000Y-120797000D01*
X73533000Y-120797000D01*
X73533000Y-120777000D01*
X72283750Y-120777000D01*
X72125000Y-120935750D01*
X72125000Y-121539000D01*
X71200593Y-121539000D01*
X71120000Y-121522969D01*
X71039407Y-121539000D01*
X70115000Y-121539000D01*
X70115000Y-120935750D01*
X69956250Y-120777000D01*
X68707000Y-120777000D01*
X68707000Y-120797000D01*
X68453000Y-120797000D01*
X68453000Y-120777000D01*
X67203750Y-120777000D01*
X67045000Y-120935750D01*
X67045000Y-121539000D01*
X66120593Y-121539000D01*
X66040000Y-121522969D01*
X65959407Y-121539000D01*
X63727000Y-121539000D01*
X63727000Y-119623691D01*
X67045000Y-119623691D01*
X67045000Y-120364250D01*
X67203750Y-120523000D01*
X68453000Y-120523000D01*
X68453000Y-119273750D01*
X68707000Y-119273750D01*
X68707000Y-120523000D01*
X69956250Y-120523000D01*
X70115000Y-120364250D01*
X70115000Y-119623691D01*
X72125000Y-119623691D01*
X72125000Y-120364250D01*
X72283750Y-120523000D01*
X73533000Y-120523000D01*
X73533000Y-119273750D01*
X73787000Y-119273750D01*
X73787000Y-120523000D01*
X75036250Y-120523000D01*
X75195000Y-120364250D01*
X75195000Y-119623691D01*
X77205000Y-119623691D01*
X77205000Y-120364250D01*
X77363750Y-120523000D01*
X78613000Y-120523000D01*
X78613000Y-119273750D01*
X78867000Y-119273750D01*
X78867000Y-120523000D01*
X80116250Y-120523000D01*
X80275000Y-120364250D01*
X80275000Y-119623691D01*
X82285000Y-119623691D01*
X82285000Y-120364250D01*
X82443750Y-120523000D01*
X83693000Y-120523000D01*
X83693000Y-119273750D01*
X83947000Y-119273750D01*
X83947000Y-120523000D01*
X85196250Y-120523000D01*
X85355000Y-120364250D01*
X85355000Y-119623691D01*
X88635000Y-119623691D01*
X88635000Y-120364250D01*
X88793750Y-120523000D01*
X90043000Y-120523000D01*
X90043000Y-119273750D01*
X90297000Y-119273750D01*
X90297000Y-120523000D01*
X91546250Y-120523000D01*
X91705000Y-120364250D01*
X91705000Y-119623691D01*
X93715000Y-119623691D01*
X93715000Y-120364250D01*
X93873750Y-120523000D01*
X95123000Y-120523000D01*
X95123000Y-119273750D01*
X95377000Y-119273750D01*
X95377000Y-120523000D01*
X96626250Y-120523000D01*
X96785000Y-120364250D01*
X96785000Y-119623691D01*
X98795000Y-119623691D01*
X98795000Y-120364250D01*
X98953750Y-120523000D01*
X100203000Y-120523000D01*
X100203000Y-119273750D01*
X100457000Y-119273750D01*
X100457000Y-120523000D01*
X101706250Y-120523000D01*
X101865000Y-120364250D01*
X101865000Y-119623691D01*
X103875000Y-119623691D01*
X103875000Y-120364250D01*
X104033750Y-120523000D01*
X105283000Y-120523000D01*
X105283000Y-119273750D01*
X105537000Y-119273750D01*
X105537000Y-120523000D01*
X106786250Y-120523000D01*
X106945000Y-120364250D01*
X106945000Y-119623691D01*
X106848327Y-119390302D01*
X106669699Y-119211673D01*
X106436310Y-119115000D01*
X105695750Y-119115000D01*
X105537000Y-119273750D01*
X105283000Y-119273750D01*
X105124250Y-119115000D01*
X104383690Y-119115000D01*
X104150301Y-119211673D01*
X103971673Y-119390302D01*
X103875000Y-119623691D01*
X101865000Y-119623691D01*
X101768327Y-119390302D01*
X101589699Y-119211673D01*
X101356310Y-119115000D01*
X100615750Y-119115000D01*
X100457000Y-119273750D01*
X100203000Y-119273750D01*
X100044250Y-119115000D01*
X99303690Y-119115000D01*
X99070301Y-119211673D01*
X98891673Y-119390302D01*
X98795000Y-119623691D01*
X96785000Y-119623691D01*
X96688327Y-119390302D01*
X96509699Y-119211673D01*
X96276310Y-119115000D01*
X95535750Y-119115000D01*
X95377000Y-119273750D01*
X95123000Y-119273750D01*
X94964250Y-119115000D01*
X94223690Y-119115000D01*
X93990301Y-119211673D01*
X93811673Y-119390302D01*
X93715000Y-119623691D01*
X91705000Y-119623691D01*
X91608327Y-119390302D01*
X91429699Y-119211673D01*
X91196310Y-119115000D01*
X90455750Y-119115000D01*
X90297000Y-119273750D01*
X90043000Y-119273750D01*
X89884250Y-119115000D01*
X89143690Y-119115000D01*
X88910301Y-119211673D01*
X88731673Y-119390302D01*
X88635000Y-119623691D01*
X85355000Y-119623691D01*
X85258327Y-119390302D01*
X85079699Y-119211673D01*
X84846310Y-119115000D01*
X84105750Y-119115000D01*
X83947000Y-119273750D01*
X83693000Y-119273750D01*
X83534250Y-119115000D01*
X82793690Y-119115000D01*
X82560301Y-119211673D01*
X82381673Y-119390302D01*
X82285000Y-119623691D01*
X80275000Y-119623691D01*
X80178327Y-119390302D01*
X79999699Y-119211673D01*
X79766310Y-119115000D01*
X79025750Y-119115000D01*
X78867000Y-119273750D01*
X78613000Y-119273750D01*
X78454250Y-119115000D01*
X77713690Y-119115000D01*
X77480301Y-119211673D01*
X77301673Y-119390302D01*
X77205000Y-119623691D01*
X75195000Y-119623691D01*
X75098327Y-119390302D01*
X74919699Y-119211673D01*
X74686310Y-119115000D01*
X73945750Y-119115000D01*
X73787000Y-119273750D01*
X73533000Y-119273750D01*
X73374250Y-119115000D01*
X72633690Y-119115000D01*
X72400301Y-119211673D01*
X72221673Y-119390302D01*
X72125000Y-119623691D01*
X70115000Y-119623691D01*
X70018327Y-119390302D01*
X69839699Y-119211673D01*
X69606310Y-119115000D01*
X68865750Y-119115000D01*
X68707000Y-119273750D01*
X68453000Y-119273750D01*
X68294250Y-119115000D01*
X67553690Y-119115000D01*
X67320301Y-119211673D01*
X67141673Y-119390302D01*
X67045000Y-119623691D01*
X63727000Y-119623691D01*
X63727000Y-113198690D01*
X73525000Y-113198690D01*
X73525000Y-114014250D01*
X73683750Y-114173000D01*
X74883000Y-114173000D01*
X74883000Y-112848750D01*
X74724250Y-112690000D01*
X74033691Y-112690000D01*
X73800302Y-112786673D01*
X73621673Y-112965301D01*
X73525000Y-113198690D01*
X63727000Y-113198690D01*
X63727000Y-112495000D01*
X108993001Y-112495000D01*
X108993001Y-117265026D01*
G04 #@! TD*
M02*
