G04 #@! TF.GenerationSoftware,KiCad,Pcbnew,5.0.0*
G04 #@! TF.CreationDate,2018-10-18T22:04:33+02:00*
G04 #@! TF.ProjectId,module_8x_100VDC_16A_out,6D6F64756C655F38785F313030564443,rev?*
G04 #@! TF.SameCoordinates,Original*
G04 #@! TF.FileFunction,Soldermask,Bot*
G04 #@! TF.FilePolarity,Negative*
%FSLAX46Y46*%
G04 Gerber Fmt 4.6, Leading zero omitted, Abs format (unit mm)*
G04 Created by KiCad (PCBNEW 5.0.0) date Thu Oct 18 22:04:33 2018*
%MOMM*%
%LPD*%
G01*
G04 APERTURE LIST*
%ADD10R,2.200000X2.200000*%
%ADD11C,2.200000*%
%ADD12R,2.000000X2.000000*%
%ADD13O,2.000000X2.000000*%
%ADD14R,2.100000X2.350000*%
%ADD15O,2.100000X2.350000*%
%ADD16R,2.480000X4.000000*%
%ADD17O,2.480000X4.000000*%
%ADD18C,1.800000*%
%ADD19O,1.800000X1.800000*%
%ADD20R,2.000000X2.800000*%
%ADD21O,2.000000X2.800000*%
%ADD22R,2.305000X2.400000*%
%ADD23O,2.305000X2.400000*%
%ADD24O,3.900000X3.900000*%
%ADD25R,2.400000X2.305000*%
%ADD26O,2.400000X2.305000*%
G04 APERTURE END LIST*
D10*
G04 #@! TO.C,D1*
X68580000Y-120650000D03*
D11*
X68580000Y-123190000D03*
G04 #@! TD*
D10*
G04 #@! TO.C,D2*
X73660000Y-120650000D03*
D11*
X73660000Y-123190000D03*
G04 #@! TD*
G04 #@! TO.C,D3*
X78740000Y-123190000D03*
D10*
X78740000Y-120650000D03*
G04 #@! TD*
G04 #@! TO.C,D4*
X83820000Y-120650000D03*
D11*
X83820000Y-123190000D03*
G04 #@! TD*
G04 #@! TO.C,D5*
X90170000Y-123190000D03*
D10*
X90170000Y-120650000D03*
G04 #@! TD*
G04 #@! TO.C,D6*
X95250000Y-120650000D03*
D11*
X95250000Y-123190000D03*
G04 #@! TD*
G04 #@! TO.C,D7*
X100330000Y-123190000D03*
D10*
X100330000Y-120650000D03*
G04 #@! TD*
D11*
G04 #@! TO.C,D8*
X105410000Y-123190000D03*
D10*
X105410000Y-120650000D03*
G04 #@! TD*
D12*
G04 #@! TO.C,D9*
X107950000Y-125730000D03*
D13*
X107950000Y-133350000D03*
G04 #@! TD*
D14*
G04 #@! TO.C,J1*
X75010000Y-114300000D03*
D15*
X77510000Y-114300000D03*
X80010000Y-114300000D03*
X82510000Y-114300000D03*
X85010000Y-114300000D03*
X87510000Y-114300000D03*
X90010000Y-114300000D03*
X92510000Y-114300000D03*
X95010000Y-114300000D03*
X97510000Y-114300000D03*
G04 #@! TD*
D16*
G04 #@! TO.C,J2*
X66040000Y-181610000D03*
D17*
X71120000Y-181610000D03*
X76200000Y-181610000D03*
X81280000Y-181610000D03*
X86360000Y-181610000D03*
X91440000Y-181610000D03*
X96520000Y-181610000D03*
X101600000Y-181610000D03*
X106680000Y-181610000D03*
G04 #@! TD*
D18*
G04 #@! TO.C,R1*
X66040000Y-118110000D03*
D19*
X66040000Y-123190000D03*
G04 #@! TD*
G04 #@! TO.C,R2*
X71120000Y-123190000D03*
D18*
X71120000Y-118110000D03*
G04 #@! TD*
D19*
G04 #@! TO.C,R3*
X76200000Y-123190000D03*
D18*
X76200000Y-118110000D03*
G04 #@! TD*
D19*
G04 #@! TO.C,R4*
X81280000Y-123190000D03*
D18*
X81280000Y-118110000D03*
G04 #@! TD*
G04 #@! TO.C,R5*
X87630000Y-118110000D03*
D19*
X87630000Y-123190000D03*
G04 #@! TD*
D18*
G04 #@! TO.C,R6*
X92710000Y-118110000D03*
D19*
X92710000Y-123190000D03*
G04 #@! TD*
G04 #@! TO.C,R7*
X97790000Y-123190000D03*
D18*
X97790000Y-118110000D03*
G04 #@! TD*
D19*
G04 #@! TO.C,R8*
X102870000Y-123190000D03*
D18*
X102870000Y-118110000D03*
G04 #@! TD*
D19*
G04 #@! TO.C,R9*
X107950000Y-123190000D03*
D18*
X107950000Y-118110000D03*
G04 #@! TD*
G04 #@! TO.C,R10*
X81280000Y-146050000D03*
D19*
X81280000Y-140970000D03*
G04 #@! TD*
D18*
G04 #@! TO.C,R11*
X81280000Y-158750000D03*
D19*
X81280000Y-153670000D03*
G04 #@! TD*
D18*
G04 #@! TO.C,R12*
X78486000Y-135890000D03*
D19*
X73406000Y-135890000D03*
G04 #@! TD*
D18*
G04 #@! TO.C,R13*
X85598000Y-135890000D03*
D19*
X80518000Y-135890000D03*
G04 #@! TD*
G04 #@! TO.C,R14*
X92710000Y-135890000D03*
D18*
X87630000Y-135890000D03*
G04 #@! TD*
D19*
G04 #@! TO.C,R15*
X91440000Y-158750000D03*
D18*
X91440000Y-153670000D03*
G04 #@! TD*
G04 #@! TO.C,R16*
X99822000Y-135890000D03*
D19*
X94742000Y-135890000D03*
G04 #@! TD*
D18*
G04 #@! TO.C,R17*
X91440000Y-140970000D03*
D19*
X91440000Y-146050000D03*
G04 #@! TD*
D20*
G04 #@! TO.C,U1*
X66040000Y-133350000D03*
D21*
X83820000Y-125730000D03*
X68580000Y-133350000D03*
X81280000Y-125730000D03*
X71120000Y-133350000D03*
X78740000Y-125730000D03*
X73660000Y-133350000D03*
X76200000Y-125730000D03*
X76200000Y-133350000D03*
X73660000Y-125730000D03*
X78740000Y-133350000D03*
X71120000Y-125730000D03*
X81280000Y-133350000D03*
X68580000Y-125730000D03*
X83820000Y-133350000D03*
X66040000Y-125730000D03*
G04 #@! TD*
G04 #@! TO.C,U2*
X87630000Y-125730000D03*
X105410000Y-133350000D03*
X90170000Y-125730000D03*
X102870000Y-133350000D03*
X92710000Y-125730000D03*
X100330000Y-133350000D03*
X95250000Y-125730000D03*
X97790000Y-133350000D03*
X97790000Y-125730000D03*
X95250000Y-133350000D03*
X100330000Y-125730000D03*
X92710000Y-133350000D03*
X102870000Y-125730000D03*
X90170000Y-133350000D03*
X105410000Y-125730000D03*
D20*
X87630000Y-133350000D03*
G04 #@! TD*
D22*
G04 #@! TO.C,Q3*
X74930000Y-176530000D03*
D23*
X77470000Y-176530000D03*
X80010000Y-176530000D03*
G04 #@! TD*
D24*
G04 #@! TO.C,Q4*
X67160000Y-168910000D03*
D25*
X83820000Y-171450000D03*
D26*
X83820000Y-168910000D03*
X83820000Y-166370000D03*
G04 #@! TD*
G04 #@! TO.C,Q2*
X83820000Y-153670000D03*
X83820000Y-156210000D03*
D25*
X83820000Y-158750000D03*
D24*
X67160000Y-156210000D03*
G04 #@! TD*
G04 #@! TO.C,Q5*
X105560000Y-168910000D03*
D25*
X88900000Y-166370000D03*
D26*
X88900000Y-168910000D03*
X88900000Y-171450000D03*
G04 #@! TD*
G04 #@! TO.C,Q1*
X83820000Y-140970000D03*
X83820000Y-143510000D03*
D25*
X83820000Y-146050000D03*
D24*
X67160000Y-143510000D03*
G04 #@! TD*
G04 #@! TO.C,Q6*
X105560000Y-156210000D03*
D25*
X88900000Y-153670000D03*
D26*
X88900000Y-156210000D03*
X88900000Y-158750000D03*
G04 #@! TD*
D22*
G04 #@! TO.C,Q7*
X92710000Y-176530000D03*
D23*
X95250000Y-176530000D03*
X97790000Y-176530000D03*
G04 #@! TD*
D24*
G04 #@! TO.C,Q8*
X105560000Y-143510000D03*
D25*
X88900000Y-140970000D03*
D26*
X88900000Y-143510000D03*
X88900000Y-146050000D03*
G04 #@! TD*
M02*
