G04 #@! TF.GenerationSoftware,KiCad,Pcbnew,5.0.0*
G04 #@! TF.CreationDate,2018-10-18T22:04:33+02:00*
G04 #@! TF.ProjectId,module_8x_100VDC_16A_out,6D6F64756C655F38785F313030564443,rev?*
G04 #@! TF.SameCoordinates,Original*
G04 #@! TF.FileFunction,Legend,Bot*
G04 #@! TF.FilePolarity,Positive*
%FSLAX46Y46*%
G04 Gerber Fmt 4.6, Leading zero omitted, Abs format (unit mm)*
G04 Created by KiCad (PCBNEW 5.0.0) date Thu Oct 18 22:04:33 2018*
%MOMM*%
%LPD*%
G01*
G04 APERTURE LIST*
%ADD10C,0.120000*%
%ADD11C,0.150000*%
G04 APERTURE END LIST*
D10*
G04 #@! TO.C,Q3*
X72350000Y-172840000D02*
X82590000Y-172840000D01*
X72350000Y-163350000D02*
X82590000Y-163350000D01*
X72350000Y-172840000D02*
X72350000Y-163350000D01*
X82590000Y-172840000D02*
X82590000Y-163350000D01*
X72350000Y-156950000D02*
X73550000Y-156950000D01*
X74749000Y-156950000D02*
X75950000Y-156950000D01*
X77150000Y-156950000D02*
X78350000Y-156950000D01*
X79550000Y-156950000D02*
X80750000Y-156950000D01*
X81950000Y-156950000D02*
X82590000Y-156950000D01*
X72350000Y-163110000D02*
X72350000Y-161910000D01*
X72350000Y-160710000D02*
X72350000Y-159510000D01*
X72350000Y-158310000D02*
X72350000Y-157110000D01*
X82590000Y-163110000D02*
X82590000Y-161910000D01*
X82590000Y-160710000D02*
X82590000Y-159510000D01*
X82590000Y-158310000D02*
X82590000Y-157110000D01*
X74930000Y-175380000D02*
X74930000Y-172840000D01*
X77470000Y-175380000D02*
X77470000Y-172840000D01*
X80010000Y-175380000D02*
X80010000Y-172840000D01*
G04 #@! TO.C,Q7*
X90130000Y-172840000D02*
X100370000Y-172840000D01*
X90130000Y-163350000D02*
X100370000Y-163350000D01*
X90130000Y-172840000D02*
X90130000Y-163350000D01*
X100370000Y-172840000D02*
X100370000Y-163350000D01*
X90130000Y-156950000D02*
X91330000Y-156950000D01*
X92529000Y-156950000D02*
X93730000Y-156950000D01*
X94930000Y-156950000D02*
X96130000Y-156950000D01*
X97330000Y-156950000D02*
X98530000Y-156950000D01*
X99730000Y-156950000D02*
X100370000Y-156950000D01*
X90130000Y-163110000D02*
X90130000Y-161910000D01*
X90130000Y-160710000D02*
X90130000Y-159510000D01*
X90130000Y-158310000D02*
X90130000Y-157110000D01*
X100370000Y-163110000D02*
X100370000Y-161910000D01*
X100370000Y-160710000D02*
X100370000Y-159510000D01*
X100370000Y-158310000D02*
X100370000Y-157110000D01*
X92710000Y-175380000D02*
X92710000Y-172840000D01*
X95250000Y-175380000D02*
X95250000Y-172840000D01*
X97790000Y-175380000D02*
X97790000Y-172840000D01*
G04 #@! TO.C,Q3*
D11*
X77565238Y-156497619D02*
X77660476Y-156450000D01*
X77755714Y-156354761D01*
X77898571Y-156211904D01*
X77993809Y-156164285D01*
X78089047Y-156164285D01*
X78041428Y-156402380D02*
X78136666Y-156354761D01*
X78231904Y-156259523D01*
X78279523Y-156069047D01*
X78279523Y-155735714D01*
X78231904Y-155545238D01*
X78136666Y-155450000D01*
X78041428Y-155402380D01*
X77850952Y-155402380D01*
X77755714Y-155450000D01*
X77660476Y-155545238D01*
X77612857Y-155735714D01*
X77612857Y-156069047D01*
X77660476Y-156259523D01*
X77755714Y-156354761D01*
X77850952Y-156402380D01*
X78041428Y-156402380D01*
X77279523Y-155402380D02*
X76660476Y-155402380D01*
X76993809Y-155783333D01*
X76850952Y-155783333D01*
X76755714Y-155830952D01*
X76708095Y-155878571D01*
X76660476Y-155973809D01*
X76660476Y-156211904D01*
X76708095Y-156307142D01*
X76755714Y-156354761D01*
X76850952Y-156402380D01*
X77136666Y-156402380D01*
X77231904Y-156354761D01*
X77279523Y-156307142D01*
G04 #@! TO.C,Q7*
X95345238Y-156497619D02*
X95440476Y-156450000D01*
X95535714Y-156354761D01*
X95678571Y-156211904D01*
X95773809Y-156164285D01*
X95869047Y-156164285D01*
X95821428Y-156402380D02*
X95916666Y-156354761D01*
X96011904Y-156259523D01*
X96059523Y-156069047D01*
X96059523Y-155735714D01*
X96011904Y-155545238D01*
X95916666Y-155450000D01*
X95821428Y-155402380D01*
X95630952Y-155402380D01*
X95535714Y-155450000D01*
X95440476Y-155545238D01*
X95392857Y-155735714D01*
X95392857Y-156069047D01*
X95440476Y-156259523D01*
X95535714Y-156354761D01*
X95630952Y-156402380D01*
X95821428Y-156402380D01*
X95059523Y-155402380D02*
X94392857Y-155402380D01*
X94821428Y-156402380D01*
G04 #@! TD*
M02*
