G04 #@! TF.GenerationSoftware,KiCad,Pcbnew,5.0.0*
G04 #@! TF.CreationDate,2018-10-18T22:04:33+02:00*
G04 #@! TF.ProjectId,module_8x_100VDC_16A_out,6D6F64756C655F38785F313030564443,rev?*
G04 #@! TF.SameCoordinates,Original*
G04 #@! TF.FileFunction,Copper,L1,Top,Signal*
G04 #@! TF.FilePolarity,Positive*
%FSLAX46Y46*%
G04 Gerber Fmt 4.6, Leading zero omitted, Abs format (unit mm)*
G04 Created by KiCad (PCBNEW 5.0.0) date Thu Oct 18 22:04:33 2018*
%MOMM*%
%LPD*%
G01*
G04 APERTURE LIST*
G04 #@! TA.AperFunction,ComponentPad*
%ADD10R,1.800000X1.800000*%
G04 #@! TD*
G04 #@! TA.AperFunction,ComponentPad*
%ADD11C,1.800000*%
G04 #@! TD*
G04 #@! TA.AperFunction,ComponentPad*
%ADD12R,1.600000X1.600000*%
G04 #@! TD*
G04 #@! TA.AperFunction,ComponentPad*
%ADD13O,1.600000X1.600000*%
G04 #@! TD*
G04 #@! TA.AperFunction,ComponentPad*
%ADD14R,1.700000X1.950000*%
G04 #@! TD*
G04 #@! TA.AperFunction,ComponentPad*
%ADD15O,1.700000X1.950000*%
G04 #@! TD*
G04 #@! TA.AperFunction,ComponentPad*
%ADD16R,2.080000X3.600000*%
G04 #@! TD*
G04 #@! TA.AperFunction,ComponentPad*
%ADD17O,2.080000X3.600000*%
G04 #@! TD*
G04 #@! TA.AperFunction,ComponentPad*
%ADD18C,1.400000*%
G04 #@! TD*
G04 #@! TA.AperFunction,ComponentPad*
%ADD19O,1.400000X1.400000*%
G04 #@! TD*
G04 #@! TA.AperFunction,ComponentPad*
%ADD20R,1.600000X2.400000*%
G04 #@! TD*
G04 #@! TA.AperFunction,ComponentPad*
%ADD21O,1.600000X2.400000*%
G04 #@! TD*
G04 #@! TA.AperFunction,ComponentPad*
%ADD22R,1.905000X2.000000*%
G04 #@! TD*
G04 #@! TA.AperFunction,ComponentPad*
%ADD23O,1.905000X2.000000*%
G04 #@! TD*
G04 #@! TA.AperFunction,ComponentPad*
%ADD24R,2.000000X1.905000*%
G04 #@! TD*
G04 #@! TA.AperFunction,ComponentPad*
%ADD25O,2.000000X1.905000*%
G04 #@! TD*
G04 #@! TA.AperFunction,Conductor*
%ADD26C,2.500000*%
G04 #@! TD*
G04 #@! TA.AperFunction,Conductor*
%ADD27C,2.000000*%
G04 #@! TD*
G04 #@! TA.AperFunction,Conductor*
%ADD28C,0.250000*%
G04 #@! TD*
G04 #@! TA.AperFunction,Conductor*
%ADD29C,0.254000*%
G04 #@! TD*
G04 APERTURE END LIST*
D10*
G04 #@! TO.P,D1,1*
G04 #@! TO.N,/GNDD*
X68580000Y-120650000D03*
D11*
G04 #@! TO.P,D1,2*
G04 #@! TO.N,Net-(D1-Pad2)*
X68580000Y-123190000D03*
G04 #@! TD*
D10*
G04 #@! TO.P,D2,1*
G04 #@! TO.N,/GNDD*
X73660000Y-120650000D03*
D11*
G04 #@! TO.P,D2,2*
G04 #@! TO.N,Net-(D2-Pad2)*
X73660000Y-123190000D03*
G04 #@! TD*
G04 #@! TO.P,D3,2*
G04 #@! TO.N,Net-(D3-Pad2)*
X78740000Y-123190000D03*
D10*
G04 #@! TO.P,D3,1*
G04 #@! TO.N,/GNDD*
X78740000Y-120650000D03*
G04 #@! TD*
G04 #@! TO.P,D4,1*
G04 #@! TO.N,/GNDD*
X83820000Y-120650000D03*
D11*
G04 #@! TO.P,D4,2*
G04 #@! TO.N,Net-(D4-Pad2)*
X83820000Y-123190000D03*
G04 #@! TD*
G04 #@! TO.P,D5,2*
G04 #@! TO.N,Net-(D5-Pad2)*
X90170000Y-123190000D03*
D10*
G04 #@! TO.P,D5,1*
G04 #@! TO.N,/GNDD*
X90170000Y-120650000D03*
G04 #@! TD*
G04 #@! TO.P,D6,1*
G04 #@! TO.N,/GNDD*
X95250000Y-120650000D03*
D11*
G04 #@! TO.P,D6,2*
G04 #@! TO.N,Net-(D6-Pad2)*
X95250000Y-123190000D03*
G04 #@! TD*
G04 #@! TO.P,D7,2*
G04 #@! TO.N,Net-(D7-Pad2)*
X100330000Y-123190000D03*
D10*
G04 #@! TO.P,D7,1*
G04 #@! TO.N,/GNDD*
X100330000Y-120650000D03*
G04 #@! TD*
D11*
G04 #@! TO.P,D8,2*
G04 #@! TO.N,Net-(D8-Pad2)*
X105410000Y-123190000D03*
D10*
G04 #@! TO.P,D8,1*
G04 #@! TO.N,/GNDD*
X105410000Y-120650000D03*
G04 #@! TD*
D12*
G04 #@! TO.P,D9,1*
G04 #@! TO.N,/+9V*
X107950000Y-125730000D03*
D13*
G04 #@! TO.P,D9,2*
G04 #@! TO.N,/PWR_GND*
X107950000Y-133350000D03*
G04 #@! TD*
D14*
G04 #@! TO.P,J1,1*
G04 #@! TO.N,/GNDD*
X75010000Y-114300000D03*
D15*
G04 #@! TO.P,J1,2*
G04 #@! TO.N,/GPB0*
X77510000Y-114300000D03*
G04 #@! TO.P,J1,3*
G04 #@! TO.N,/GPB1*
X80010000Y-114300000D03*
G04 #@! TO.P,J1,4*
G04 #@! TO.N,/GPB2*
X82510000Y-114300000D03*
G04 #@! TO.P,J1,5*
G04 #@! TO.N,/GPB3*
X85010000Y-114300000D03*
G04 #@! TO.P,J1,6*
G04 #@! TO.N,/GPB4*
X87510000Y-114300000D03*
G04 #@! TO.P,J1,7*
G04 #@! TO.N,/GPB5*
X90010000Y-114300000D03*
G04 #@! TO.P,J1,8*
G04 #@! TO.N,/GPB6*
X92510000Y-114300000D03*
G04 #@! TO.P,J1,9*
G04 #@! TO.N,/GPB7*
X95010000Y-114300000D03*
G04 #@! TO.P,J1,10*
G04 #@! TO.N,/+24V*
X97510000Y-114300000D03*
G04 #@! TD*
D16*
G04 #@! TO.P,J2,1*
G04 #@! TO.N,/out0*
X66040000Y-181610000D03*
D17*
G04 #@! TO.P,J2,2*
G04 #@! TO.N,/out1*
X71120000Y-181610000D03*
G04 #@! TO.P,J2,3*
G04 #@! TO.N,/out2*
X76200000Y-181610000D03*
G04 #@! TO.P,J2,4*
G04 #@! TO.N,/out3*
X81280000Y-181610000D03*
G04 #@! TO.P,J2,5*
G04 #@! TO.N,/out4*
X86360000Y-181610000D03*
G04 #@! TO.P,J2,6*
G04 #@! TO.N,/out5*
X91440000Y-181610000D03*
G04 #@! TO.P,J2,7*
G04 #@! TO.N,/out6*
X96520000Y-181610000D03*
G04 #@! TO.P,J2,8*
G04 #@! TO.N,/out7*
X101600000Y-181610000D03*
G04 #@! TO.P,J2,9*
G04 #@! TO.N,/PWR_GND*
X106680000Y-181610000D03*
G04 #@! TD*
D18*
G04 #@! TO.P,R1,1*
G04 #@! TO.N,/GPB0*
X66040000Y-118110000D03*
D19*
G04 #@! TO.P,R1,2*
G04 #@! TO.N,Net-(R1-Pad2)*
X66040000Y-123190000D03*
G04 #@! TD*
G04 #@! TO.P,R2,2*
G04 #@! TO.N,Net-(R2-Pad2)*
X71120000Y-123190000D03*
D18*
G04 #@! TO.P,R2,1*
G04 #@! TO.N,/GPB1*
X71120000Y-118110000D03*
G04 #@! TD*
D19*
G04 #@! TO.P,R3,2*
G04 #@! TO.N,Net-(R3-Pad2)*
X76200000Y-123190000D03*
D18*
G04 #@! TO.P,R3,1*
G04 #@! TO.N,/GPB2*
X76200000Y-118110000D03*
G04 #@! TD*
D19*
G04 #@! TO.P,R4,2*
G04 #@! TO.N,Net-(R4-Pad2)*
X81280000Y-123190000D03*
D18*
G04 #@! TO.P,R4,1*
G04 #@! TO.N,/GPB3*
X81280000Y-118110000D03*
G04 #@! TD*
G04 #@! TO.P,R5,1*
G04 #@! TO.N,/GPB4*
X87630000Y-118110000D03*
D19*
G04 #@! TO.P,R5,2*
G04 #@! TO.N,Net-(R5-Pad2)*
X87630000Y-123190000D03*
G04 #@! TD*
D18*
G04 #@! TO.P,R6,1*
G04 #@! TO.N,/GPB5*
X92710000Y-118110000D03*
D19*
G04 #@! TO.P,R6,2*
G04 #@! TO.N,Net-(R6-Pad2)*
X92710000Y-123190000D03*
G04 #@! TD*
G04 #@! TO.P,R7,2*
G04 #@! TO.N,Net-(R7-Pad2)*
X97790000Y-123190000D03*
D18*
G04 #@! TO.P,R7,1*
G04 #@! TO.N,/GPB6*
X97790000Y-118110000D03*
G04 #@! TD*
D19*
G04 #@! TO.P,R8,2*
G04 #@! TO.N,Net-(R8-Pad2)*
X102870000Y-123190000D03*
D18*
G04 #@! TO.P,R8,1*
G04 #@! TO.N,/GPB7*
X102870000Y-118110000D03*
G04 #@! TD*
D19*
G04 #@! TO.P,R9,2*
G04 #@! TO.N,/+9V*
X107950000Y-123190000D03*
D18*
G04 #@! TO.P,R9,1*
G04 #@! TO.N,/+24V*
X107950000Y-118110000D03*
G04 #@! TD*
G04 #@! TO.P,R10,1*
G04 #@! TO.N,Net-(Q1-Pad1)*
X81280000Y-146050000D03*
D19*
G04 #@! TO.P,R10,2*
G04 #@! TO.N,/PWR_GND*
X81280000Y-140970000D03*
G04 #@! TD*
D18*
G04 #@! TO.P,R11,1*
G04 #@! TO.N,Net-(Q2-Pad1)*
X81280000Y-158750000D03*
D19*
G04 #@! TO.P,R11,2*
G04 #@! TO.N,/PWR_GND*
X81280000Y-153670000D03*
G04 #@! TD*
D18*
G04 #@! TO.P,R12,1*
G04 #@! TO.N,Net-(Q3-Pad1)*
X78486000Y-135890000D03*
D19*
G04 #@! TO.P,R12,2*
G04 #@! TO.N,/PWR_GND*
X73406000Y-135890000D03*
G04 #@! TD*
D18*
G04 #@! TO.P,R13,1*
G04 #@! TO.N,Net-(Q4-Pad1)*
X85598000Y-135890000D03*
D19*
G04 #@! TO.P,R13,2*
G04 #@! TO.N,/PWR_GND*
X80518000Y-135890000D03*
G04 #@! TD*
G04 #@! TO.P,R14,2*
G04 #@! TO.N,/PWR_GND*
X92710000Y-135890000D03*
D18*
G04 #@! TO.P,R14,1*
G04 #@! TO.N,Net-(Q5-Pad1)*
X87630000Y-135890000D03*
G04 #@! TD*
D19*
G04 #@! TO.P,R15,2*
G04 #@! TO.N,/PWR_GND*
X91440000Y-158750000D03*
D18*
G04 #@! TO.P,R15,1*
G04 #@! TO.N,Net-(Q6-Pad1)*
X91440000Y-153670000D03*
G04 #@! TD*
G04 #@! TO.P,R16,1*
G04 #@! TO.N,Net-(Q7-Pad1)*
X99822000Y-135890000D03*
D19*
G04 #@! TO.P,R16,2*
G04 #@! TO.N,/PWR_GND*
X94742000Y-135890000D03*
G04 #@! TD*
D18*
G04 #@! TO.P,R17,1*
G04 #@! TO.N,Net-(Q8-Pad1)*
X91440000Y-140970000D03*
D19*
G04 #@! TO.P,R17,2*
G04 #@! TO.N,/PWR_GND*
X91440000Y-146050000D03*
G04 #@! TD*
D20*
G04 #@! TO.P,U1,1*
G04 #@! TO.N,/+9V*
X66040000Y-133350000D03*
D21*
G04 #@! TO.P,U1,9*
G04 #@! TO.N,Net-(D4-Pad2)*
X83820000Y-125730000D03*
G04 #@! TO.P,U1,2*
G04 #@! TO.N,Net-(Q1-Pad1)*
X68580000Y-133350000D03*
G04 #@! TO.P,U1,10*
G04 #@! TO.N,Net-(R4-Pad2)*
X81280000Y-125730000D03*
G04 #@! TO.P,U1,3*
G04 #@! TO.N,/+9V*
X71120000Y-133350000D03*
G04 #@! TO.P,U1,11*
G04 #@! TO.N,Net-(D3-Pad2)*
X78740000Y-125730000D03*
G04 #@! TO.P,U1,4*
G04 #@! TO.N,Net-(Q2-Pad1)*
X73660000Y-133350000D03*
G04 #@! TO.P,U1,12*
G04 #@! TO.N,Net-(R3-Pad2)*
X76200000Y-125730000D03*
G04 #@! TO.P,U1,5*
G04 #@! TO.N,/+9V*
X76200000Y-133350000D03*
G04 #@! TO.P,U1,13*
G04 #@! TO.N,Net-(D2-Pad2)*
X73660000Y-125730000D03*
G04 #@! TO.P,U1,6*
G04 #@! TO.N,Net-(Q3-Pad1)*
X78740000Y-133350000D03*
G04 #@! TO.P,U1,14*
G04 #@! TO.N,Net-(R2-Pad2)*
X71120000Y-125730000D03*
G04 #@! TO.P,U1,7*
G04 #@! TO.N,/+9V*
X81280000Y-133350000D03*
G04 #@! TO.P,U1,15*
G04 #@! TO.N,Net-(D1-Pad2)*
X68580000Y-125730000D03*
G04 #@! TO.P,U1,8*
G04 #@! TO.N,Net-(Q4-Pad1)*
X83820000Y-133350000D03*
G04 #@! TO.P,U1,16*
G04 #@! TO.N,Net-(R1-Pad2)*
X66040000Y-125730000D03*
G04 #@! TD*
G04 #@! TO.P,U2,16*
G04 #@! TO.N,Net-(R5-Pad2)*
X87630000Y-125730000D03*
G04 #@! TO.P,U2,8*
G04 #@! TO.N,Net-(Q8-Pad1)*
X105410000Y-133350000D03*
G04 #@! TO.P,U2,15*
G04 #@! TO.N,Net-(D5-Pad2)*
X90170000Y-125730000D03*
G04 #@! TO.P,U2,7*
G04 #@! TO.N,/+9V*
X102870000Y-133350000D03*
G04 #@! TO.P,U2,14*
G04 #@! TO.N,Net-(R6-Pad2)*
X92710000Y-125730000D03*
G04 #@! TO.P,U2,6*
G04 #@! TO.N,Net-(Q7-Pad1)*
X100330000Y-133350000D03*
G04 #@! TO.P,U2,13*
G04 #@! TO.N,Net-(D6-Pad2)*
X95250000Y-125730000D03*
G04 #@! TO.P,U2,5*
G04 #@! TO.N,/+9V*
X97790000Y-133350000D03*
G04 #@! TO.P,U2,12*
G04 #@! TO.N,Net-(R7-Pad2)*
X97790000Y-125730000D03*
G04 #@! TO.P,U2,4*
G04 #@! TO.N,Net-(Q6-Pad1)*
X95250000Y-133350000D03*
G04 #@! TO.P,U2,11*
G04 #@! TO.N,Net-(D7-Pad2)*
X100330000Y-125730000D03*
G04 #@! TO.P,U2,3*
G04 #@! TO.N,/+9V*
X92710000Y-133350000D03*
G04 #@! TO.P,U2,10*
G04 #@! TO.N,Net-(R8-Pad2)*
X102870000Y-125730000D03*
G04 #@! TO.P,U2,2*
G04 #@! TO.N,Net-(Q5-Pad1)*
X90170000Y-133350000D03*
G04 #@! TO.P,U2,9*
G04 #@! TO.N,Net-(D8-Pad2)*
X105410000Y-125730000D03*
D20*
G04 #@! TO.P,U2,1*
G04 #@! TO.N,/+9V*
X87630000Y-133350000D03*
G04 #@! TD*
D22*
G04 #@! TO.P,Q3,1*
G04 #@! TO.N,Net-(Q3-Pad1)*
X74930000Y-176530000D03*
D23*
G04 #@! TO.P,Q3,2*
G04 #@! TO.N,/out2*
X77470000Y-176530000D03*
G04 #@! TO.P,Q3,3*
G04 #@! TO.N,/PWR_GND*
X80010000Y-176530000D03*
G04 #@! TD*
D24*
G04 #@! TO.P,Q4,1*
G04 #@! TO.N,Net-(Q4-Pad1)*
X83820000Y-171450000D03*
D25*
G04 #@! TO.P,Q4,2*
G04 #@! TO.N,/out3*
X83820000Y-168910000D03*
G04 #@! TO.P,Q4,3*
G04 #@! TO.N,/PWR_GND*
X83820000Y-166370000D03*
G04 #@! TD*
G04 #@! TO.P,Q2,3*
G04 #@! TO.N,/PWR_GND*
X83820000Y-153670000D03*
G04 #@! TO.P,Q2,2*
G04 #@! TO.N,/out1*
X83820000Y-156210000D03*
D24*
G04 #@! TO.P,Q2,1*
G04 #@! TO.N,Net-(Q2-Pad1)*
X83820000Y-158750000D03*
G04 #@! TD*
G04 #@! TO.P,Q5,1*
G04 #@! TO.N,Net-(Q5-Pad1)*
X88900000Y-166370000D03*
D25*
G04 #@! TO.P,Q5,2*
G04 #@! TO.N,/out4*
X88900000Y-168910000D03*
G04 #@! TO.P,Q5,3*
G04 #@! TO.N,/PWR_GND*
X88900000Y-171450000D03*
G04 #@! TD*
G04 #@! TO.P,Q1,3*
G04 #@! TO.N,/PWR_GND*
X83820000Y-140970000D03*
G04 #@! TO.P,Q1,2*
G04 #@! TO.N,/out0*
X83820000Y-143510000D03*
D24*
G04 #@! TO.P,Q1,1*
G04 #@! TO.N,Net-(Q1-Pad1)*
X83820000Y-146050000D03*
G04 #@! TD*
G04 #@! TO.P,Q6,1*
G04 #@! TO.N,Net-(Q6-Pad1)*
X88900000Y-153670000D03*
D25*
G04 #@! TO.P,Q6,2*
G04 #@! TO.N,/out5*
X88900000Y-156210000D03*
G04 #@! TO.P,Q6,3*
G04 #@! TO.N,/PWR_GND*
X88900000Y-158750000D03*
G04 #@! TD*
D22*
G04 #@! TO.P,Q7,1*
G04 #@! TO.N,Net-(Q7-Pad1)*
X92710000Y-176530000D03*
D23*
G04 #@! TO.P,Q7,2*
G04 #@! TO.N,/out6*
X95250000Y-176530000D03*
G04 #@! TO.P,Q7,3*
G04 #@! TO.N,/PWR_GND*
X97790000Y-176530000D03*
G04 #@! TD*
D24*
G04 #@! TO.P,Q8,1*
G04 #@! TO.N,Net-(Q8-Pad1)*
X88900000Y-140970000D03*
D25*
G04 #@! TO.P,Q8,2*
G04 #@! TO.N,/out7*
X88900000Y-143510000D03*
G04 #@! TO.P,Q8,3*
G04 #@! TO.N,/PWR_GND*
X88900000Y-146050000D03*
G04 #@! TD*
D26*
G04 #@! TO.N,/out2*
X77470000Y-176530000D02*
X77470000Y-178181000D01*
X76200000Y-179451000D02*
X76200000Y-181610000D01*
X77470000Y-178181000D02*
X76200000Y-179451000D01*
G04 #@! TO.N,/out3*
X83058000Y-177440847D02*
X81732523Y-178766324D01*
D27*
X81732523Y-180512549D02*
X81280000Y-180965072D01*
X81280000Y-180965072D02*
X81280000Y-181610000D01*
D26*
X81005152Y-169946848D02*
X81005152Y-172953152D01*
X81005152Y-172953152D02*
X83058000Y-175006000D01*
X83820000Y-168910000D02*
X82042000Y-168910000D01*
X81732523Y-178766324D02*
X81732523Y-180512549D01*
X82042000Y-168910000D02*
X81005152Y-169946848D01*
X83058000Y-175006000D02*
X83058000Y-177440847D01*
D27*
G04 #@! TO.N,/out4*
X86868000Y-181610000D02*
X86360000Y-181610000D01*
D26*
X90678000Y-168910000D02*
X91948000Y-170180000D01*
X90170000Y-178308000D02*
X86868000Y-181610000D01*
X88900000Y-168910000D02*
X90678000Y-168910000D01*
X91948000Y-172729498D02*
X90170000Y-174507498D01*
X91948000Y-170180000D02*
X91948000Y-172729498D01*
X90170000Y-174507498D02*
X90170000Y-178308000D01*
G04 #@! TO.N,/out6*
X95250000Y-176530000D02*
X95250000Y-180340000D01*
X95250000Y-180340000D02*
X96520000Y-181610000D01*
D28*
G04 #@! TO.N,Net-(Q1-Pad1)*
X83820000Y-146050000D02*
X81280000Y-146050000D01*
X83820000Y-146050000D02*
X83867500Y-146050000D01*
X68580000Y-133750000D02*
X68580000Y-133350000D01*
X85070000Y-146050000D02*
X85344000Y-145776000D01*
X83820000Y-146050000D02*
X85070000Y-146050000D01*
X85344000Y-139446000D02*
X83508010Y-137610010D01*
X85344000Y-145776000D02*
X85344000Y-139446000D01*
X83508010Y-137610010D02*
X72440010Y-137610010D01*
X72440010Y-137610010D02*
X68580000Y-133750000D01*
G04 #@! TO.N,Net-(Q2-Pad1)*
X83820000Y-158750000D02*
X81280000Y-158750000D01*
X73660000Y-133750000D02*
X73660000Y-133350000D01*
X83867500Y-158750000D02*
X85909990Y-156707510D01*
X83820000Y-137160000D02*
X77070000Y-137160000D01*
X83820000Y-158750000D02*
X83867500Y-158750000D01*
X85909990Y-156707510D02*
X85909990Y-139249990D01*
X85909990Y-139249990D02*
X83820000Y-137160000D01*
X77070000Y-137160000D02*
X73660000Y-133750000D01*
G04 #@! TO.N,Net-(Q3-Pad1)*
X74930000Y-176530000D02*
X64770000Y-176530000D01*
X64770000Y-176530000D02*
X63500000Y-175260000D01*
X63500000Y-175260000D02*
X63500000Y-132080000D01*
X63500000Y-132080000D02*
X64770000Y-130810000D01*
X77650000Y-130810000D02*
X78740000Y-131900000D01*
X64770000Y-130810000D02*
X77650000Y-130810000D01*
X78740000Y-131900000D02*
X78740000Y-133350000D01*
X78740000Y-133350000D02*
X78740000Y-135890000D01*
G04 #@! TO.N,Net-(Q4-Pad1)*
X83820000Y-134112000D02*
X83820000Y-133350000D01*
X86360000Y-136652000D02*
X83820000Y-134112000D01*
X86360000Y-168957500D02*
X86360000Y-136652000D01*
X83820000Y-171450000D02*
X83867500Y-171450000D01*
X83867500Y-171450000D02*
X86360000Y-168957500D01*
G04 #@! TO.N,Net-(Q5-Pad1)*
X88900000Y-165167500D02*
X88900000Y-166370000D01*
X86810010Y-163077510D02*
X88900000Y-165167500D01*
X87630000Y-135890000D02*
X86810010Y-136709990D01*
X86810010Y-136709990D02*
X86810010Y-163077510D01*
X88392000Y-135890000D02*
X87630000Y-135890000D01*
X90170000Y-133350000D02*
X90170000Y-134112000D01*
X90170000Y-134112000D02*
X88392000Y-135890000D01*
G04 #@! TO.N,Net-(Q6-Pad1)*
X91440000Y-153670000D02*
X88900000Y-153670000D01*
X95250000Y-133750000D02*
X95250000Y-133350000D01*
X96393000Y-134893000D02*
X95250000Y-133750000D01*
X88900000Y-153670000D02*
X87650000Y-153670000D01*
X96393000Y-136779000D02*
X96393000Y-134893000D01*
X88519000Y-137287000D02*
X95885000Y-137287000D01*
X87650000Y-153670000D02*
X87260020Y-153280020D01*
X87260020Y-153280020D02*
X87260020Y-138545980D01*
X87260020Y-138545980D02*
X88519000Y-137287000D01*
X95885000Y-137287000D02*
X96393000Y-136779000D01*
G04 #@! TO.N,Net-(Q7-Pad1)*
X100330000Y-135382000D02*
X99822000Y-135890000D01*
X100330000Y-133350000D02*
X100330000Y-135382000D01*
X109220000Y-130810000D02*
X102470000Y-130810000D01*
X109220000Y-174649980D02*
X109220000Y-130810000D01*
X108914990Y-174954990D02*
X109220000Y-174649980D01*
X96043811Y-174954990D02*
X108914990Y-174954990D01*
X93345000Y-176530000D02*
X93574990Y-176300010D01*
X100330000Y-132950000D02*
X100330000Y-133350000D01*
X92710000Y-176530000D02*
X93345000Y-176530000D01*
X93574990Y-176300010D02*
X93574990Y-175836189D01*
X102470000Y-130810000D02*
X100330000Y-132950000D01*
X94556189Y-174854990D02*
X95943811Y-174854990D01*
X93574990Y-175836189D02*
X94556189Y-174854990D01*
X95943811Y-174854990D02*
X96043811Y-174954990D01*
G04 #@! TO.N,Net-(Q8-Pad1)*
X88900000Y-140970000D02*
X91440000Y-140970000D01*
X91440000Y-138430000D02*
X88900000Y-140970000D01*
X101365000Y-137795000D02*
X92075000Y-137795000D01*
X92075000Y-137795000D02*
X91440000Y-138430000D01*
X105410000Y-133350000D02*
X105410000Y-133750000D01*
X105410000Y-133750000D02*
X101365000Y-137795000D01*
G04 #@! TD*
D29*
G04 #@! TO.N,/GNDD*
G36*
X108993001Y-117268025D02*
X108986962Y-117258987D01*
X108801013Y-117073038D01*
X108582359Y-116926939D01*
X108339405Y-116826304D01*
X108081486Y-116775000D01*
X107818514Y-116775000D01*
X107560595Y-116826304D01*
X107317641Y-116926939D01*
X107098987Y-117073038D01*
X106913038Y-117258987D01*
X106766939Y-117477641D01*
X106666304Y-117720595D01*
X106615000Y-117978514D01*
X106615000Y-118241486D01*
X106666304Y-118499405D01*
X106766939Y-118742359D01*
X106913038Y-118961013D01*
X107098987Y-119146962D01*
X107317641Y-119293061D01*
X107560595Y-119393696D01*
X107818514Y-119445000D01*
X108081486Y-119445000D01*
X108339405Y-119393696D01*
X108582359Y-119293061D01*
X108801013Y-119146962D01*
X108986962Y-118961013D01*
X108993001Y-118951975D01*
X108993001Y-121539000D01*
X106945000Y-121539000D01*
X106945000Y-120935750D01*
X106786250Y-120777000D01*
X105537000Y-120777000D01*
X105537000Y-120797000D01*
X105283000Y-120797000D01*
X105283000Y-120777000D01*
X104033750Y-120777000D01*
X103875000Y-120935750D01*
X103875000Y-121539000D01*
X101865000Y-121539000D01*
X101865000Y-120935750D01*
X101706250Y-120777000D01*
X100457000Y-120777000D01*
X100457000Y-120797000D01*
X100203000Y-120797000D01*
X100203000Y-120777000D01*
X98953750Y-120777000D01*
X98795000Y-120935750D01*
X98795000Y-121539000D01*
X96785000Y-121539000D01*
X96785000Y-120935750D01*
X96626250Y-120777000D01*
X95377000Y-120777000D01*
X95377000Y-120797000D01*
X95123000Y-120797000D01*
X95123000Y-120777000D01*
X93873750Y-120777000D01*
X93715000Y-120935750D01*
X93715000Y-121539000D01*
X91705000Y-121539000D01*
X91705000Y-120935750D01*
X91546250Y-120777000D01*
X90297000Y-120777000D01*
X90297000Y-120797000D01*
X90043000Y-120797000D01*
X90043000Y-120777000D01*
X88793750Y-120777000D01*
X88635000Y-120935750D01*
X88635000Y-121539000D01*
X85355000Y-121539000D01*
X85355000Y-120935750D01*
X85196250Y-120777000D01*
X83947000Y-120777000D01*
X83947000Y-120797000D01*
X83693000Y-120797000D01*
X83693000Y-120777000D01*
X82443750Y-120777000D01*
X82285000Y-120935750D01*
X82285000Y-121539000D01*
X80275000Y-121539000D01*
X80275000Y-120935750D01*
X80116250Y-120777000D01*
X78867000Y-120777000D01*
X78867000Y-120797000D01*
X78613000Y-120797000D01*
X78613000Y-120777000D01*
X77363750Y-120777000D01*
X77205000Y-120935750D01*
X77205000Y-121539000D01*
X75195000Y-121539000D01*
X75195000Y-120935750D01*
X75036250Y-120777000D01*
X73787000Y-120777000D01*
X73787000Y-120797000D01*
X73533000Y-120797000D01*
X73533000Y-120777000D01*
X72283750Y-120777000D01*
X72125000Y-120935750D01*
X72125000Y-121539000D01*
X70115000Y-121539000D01*
X70115000Y-120935750D01*
X69956250Y-120777000D01*
X68707000Y-120777000D01*
X68707000Y-120797000D01*
X68453000Y-120797000D01*
X68453000Y-120777000D01*
X67203750Y-120777000D01*
X67045000Y-120935750D01*
X67045000Y-121539000D01*
X63727000Y-121539000D01*
X63727000Y-119687458D01*
X67045000Y-119687458D01*
X67045000Y-120364250D01*
X67203750Y-120523000D01*
X68453000Y-120523000D01*
X68453000Y-119273750D01*
X68707000Y-119273750D01*
X68707000Y-120523000D01*
X69956250Y-120523000D01*
X70115000Y-120364250D01*
X70115000Y-119687458D01*
X72125000Y-119687458D01*
X72125000Y-120364250D01*
X72283750Y-120523000D01*
X73533000Y-120523000D01*
X73533000Y-119273750D01*
X73787000Y-119273750D01*
X73787000Y-120523000D01*
X75036250Y-120523000D01*
X75195000Y-120364250D01*
X75195000Y-119687458D01*
X77205000Y-119687458D01*
X77205000Y-120364250D01*
X77363750Y-120523000D01*
X78613000Y-120523000D01*
X78613000Y-119273750D01*
X78867000Y-119273750D01*
X78867000Y-120523000D01*
X80116250Y-120523000D01*
X80275000Y-120364250D01*
X80275000Y-119687458D01*
X82285000Y-119687458D01*
X82285000Y-120364250D01*
X82443750Y-120523000D01*
X83693000Y-120523000D01*
X83693000Y-119273750D01*
X83947000Y-119273750D01*
X83947000Y-120523000D01*
X85196250Y-120523000D01*
X85355000Y-120364250D01*
X85355000Y-119687458D01*
X88635000Y-119687458D01*
X88635000Y-120364250D01*
X88793750Y-120523000D01*
X90043000Y-120523000D01*
X90043000Y-119273750D01*
X90297000Y-119273750D01*
X90297000Y-120523000D01*
X91546250Y-120523000D01*
X91705000Y-120364250D01*
X91705000Y-119687458D01*
X93715000Y-119687458D01*
X93715000Y-120364250D01*
X93873750Y-120523000D01*
X95123000Y-120523000D01*
X95123000Y-119273750D01*
X95377000Y-119273750D01*
X95377000Y-120523000D01*
X96626250Y-120523000D01*
X96785000Y-120364250D01*
X96785000Y-119687458D01*
X98795000Y-119687458D01*
X98795000Y-120364250D01*
X98953750Y-120523000D01*
X100203000Y-120523000D01*
X100203000Y-119273750D01*
X100457000Y-119273750D01*
X100457000Y-120523000D01*
X101706250Y-120523000D01*
X101865000Y-120364250D01*
X101865000Y-119687458D01*
X103875000Y-119687458D01*
X103875000Y-120364250D01*
X104033750Y-120523000D01*
X105283000Y-120523000D01*
X105283000Y-119273750D01*
X105537000Y-119273750D01*
X105537000Y-120523000D01*
X106786250Y-120523000D01*
X106945000Y-120364250D01*
X106945000Y-119687458D01*
X106920597Y-119564777D01*
X106872730Y-119449215D01*
X106803237Y-119345211D01*
X106714789Y-119256763D01*
X106610785Y-119187270D01*
X106495223Y-119139403D01*
X106372542Y-119115000D01*
X105695750Y-119115000D01*
X105537000Y-119273750D01*
X105283000Y-119273750D01*
X105124250Y-119115000D01*
X104447458Y-119115000D01*
X104324777Y-119139403D01*
X104209215Y-119187270D01*
X104105211Y-119256763D01*
X104016763Y-119345211D01*
X103947270Y-119449215D01*
X103899403Y-119564777D01*
X103875000Y-119687458D01*
X101865000Y-119687458D01*
X101840597Y-119564777D01*
X101792730Y-119449215D01*
X101723237Y-119345211D01*
X101634789Y-119256763D01*
X101530785Y-119187270D01*
X101415223Y-119139403D01*
X101292542Y-119115000D01*
X100615750Y-119115000D01*
X100457000Y-119273750D01*
X100203000Y-119273750D01*
X100044250Y-119115000D01*
X99367458Y-119115000D01*
X99244777Y-119139403D01*
X99129215Y-119187270D01*
X99025211Y-119256763D01*
X98936763Y-119345211D01*
X98867270Y-119449215D01*
X98819403Y-119564777D01*
X98795000Y-119687458D01*
X96785000Y-119687458D01*
X96760597Y-119564777D01*
X96712730Y-119449215D01*
X96643237Y-119345211D01*
X96554789Y-119256763D01*
X96450785Y-119187270D01*
X96335223Y-119139403D01*
X96212542Y-119115000D01*
X95535750Y-119115000D01*
X95377000Y-119273750D01*
X95123000Y-119273750D01*
X94964250Y-119115000D01*
X94287458Y-119115000D01*
X94164777Y-119139403D01*
X94049215Y-119187270D01*
X93945211Y-119256763D01*
X93856763Y-119345211D01*
X93787270Y-119449215D01*
X93739403Y-119564777D01*
X93715000Y-119687458D01*
X91705000Y-119687458D01*
X91680597Y-119564777D01*
X91632730Y-119449215D01*
X91563237Y-119345211D01*
X91474789Y-119256763D01*
X91370785Y-119187270D01*
X91255223Y-119139403D01*
X91132542Y-119115000D01*
X90455750Y-119115000D01*
X90297000Y-119273750D01*
X90043000Y-119273750D01*
X89884250Y-119115000D01*
X89207458Y-119115000D01*
X89084777Y-119139403D01*
X88969215Y-119187270D01*
X88865211Y-119256763D01*
X88776763Y-119345211D01*
X88707270Y-119449215D01*
X88659403Y-119564777D01*
X88635000Y-119687458D01*
X85355000Y-119687458D01*
X85330597Y-119564777D01*
X85282730Y-119449215D01*
X85213237Y-119345211D01*
X85124789Y-119256763D01*
X85020785Y-119187270D01*
X84905223Y-119139403D01*
X84782542Y-119115000D01*
X84105750Y-119115000D01*
X83947000Y-119273750D01*
X83693000Y-119273750D01*
X83534250Y-119115000D01*
X82857458Y-119115000D01*
X82734777Y-119139403D01*
X82619215Y-119187270D01*
X82515211Y-119256763D01*
X82426763Y-119345211D01*
X82357270Y-119449215D01*
X82309403Y-119564777D01*
X82285000Y-119687458D01*
X80275000Y-119687458D01*
X80250597Y-119564777D01*
X80202730Y-119449215D01*
X80133237Y-119345211D01*
X80044789Y-119256763D01*
X79940785Y-119187270D01*
X79825223Y-119139403D01*
X79702542Y-119115000D01*
X79025750Y-119115000D01*
X78867000Y-119273750D01*
X78613000Y-119273750D01*
X78454250Y-119115000D01*
X77777458Y-119115000D01*
X77654777Y-119139403D01*
X77539215Y-119187270D01*
X77435211Y-119256763D01*
X77346763Y-119345211D01*
X77277270Y-119449215D01*
X77229403Y-119564777D01*
X77205000Y-119687458D01*
X75195000Y-119687458D01*
X75170597Y-119564777D01*
X75122730Y-119449215D01*
X75053237Y-119345211D01*
X74964789Y-119256763D01*
X74860785Y-119187270D01*
X74745223Y-119139403D01*
X74622542Y-119115000D01*
X73945750Y-119115000D01*
X73787000Y-119273750D01*
X73533000Y-119273750D01*
X73374250Y-119115000D01*
X72697458Y-119115000D01*
X72574777Y-119139403D01*
X72459215Y-119187270D01*
X72355211Y-119256763D01*
X72266763Y-119345211D01*
X72197270Y-119449215D01*
X72149403Y-119564777D01*
X72125000Y-119687458D01*
X70115000Y-119687458D01*
X70090597Y-119564777D01*
X70042730Y-119449215D01*
X69973237Y-119345211D01*
X69884789Y-119256763D01*
X69780785Y-119187270D01*
X69665223Y-119139403D01*
X69542542Y-119115000D01*
X68865750Y-119115000D01*
X68707000Y-119273750D01*
X68453000Y-119273750D01*
X68294250Y-119115000D01*
X67617458Y-119115000D01*
X67494777Y-119139403D01*
X67379215Y-119187270D01*
X67275211Y-119256763D01*
X67186763Y-119345211D01*
X67117270Y-119449215D01*
X67069403Y-119564777D01*
X67045000Y-119687458D01*
X63727000Y-119687458D01*
X63727000Y-117978514D01*
X64705000Y-117978514D01*
X64705000Y-118241486D01*
X64756304Y-118499405D01*
X64856939Y-118742359D01*
X65003038Y-118961013D01*
X65188987Y-119146962D01*
X65407641Y-119293061D01*
X65650595Y-119393696D01*
X65908514Y-119445000D01*
X66171486Y-119445000D01*
X66429405Y-119393696D01*
X66672359Y-119293061D01*
X66891013Y-119146962D01*
X67076962Y-118961013D01*
X67223061Y-118742359D01*
X67323696Y-118499405D01*
X67375000Y-118241486D01*
X67375000Y-117978514D01*
X69785000Y-117978514D01*
X69785000Y-118241486D01*
X69836304Y-118499405D01*
X69936939Y-118742359D01*
X70083038Y-118961013D01*
X70268987Y-119146962D01*
X70487641Y-119293061D01*
X70730595Y-119393696D01*
X70988514Y-119445000D01*
X71251486Y-119445000D01*
X71509405Y-119393696D01*
X71752359Y-119293061D01*
X71971013Y-119146962D01*
X72156962Y-118961013D01*
X72303061Y-118742359D01*
X72403696Y-118499405D01*
X72455000Y-118241486D01*
X72455000Y-117978514D01*
X74865000Y-117978514D01*
X74865000Y-118241486D01*
X74916304Y-118499405D01*
X75016939Y-118742359D01*
X75163038Y-118961013D01*
X75348987Y-119146962D01*
X75567641Y-119293061D01*
X75810595Y-119393696D01*
X76068514Y-119445000D01*
X76331486Y-119445000D01*
X76589405Y-119393696D01*
X76832359Y-119293061D01*
X77051013Y-119146962D01*
X77236962Y-118961013D01*
X77383061Y-118742359D01*
X77483696Y-118499405D01*
X77535000Y-118241486D01*
X77535000Y-117978514D01*
X79945000Y-117978514D01*
X79945000Y-118241486D01*
X79996304Y-118499405D01*
X80096939Y-118742359D01*
X80243038Y-118961013D01*
X80428987Y-119146962D01*
X80647641Y-119293061D01*
X80890595Y-119393696D01*
X81148514Y-119445000D01*
X81411486Y-119445000D01*
X81669405Y-119393696D01*
X81912359Y-119293061D01*
X82131013Y-119146962D01*
X82316962Y-118961013D01*
X82463061Y-118742359D01*
X82563696Y-118499405D01*
X82615000Y-118241486D01*
X82615000Y-117978514D01*
X86295000Y-117978514D01*
X86295000Y-118241486D01*
X86346304Y-118499405D01*
X86446939Y-118742359D01*
X86593038Y-118961013D01*
X86778987Y-119146962D01*
X86997641Y-119293061D01*
X87240595Y-119393696D01*
X87498514Y-119445000D01*
X87761486Y-119445000D01*
X88019405Y-119393696D01*
X88262359Y-119293061D01*
X88481013Y-119146962D01*
X88666962Y-118961013D01*
X88813061Y-118742359D01*
X88913696Y-118499405D01*
X88965000Y-118241486D01*
X88965000Y-117978514D01*
X91375000Y-117978514D01*
X91375000Y-118241486D01*
X91426304Y-118499405D01*
X91526939Y-118742359D01*
X91673038Y-118961013D01*
X91858987Y-119146962D01*
X92077641Y-119293061D01*
X92320595Y-119393696D01*
X92578514Y-119445000D01*
X92841486Y-119445000D01*
X93099405Y-119393696D01*
X93342359Y-119293061D01*
X93561013Y-119146962D01*
X93746962Y-118961013D01*
X93893061Y-118742359D01*
X93993696Y-118499405D01*
X94045000Y-118241486D01*
X94045000Y-117978514D01*
X96455000Y-117978514D01*
X96455000Y-118241486D01*
X96506304Y-118499405D01*
X96606939Y-118742359D01*
X96753038Y-118961013D01*
X96938987Y-119146962D01*
X97157641Y-119293061D01*
X97400595Y-119393696D01*
X97658514Y-119445000D01*
X97921486Y-119445000D01*
X98179405Y-119393696D01*
X98422359Y-119293061D01*
X98641013Y-119146962D01*
X98826962Y-118961013D01*
X98973061Y-118742359D01*
X99073696Y-118499405D01*
X99125000Y-118241486D01*
X99125000Y-117978514D01*
X101535000Y-117978514D01*
X101535000Y-118241486D01*
X101586304Y-118499405D01*
X101686939Y-118742359D01*
X101833038Y-118961013D01*
X102018987Y-119146962D01*
X102237641Y-119293061D01*
X102480595Y-119393696D01*
X102738514Y-119445000D01*
X103001486Y-119445000D01*
X103259405Y-119393696D01*
X103502359Y-119293061D01*
X103721013Y-119146962D01*
X103906962Y-118961013D01*
X104053061Y-118742359D01*
X104153696Y-118499405D01*
X104205000Y-118241486D01*
X104205000Y-117978514D01*
X104153696Y-117720595D01*
X104053061Y-117477641D01*
X103906962Y-117258987D01*
X103721013Y-117073038D01*
X103502359Y-116926939D01*
X103259405Y-116826304D01*
X103001486Y-116775000D01*
X102738514Y-116775000D01*
X102480595Y-116826304D01*
X102237641Y-116926939D01*
X102018987Y-117073038D01*
X101833038Y-117258987D01*
X101686939Y-117477641D01*
X101586304Y-117720595D01*
X101535000Y-117978514D01*
X99125000Y-117978514D01*
X99073696Y-117720595D01*
X98973061Y-117477641D01*
X98826962Y-117258987D01*
X98641013Y-117073038D01*
X98422359Y-116926939D01*
X98179405Y-116826304D01*
X97921486Y-116775000D01*
X97658514Y-116775000D01*
X97400595Y-116826304D01*
X97157641Y-116926939D01*
X96938987Y-117073038D01*
X96753038Y-117258987D01*
X96606939Y-117477641D01*
X96506304Y-117720595D01*
X96455000Y-117978514D01*
X94045000Y-117978514D01*
X93993696Y-117720595D01*
X93893061Y-117477641D01*
X93746962Y-117258987D01*
X93561013Y-117073038D01*
X93342359Y-116926939D01*
X93099405Y-116826304D01*
X92841486Y-116775000D01*
X92578514Y-116775000D01*
X92320595Y-116826304D01*
X92077641Y-116926939D01*
X91858987Y-117073038D01*
X91673038Y-117258987D01*
X91526939Y-117477641D01*
X91426304Y-117720595D01*
X91375000Y-117978514D01*
X88965000Y-117978514D01*
X88913696Y-117720595D01*
X88813061Y-117477641D01*
X88666962Y-117258987D01*
X88481013Y-117073038D01*
X88262359Y-116926939D01*
X88019405Y-116826304D01*
X87761486Y-116775000D01*
X87498514Y-116775000D01*
X87240595Y-116826304D01*
X86997641Y-116926939D01*
X86778987Y-117073038D01*
X86593038Y-117258987D01*
X86446939Y-117477641D01*
X86346304Y-117720595D01*
X86295000Y-117978514D01*
X82615000Y-117978514D01*
X82563696Y-117720595D01*
X82463061Y-117477641D01*
X82316962Y-117258987D01*
X82131013Y-117073038D01*
X81912359Y-116926939D01*
X81669405Y-116826304D01*
X81411486Y-116775000D01*
X81148514Y-116775000D01*
X80890595Y-116826304D01*
X80647641Y-116926939D01*
X80428987Y-117073038D01*
X80243038Y-117258987D01*
X80096939Y-117477641D01*
X79996304Y-117720595D01*
X79945000Y-117978514D01*
X77535000Y-117978514D01*
X77483696Y-117720595D01*
X77383061Y-117477641D01*
X77236962Y-117258987D01*
X77051013Y-117073038D01*
X76832359Y-116926939D01*
X76589405Y-116826304D01*
X76331486Y-116775000D01*
X76068514Y-116775000D01*
X75810595Y-116826304D01*
X75567641Y-116926939D01*
X75348987Y-117073038D01*
X75163038Y-117258987D01*
X75016939Y-117477641D01*
X74916304Y-117720595D01*
X74865000Y-117978514D01*
X72455000Y-117978514D01*
X72403696Y-117720595D01*
X72303061Y-117477641D01*
X72156962Y-117258987D01*
X71971013Y-117073038D01*
X71752359Y-116926939D01*
X71509405Y-116826304D01*
X71251486Y-116775000D01*
X70988514Y-116775000D01*
X70730595Y-116826304D01*
X70487641Y-116926939D01*
X70268987Y-117073038D01*
X70083038Y-117258987D01*
X69936939Y-117477641D01*
X69836304Y-117720595D01*
X69785000Y-117978514D01*
X67375000Y-117978514D01*
X67323696Y-117720595D01*
X67223061Y-117477641D01*
X67076962Y-117258987D01*
X66891013Y-117073038D01*
X66672359Y-116926939D01*
X66429405Y-116826304D01*
X66171486Y-116775000D01*
X65908514Y-116775000D01*
X65650595Y-116826304D01*
X65407641Y-116926939D01*
X65188987Y-117073038D01*
X65003038Y-117258987D01*
X64856939Y-117477641D01*
X64756304Y-117720595D01*
X64705000Y-117978514D01*
X63727000Y-117978514D01*
X63727000Y-114585750D01*
X73525000Y-114585750D01*
X73525000Y-115337542D01*
X73549403Y-115460223D01*
X73597270Y-115575785D01*
X73666763Y-115679789D01*
X73755211Y-115768237D01*
X73859215Y-115837730D01*
X73974777Y-115885597D01*
X74097458Y-115910000D01*
X74724250Y-115910000D01*
X74883000Y-115751250D01*
X74883000Y-114427000D01*
X73683750Y-114427000D01*
X73525000Y-114585750D01*
X63727000Y-114585750D01*
X63727000Y-113262458D01*
X73525000Y-113262458D01*
X73525000Y-114014250D01*
X73683750Y-114173000D01*
X74883000Y-114173000D01*
X74883000Y-112848750D01*
X75137000Y-112848750D01*
X75137000Y-114173000D01*
X75157000Y-114173000D01*
X75157000Y-114427000D01*
X75137000Y-114427000D01*
X75137000Y-115751250D01*
X75295750Y-115910000D01*
X75922542Y-115910000D01*
X76045223Y-115885597D01*
X76160785Y-115837730D01*
X76264789Y-115768237D01*
X76353237Y-115679789D01*
X76422730Y-115575785D01*
X76460451Y-115484718D01*
X76680987Y-115665706D01*
X76938967Y-115803599D01*
X77218890Y-115888513D01*
X77510000Y-115917185D01*
X77801111Y-115888513D01*
X78081034Y-115803599D01*
X78339014Y-115665706D01*
X78565134Y-115480134D01*
X78750706Y-115254014D01*
X78760000Y-115236626D01*
X78769294Y-115254014D01*
X78954866Y-115480134D01*
X79180987Y-115665706D01*
X79438967Y-115803599D01*
X79718890Y-115888513D01*
X80010000Y-115917185D01*
X80301111Y-115888513D01*
X80581034Y-115803599D01*
X80839014Y-115665706D01*
X81065134Y-115480134D01*
X81250706Y-115254014D01*
X81260000Y-115236626D01*
X81269294Y-115254014D01*
X81454866Y-115480134D01*
X81680987Y-115665706D01*
X81938967Y-115803599D01*
X82218890Y-115888513D01*
X82510000Y-115917185D01*
X82801111Y-115888513D01*
X83081034Y-115803599D01*
X83339014Y-115665706D01*
X83565134Y-115480134D01*
X83750706Y-115254014D01*
X83760000Y-115236626D01*
X83769294Y-115254014D01*
X83954866Y-115480134D01*
X84180987Y-115665706D01*
X84438967Y-115803599D01*
X84718890Y-115888513D01*
X85010000Y-115917185D01*
X85301111Y-115888513D01*
X85581034Y-115803599D01*
X85839014Y-115665706D01*
X86065134Y-115480134D01*
X86250706Y-115254014D01*
X86260000Y-115236626D01*
X86269294Y-115254014D01*
X86454866Y-115480134D01*
X86680987Y-115665706D01*
X86938967Y-115803599D01*
X87218890Y-115888513D01*
X87510000Y-115917185D01*
X87801111Y-115888513D01*
X88081034Y-115803599D01*
X88339014Y-115665706D01*
X88565134Y-115480134D01*
X88750706Y-115254014D01*
X88760000Y-115236626D01*
X88769294Y-115254014D01*
X88954866Y-115480134D01*
X89180987Y-115665706D01*
X89438967Y-115803599D01*
X89718890Y-115888513D01*
X90010000Y-115917185D01*
X90301111Y-115888513D01*
X90581034Y-115803599D01*
X90839014Y-115665706D01*
X91065134Y-115480134D01*
X91250706Y-115254014D01*
X91260000Y-115236626D01*
X91269294Y-115254014D01*
X91454866Y-115480134D01*
X91680987Y-115665706D01*
X91938967Y-115803599D01*
X92218890Y-115888513D01*
X92510000Y-115917185D01*
X92801111Y-115888513D01*
X93081034Y-115803599D01*
X93339014Y-115665706D01*
X93565134Y-115480134D01*
X93750706Y-115254014D01*
X93760000Y-115236626D01*
X93769294Y-115254014D01*
X93954866Y-115480134D01*
X94180987Y-115665706D01*
X94438967Y-115803599D01*
X94718890Y-115888513D01*
X95010000Y-115917185D01*
X95301111Y-115888513D01*
X95581034Y-115803599D01*
X95839014Y-115665706D01*
X96065134Y-115480134D01*
X96250706Y-115254014D01*
X96260000Y-115236626D01*
X96269294Y-115254014D01*
X96454866Y-115480134D01*
X96680987Y-115665706D01*
X96938967Y-115803599D01*
X97218890Y-115888513D01*
X97510000Y-115917185D01*
X97801111Y-115888513D01*
X98081034Y-115803599D01*
X98339014Y-115665706D01*
X98565134Y-115480134D01*
X98750706Y-115254014D01*
X98888599Y-114996033D01*
X98973513Y-114716110D01*
X98995000Y-114497949D01*
X98995000Y-114102050D01*
X98973513Y-113883889D01*
X98888599Y-113603966D01*
X98750706Y-113345986D01*
X98565134Y-113119866D01*
X98339013Y-112934294D01*
X98081033Y-112796401D01*
X97801110Y-112711487D01*
X97510000Y-112682815D01*
X97218889Y-112711487D01*
X96938966Y-112796401D01*
X96680986Y-112934294D01*
X96454866Y-113119866D01*
X96269294Y-113345987D01*
X96260000Y-113363374D01*
X96250706Y-113345986D01*
X96065134Y-113119866D01*
X95839013Y-112934294D01*
X95581033Y-112796401D01*
X95301110Y-112711487D01*
X95010000Y-112682815D01*
X94718889Y-112711487D01*
X94438966Y-112796401D01*
X94180986Y-112934294D01*
X93954866Y-113119866D01*
X93769294Y-113345987D01*
X93760000Y-113363374D01*
X93750706Y-113345986D01*
X93565134Y-113119866D01*
X93339013Y-112934294D01*
X93081033Y-112796401D01*
X92801110Y-112711487D01*
X92510000Y-112682815D01*
X92218889Y-112711487D01*
X91938966Y-112796401D01*
X91680986Y-112934294D01*
X91454866Y-113119866D01*
X91269294Y-113345987D01*
X91260000Y-113363374D01*
X91250706Y-113345986D01*
X91065134Y-113119866D01*
X90839013Y-112934294D01*
X90581033Y-112796401D01*
X90301110Y-112711487D01*
X90010000Y-112682815D01*
X89718889Y-112711487D01*
X89438966Y-112796401D01*
X89180986Y-112934294D01*
X88954866Y-113119866D01*
X88769294Y-113345987D01*
X88760000Y-113363374D01*
X88750706Y-113345986D01*
X88565134Y-113119866D01*
X88339013Y-112934294D01*
X88081033Y-112796401D01*
X87801110Y-112711487D01*
X87510000Y-112682815D01*
X87218889Y-112711487D01*
X86938966Y-112796401D01*
X86680986Y-112934294D01*
X86454866Y-113119866D01*
X86269294Y-113345987D01*
X86260000Y-113363374D01*
X86250706Y-113345986D01*
X86065134Y-113119866D01*
X85839013Y-112934294D01*
X85581033Y-112796401D01*
X85301110Y-112711487D01*
X85010000Y-112682815D01*
X84718889Y-112711487D01*
X84438966Y-112796401D01*
X84180986Y-112934294D01*
X83954866Y-113119866D01*
X83769294Y-113345987D01*
X83760000Y-113363374D01*
X83750706Y-113345986D01*
X83565134Y-113119866D01*
X83339013Y-112934294D01*
X83081033Y-112796401D01*
X82801110Y-112711487D01*
X82510000Y-112682815D01*
X82218889Y-112711487D01*
X81938966Y-112796401D01*
X81680986Y-112934294D01*
X81454866Y-113119866D01*
X81269294Y-113345987D01*
X81260000Y-113363374D01*
X81250706Y-113345986D01*
X81065134Y-113119866D01*
X80839013Y-112934294D01*
X80581033Y-112796401D01*
X80301110Y-112711487D01*
X80010000Y-112682815D01*
X79718889Y-112711487D01*
X79438966Y-112796401D01*
X79180986Y-112934294D01*
X78954866Y-113119866D01*
X78769294Y-113345987D01*
X78760000Y-113363374D01*
X78750706Y-113345986D01*
X78565134Y-113119866D01*
X78339013Y-112934294D01*
X78081033Y-112796401D01*
X77801110Y-112711487D01*
X77510000Y-112682815D01*
X77218889Y-112711487D01*
X76938966Y-112796401D01*
X76680986Y-112934294D01*
X76460451Y-113115282D01*
X76422730Y-113024215D01*
X76353237Y-112920211D01*
X76264789Y-112831763D01*
X76160785Y-112762270D01*
X76045223Y-112714403D01*
X75922542Y-112690000D01*
X75295750Y-112690000D01*
X75137000Y-112848750D01*
X74883000Y-112848750D01*
X74724250Y-112690000D01*
X74097458Y-112690000D01*
X73974777Y-112714403D01*
X73859215Y-112762270D01*
X73755211Y-112831763D01*
X73666763Y-112920211D01*
X73597270Y-113024215D01*
X73549403Y-113139777D01*
X73525000Y-113262458D01*
X63727000Y-113262458D01*
X63727000Y-112495000D01*
X108993001Y-112495000D01*
X108993001Y-117268025D01*
X108993001Y-117268025D01*
G37*
X108993001Y-117268025D02*
X108986962Y-117258987D01*
X108801013Y-117073038D01*
X108582359Y-116926939D01*
X108339405Y-116826304D01*
X108081486Y-116775000D01*
X107818514Y-116775000D01*
X107560595Y-116826304D01*
X107317641Y-116926939D01*
X107098987Y-117073038D01*
X106913038Y-117258987D01*
X106766939Y-117477641D01*
X106666304Y-117720595D01*
X106615000Y-117978514D01*
X106615000Y-118241486D01*
X106666304Y-118499405D01*
X106766939Y-118742359D01*
X106913038Y-118961013D01*
X107098987Y-119146962D01*
X107317641Y-119293061D01*
X107560595Y-119393696D01*
X107818514Y-119445000D01*
X108081486Y-119445000D01*
X108339405Y-119393696D01*
X108582359Y-119293061D01*
X108801013Y-119146962D01*
X108986962Y-118961013D01*
X108993001Y-118951975D01*
X108993001Y-121539000D01*
X106945000Y-121539000D01*
X106945000Y-120935750D01*
X106786250Y-120777000D01*
X105537000Y-120777000D01*
X105537000Y-120797000D01*
X105283000Y-120797000D01*
X105283000Y-120777000D01*
X104033750Y-120777000D01*
X103875000Y-120935750D01*
X103875000Y-121539000D01*
X101865000Y-121539000D01*
X101865000Y-120935750D01*
X101706250Y-120777000D01*
X100457000Y-120777000D01*
X100457000Y-120797000D01*
X100203000Y-120797000D01*
X100203000Y-120777000D01*
X98953750Y-120777000D01*
X98795000Y-120935750D01*
X98795000Y-121539000D01*
X96785000Y-121539000D01*
X96785000Y-120935750D01*
X96626250Y-120777000D01*
X95377000Y-120777000D01*
X95377000Y-120797000D01*
X95123000Y-120797000D01*
X95123000Y-120777000D01*
X93873750Y-120777000D01*
X93715000Y-120935750D01*
X93715000Y-121539000D01*
X91705000Y-121539000D01*
X91705000Y-120935750D01*
X91546250Y-120777000D01*
X90297000Y-120777000D01*
X90297000Y-120797000D01*
X90043000Y-120797000D01*
X90043000Y-120777000D01*
X88793750Y-120777000D01*
X88635000Y-120935750D01*
X88635000Y-121539000D01*
X85355000Y-121539000D01*
X85355000Y-120935750D01*
X85196250Y-120777000D01*
X83947000Y-120777000D01*
X83947000Y-120797000D01*
X83693000Y-120797000D01*
X83693000Y-120777000D01*
X82443750Y-120777000D01*
X82285000Y-120935750D01*
X82285000Y-121539000D01*
X80275000Y-121539000D01*
X80275000Y-120935750D01*
X80116250Y-120777000D01*
X78867000Y-120777000D01*
X78867000Y-120797000D01*
X78613000Y-120797000D01*
X78613000Y-120777000D01*
X77363750Y-120777000D01*
X77205000Y-120935750D01*
X77205000Y-121539000D01*
X75195000Y-121539000D01*
X75195000Y-120935750D01*
X75036250Y-120777000D01*
X73787000Y-120777000D01*
X73787000Y-120797000D01*
X73533000Y-120797000D01*
X73533000Y-120777000D01*
X72283750Y-120777000D01*
X72125000Y-120935750D01*
X72125000Y-121539000D01*
X70115000Y-121539000D01*
X70115000Y-120935750D01*
X69956250Y-120777000D01*
X68707000Y-120777000D01*
X68707000Y-120797000D01*
X68453000Y-120797000D01*
X68453000Y-120777000D01*
X67203750Y-120777000D01*
X67045000Y-120935750D01*
X67045000Y-121539000D01*
X63727000Y-121539000D01*
X63727000Y-119687458D01*
X67045000Y-119687458D01*
X67045000Y-120364250D01*
X67203750Y-120523000D01*
X68453000Y-120523000D01*
X68453000Y-119273750D01*
X68707000Y-119273750D01*
X68707000Y-120523000D01*
X69956250Y-120523000D01*
X70115000Y-120364250D01*
X70115000Y-119687458D01*
X72125000Y-119687458D01*
X72125000Y-120364250D01*
X72283750Y-120523000D01*
X73533000Y-120523000D01*
X73533000Y-119273750D01*
X73787000Y-119273750D01*
X73787000Y-120523000D01*
X75036250Y-120523000D01*
X75195000Y-120364250D01*
X75195000Y-119687458D01*
X77205000Y-119687458D01*
X77205000Y-120364250D01*
X77363750Y-120523000D01*
X78613000Y-120523000D01*
X78613000Y-119273750D01*
X78867000Y-119273750D01*
X78867000Y-120523000D01*
X80116250Y-120523000D01*
X80275000Y-120364250D01*
X80275000Y-119687458D01*
X82285000Y-119687458D01*
X82285000Y-120364250D01*
X82443750Y-120523000D01*
X83693000Y-120523000D01*
X83693000Y-119273750D01*
X83947000Y-119273750D01*
X83947000Y-120523000D01*
X85196250Y-120523000D01*
X85355000Y-120364250D01*
X85355000Y-119687458D01*
X88635000Y-119687458D01*
X88635000Y-120364250D01*
X88793750Y-120523000D01*
X90043000Y-120523000D01*
X90043000Y-119273750D01*
X90297000Y-119273750D01*
X90297000Y-120523000D01*
X91546250Y-120523000D01*
X91705000Y-120364250D01*
X91705000Y-119687458D01*
X93715000Y-119687458D01*
X93715000Y-120364250D01*
X93873750Y-120523000D01*
X95123000Y-120523000D01*
X95123000Y-119273750D01*
X95377000Y-119273750D01*
X95377000Y-120523000D01*
X96626250Y-120523000D01*
X96785000Y-120364250D01*
X96785000Y-119687458D01*
X98795000Y-119687458D01*
X98795000Y-120364250D01*
X98953750Y-120523000D01*
X100203000Y-120523000D01*
X100203000Y-119273750D01*
X100457000Y-119273750D01*
X100457000Y-120523000D01*
X101706250Y-120523000D01*
X101865000Y-120364250D01*
X101865000Y-119687458D01*
X103875000Y-119687458D01*
X103875000Y-120364250D01*
X104033750Y-120523000D01*
X105283000Y-120523000D01*
X105283000Y-119273750D01*
X105537000Y-119273750D01*
X105537000Y-120523000D01*
X106786250Y-120523000D01*
X106945000Y-120364250D01*
X106945000Y-119687458D01*
X106920597Y-119564777D01*
X106872730Y-119449215D01*
X106803237Y-119345211D01*
X106714789Y-119256763D01*
X106610785Y-119187270D01*
X106495223Y-119139403D01*
X106372542Y-119115000D01*
X105695750Y-119115000D01*
X105537000Y-119273750D01*
X105283000Y-119273750D01*
X105124250Y-119115000D01*
X104447458Y-119115000D01*
X104324777Y-119139403D01*
X104209215Y-119187270D01*
X104105211Y-119256763D01*
X104016763Y-119345211D01*
X103947270Y-119449215D01*
X103899403Y-119564777D01*
X103875000Y-119687458D01*
X101865000Y-119687458D01*
X101840597Y-119564777D01*
X101792730Y-119449215D01*
X101723237Y-119345211D01*
X101634789Y-119256763D01*
X101530785Y-119187270D01*
X101415223Y-119139403D01*
X101292542Y-119115000D01*
X100615750Y-119115000D01*
X100457000Y-119273750D01*
X100203000Y-119273750D01*
X100044250Y-119115000D01*
X99367458Y-119115000D01*
X99244777Y-119139403D01*
X99129215Y-119187270D01*
X99025211Y-119256763D01*
X98936763Y-119345211D01*
X98867270Y-119449215D01*
X98819403Y-119564777D01*
X98795000Y-119687458D01*
X96785000Y-119687458D01*
X96760597Y-119564777D01*
X96712730Y-119449215D01*
X96643237Y-119345211D01*
X96554789Y-119256763D01*
X96450785Y-119187270D01*
X96335223Y-119139403D01*
X96212542Y-119115000D01*
X95535750Y-119115000D01*
X95377000Y-119273750D01*
X95123000Y-119273750D01*
X94964250Y-119115000D01*
X94287458Y-119115000D01*
X94164777Y-119139403D01*
X94049215Y-119187270D01*
X93945211Y-119256763D01*
X93856763Y-119345211D01*
X93787270Y-119449215D01*
X93739403Y-119564777D01*
X93715000Y-119687458D01*
X91705000Y-119687458D01*
X91680597Y-119564777D01*
X91632730Y-119449215D01*
X91563237Y-119345211D01*
X91474789Y-119256763D01*
X91370785Y-119187270D01*
X91255223Y-119139403D01*
X91132542Y-119115000D01*
X90455750Y-119115000D01*
X90297000Y-119273750D01*
X90043000Y-119273750D01*
X89884250Y-119115000D01*
X89207458Y-119115000D01*
X89084777Y-119139403D01*
X88969215Y-119187270D01*
X88865211Y-119256763D01*
X88776763Y-119345211D01*
X88707270Y-119449215D01*
X88659403Y-119564777D01*
X88635000Y-119687458D01*
X85355000Y-119687458D01*
X85330597Y-119564777D01*
X85282730Y-119449215D01*
X85213237Y-119345211D01*
X85124789Y-119256763D01*
X85020785Y-119187270D01*
X84905223Y-119139403D01*
X84782542Y-119115000D01*
X84105750Y-119115000D01*
X83947000Y-119273750D01*
X83693000Y-119273750D01*
X83534250Y-119115000D01*
X82857458Y-119115000D01*
X82734777Y-119139403D01*
X82619215Y-119187270D01*
X82515211Y-119256763D01*
X82426763Y-119345211D01*
X82357270Y-119449215D01*
X82309403Y-119564777D01*
X82285000Y-119687458D01*
X80275000Y-119687458D01*
X80250597Y-119564777D01*
X80202730Y-119449215D01*
X80133237Y-119345211D01*
X80044789Y-119256763D01*
X79940785Y-119187270D01*
X79825223Y-119139403D01*
X79702542Y-119115000D01*
X79025750Y-119115000D01*
X78867000Y-119273750D01*
X78613000Y-119273750D01*
X78454250Y-119115000D01*
X77777458Y-119115000D01*
X77654777Y-119139403D01*
X77539215Y-119187270D01*
X77435211Y-119256763D01*
X77346763Y-119345211D01*
X77277270Y-119449215D01*
X77229403Y-119564777D01*
X77205000Y-119687458D01*
X75195000Y-119687458D01*
X75170597Y-119564777D01*
X75122730Y-119449215D01*
X75053237Y-119345211D01*
X74964789Y-119256763D01*
X74860785Y-119187270D01*
X74745223Y-119139403D01*
X74622542Y-119115000D01*
X73945750Y-119115000D01*
X73787000Y-119273750D01*
X73533000Y-119273750D01*
X73374250Y-119115000D01*
X72697458Y-119115000D01*
X72574777Y-119139403D01*
X72459215Y-119187270D01*
X72355211Y-119256763D01*
X72266763Y-119345211D01*
X72197270Y-119449215D01*
X72149403Y-119564777D01*
X72125000Y-119687458D01*
X70115000Y-119687458D01*
X70090597Y-119564777D01*
X70042730Y-119449215D01*
X69973237Y-119345211D01*
X69884789Y-119256763D01*
X69780785Y-119187270D01*
X69665223Y-119139403D01*
X69542542Y-119115000D01*
X68865750Y-119115000D01*
X68707000Y-119273750D01*
X68453000Y-119273750D01*
X68294250Y-119115000D01*
X67617458Y-119115000D01*
X67494777Y-119139403D01*
X67379215Y-119187270D01*
X67275211Y-119256763D01*
X67186763Y-119345211D01*
X67117270Y-119449215D01*
X67069403Y-119564777D01*
X67045000Y-119687458D01*
X63727000Y-119687458D01*
X63727000Y-117978514D01*
X64705000Y-117978514D01*
X64705000Y-118241486D01*
X64756304Y-118499405D01*
X64856939Y-118742359D01*
X65003038Y-118961013D01*
X65188987Y-119146962D01*
X65407641Y-119293061D01*
X65650595Y-119393696D01*
X65908514Y-119445000D01*
X66171486Y-119445000D01*
X66429405Y-119393696D01*
X66672359Y-119293061D01*
X66891013Y-119146962D01*
X67076962Y-118961013D01*
X67223061Y-118742359D01*
X67323696Y-118499405D01*
X67375000Y-118241486D01*
X67375000Y-117978514D01*
X69785000Y-117978514D01*
X69785000Y-118241486D01*
X69836304Y-118499405D01*
X69936939Y-118742359D01*
X70083038Y-118961013D01*
X70268987Y-119146962D01*
X70487641Y-119293061D01*
X70730595Y-119393696D01*
X70988514Y-119445000D01*
X71251486Y-119445000D01*
X71509405Y-119393696D01*
X71752359Y-119293061D01*
X71971013Y-119146962D01*
X72156962Y-118961013D01*
X72303061Y-118742359D01*
X72403696Y-118499405D01*
X72455000Y-118241486D01*
X72455000Y-117978514D01*
X74865000Y-117978514D01*
X74865000Y-118241486D01*
X74916304Y-118499405D01*
X75016939Y-118742359D01*
X75163038Y-118961013D01*
X75348987Y-119146962D01*
X75567641Y-119293061D01*
X75810595Y-119393696D01*
X76068514Y-119445000D01*
X76331486Y-119445000D01*
X76589405Y-119393696D01*
X76832359Y-119293061D01*
X77051013Y-119146962D01*
X77236962Y-118961013D01*
X77383061Y-118742359D01*
X77483696Y-118499405D01*
X77535000Y-118241486D01*
X77535000Y-117978514D01*
X79945000Y-117978514D01*
X79945000Y-118241486D01*
X79996304Y-118499405D01*
X80096939Y-118742359D01*
X80243038Y-118961013D01*
X80428987Y-119146962D01*
X80647641Y-119293061D01*
X80890595Y-119393696D01*
X81148514Y-119445000D01*
X81411486Y-119445000D01*
X81669405Y-119393696D01*
X81912359Y-119293061D01*
X82131013Y-119146962D01*
X82316962Y-118961013D01*
X82463061Y-118742359D01*
X82563696Y-118499405D01*
X82615000Y-118241486D01*
X82615000Y-117978514D01*
X86295000Y-117978514D01*
X86295000Y-118241486D01*
X86346304Y-118499405D01*
X86446939Y-118742359D01*
X86593038Y-118961013D01*
X86778987Y-119146962D01*
X86997641Y-119293061D01*
X87240595Y-119393696D01*
X87498514Y-119445000D01*
X87761486Y-119445000D01*
X88019405Y-119393696D01*
X88262359Y-119293061D01*
X88481013Y-119146962D01*
X88666962Y-118961013D01*
X88813061Y-118742359D01*
X88913696Y-118499405D01*
X88965000Y-118241486D01*
X88965000Y-117978514D01*
X91375000Y-117978514D01*
X91375000Y-118241486D01*
X91426304Y-118499405D01*
X91526939Y-118742359D01*
X91673038Y-118961013D01*
X91858987Y-119146962D01*
X92077641Y-119293061D01*
X92320595Y-119393696D01*
X92578514Y-119445000D01*
X92841486Y-119445000D01*
X93099405Y-119393696D01*
X93342359Y-119293061D01*
X93561013Y-119146962D01*
X93746962Y-118961013D01*
X93893061Y-118742359D01*
X93993696Y-118499405D01*
X94045000Y-118241486D01*
X94045000Y-117978514D01*
X96455000Y-117978514D01*
X96455000Y-118241486D01*
X96506304Y-118499405D01*
X96606939Y-118742359D01*
X96753038Y-118961013D01*
X96938987Y-119146962D01*
X97157641Y-119293061D01*
X97400595Y-119393696D01*
X97658514Y-119445000D01*
X97921486Y-119445000D01*
X98179405Y-119393696D01*
X98422359Y-119293061D01*
X98641013Y-119146962D01*
X98826962Y-118961013D01*
X98973061Y-118742359D01*
X99073696Y-118499405D01*
X99125000Y-118241486D01*
X99125000Y-117978514D01*
X101535000Y-117978514D01*
X101535000Y-118241486D01*
X101586304Y-118499405D01*
X101686939Y-118742359D01*
X101833038Y-118961013D01*
X102018987Y-119146962D01*
X102237641Y-119293061D01*
X102480595Y-119393696D01*
X102738514Y-119445000D01*
X103001486Y-119445000D01*
X103259405Y-119393696D01*
X103502359Y-119293061D01*
X103721013Y-119146962D01*
X103906962Y-118961013D01*
X104053061Y-118742359D01*
X104153696Y-118499405D01*
X104205000Y-118241486D01*
X104205000Y-117978514D01*
X104153696Y-117720595D01*
X104053061Y-117477641D01*
X103906962Y-117258987D01*
X103721013Y-117073038D01*
X103502359Y-116926939D01*
X103259405Y-116826304D01*
X103001486Y-116775000D01*
X102738514Y-116775000D01*
X102480595Y-116826304D01*
X102237641Y-116926939D01*
X102018987Y-117073038D01*
X101833038Y-117258987D01*
X101686939Y-117477641D01*
X101586304Y-117720595D01*
X101535000Y-117978514D01*
X99125000Y-117978514D01*
X99073696Y-117720595D01*
X98973061Y-117477641D01*
X98826962Y-117258987D01*
X98641013Y-117073038D01*
X98422359Y-116926939D01*
X98179405Y-116826304D01*
X97921486Y-116775000D01*
X97658514Y-116775000D01*
X97400595Y-116826304D01*
X97157641Y-116926939D01*
X96938987Y-117073038D01*
X96753038Y-117258987D01*
X96606939Y-117477641D01*
X96506304Y-117720595D01*
X96455000Y-117978514D01*
X94045000Y-117978514D01*
X93993696Y-117720595D01*
X93893061Y-117477641D01*
X93746962Y-117258987D01*
X93561013Y-117073038D01*
X93342359Y-116926939D01*
X93099405Y-116826304D01*
X92841486Y-116775000D01*
X92578514Y-116775000D01*
X92320595Y-116826304D01*
X92077641Y-116926939D01*
X91858987Y-117073038D01*
X91673038Y-117258987D01*
X91526939Y-117477641D01*
X91426304Y-117720595D01*
X91375000Y-117978514D01*
X88965000Y-117978514D01*
X88913696Y-117720595D01*
X88813061Y-117477641D01*
X88666962Y-117258987D01*
X88481013Y-117073038D01*
X88262359Y-116926939D01*
X88019405Y-116826304D01*
X87761486Y-116775000D01*
X87498514Y-116775000D01*
X87240595Y-116826304D01*
X86997641Y-116926939D01*
X86778987Y-117073038D01*
X86593038Y-117258987D01*
X86446939Y-117477641D01*
X86346304Y-117720595D01*
X86295000Y-117978514D01*
X82615000Y-117978514D01*
X82563696Y-117720595D01*
X82463061Y-117477641D01*
X82316962Y-117258987D01*
X82131013Y-117073038D01*
X81912359Y-116926939D01*
X81669405Y-116826304D01*
X81411486Y-116775000D01*
X81148514Y-116775000D01*
X80890595Y-116826304D01*
X80647641Y-116926939D01*
X80428987Y-117073038D01*
X80243038Y-117258987D01*
X80096939Y-117477641D01*
X79996304Y-117720595D01*
X79945000Y-117978514D01*
X77535000Y-117978514D01*
X77483696Y-117720595D01*
X77383061Y-117477641D01*
X77236962Y-117258987D01*
X77051013Y-117073038D01*
X76832359Y-116926939D01*
X76589405Y-116826304D01*
X76331486Y-116775000D01*
X76068514Y-116775000D01*
X75810595Y-116826304D01*
X75567641Y-116926939D01*
X75348987Y-117073038D01*
X75163038Y-117258987D01*
X75016939Y-117477641D01*
X74916304Y-117720595D01*
X74865000Y-117978514D01*
X72455000Y-117978514D01*
X72403696Y-117720595D01*
X72303061Y-117477641D01*
X72156962Y-117258987D01*
X71971013Y-117073038D01*
X71752359Y-116926939D01*
X71509405Y-116826304D01*
X71251486Y-116775000D01*
X70988514Y-116775000D01*
X70730595Y-116826304D01*
X70487641Y-116926939D01*
X70268987Y-117073038D01*
X70083038Y-117258987D01*
X69936939Y-117477641D01*
X69836304Y-117720595D01*
X69785000Y-117978514D01*
X67375000Y-117978514D01*
X67323696Y-117720595D01*
X67223061Y-117477641D01*
X67076962Y-117258987D01*
X66891013Y-117073038D01*
X66672359Y-116926939D01*
X66429405Y-116826304D01*
X66171486Y-116775000D01*
X65908514Y-116775000D01*
X65650595Y-116826304D01*
X65407641Y-116926939D01*
X65188987Y-117073038D01*
X65003038Y-117258987D01*
X64856939Y-117477641D01*
X64756304Y-117720595D01*
X64705000Y-117978514D01*
X63727000Y-117978514D01*
X63727000Y-114585750D01*
X73525000Y-114585750D01*
X73525000Y-115337542D01*
X73549403Y-115460223D01*
X73597270Y-115575785D01*
X73666763Y-115679789D01*
X73755211Y-115768237D01*
X73859215Y-115837730D01*
X73974777Y-115885597D01*
X74097458Y-115910000D01*
X74724250Y-115910000D01*
X74883000Y-115751250D01*
X74883000Y-114427000D01*
X73683750Y-114427000D01*
X73525000Y-114585750D01*
X63727000Y-114585750D01*
X63727000Y-113262458D01*
X73525000Y-113262458D01*
X73525000Y-114014250D01*
X73683750Y-114173000D01*
X74883000Y-114173000D01*
X74883000Y-112848750D01*
X75137000Y-112848750D01*
X75137000Y-114173000D01*
X75157000Y-114173000D01*
X75157000Y-114427000D01*
X75137000Y-114427000D01*
X75137000Y-115751250D01*
X75295750Y-115910000D01*
X75922542Y-115910000D01*
X76045223Y-115885597D01*
X76160785Y-115837730D01*
X76264789Y-115768237D01*
X76353237Y-115679789D01*
X76422730Y-115575785D01*
X76460451Y-115484718D01*
X76680987Y-115665706D01*
X76938967Y-115803599D01*
X77218890Y-115888513D01*
X77510000Y-115917185D01*
X77801111Y-115888513D01*
X78081034Y-115803599D01*
X78339014Y-115665706D01*
X78565134Y-115480134D01*
X78750706Y-115254014D01*
X78760000Y-115236626D01*
X78769294Y-115254014D01*
X78954866Y-115480134D01*
X79180987Y-115665706D01*
X79438967Y-115803599D01*
X79718890Y-115888513D01*
X80010000Y-115917185D01*
X80301111Y-115888513D01*
X80581034Y-115803599D01*
X80839014Y-115665706D01*
X81065134Y-115480134D01*
X81250706Y-115254014D01*
X81260000Y-115236626D01*
X81269294Y-115254014D01*
X81454866Y-115480134D01*
X81680987Y-115665706D01*
X81938967Y-115803599D01*
X82218890Y-115888513D01*
X82510000Y-115917185D01*
X82801111Y-115888513D01*
X83081034Y-115803599D01*
X83339014Y-115665706D01*
X83565134Y-115480134D01*
X83750706Y-115254014D01*
X83760000Y-115236626D01*
X83769294Y-115254014D01*
X83954866Y-115480134D01*
X84180987Y-115665706D01*
X84438967Y-115803599D01*
X84718890Y-115888513D01*
X85010000Y-115917185D01*
X85301111Y-115888513D01*
X85581034Y-115803599D01*
X85839014Y-115665706D01*
X86065134Y-115480134D01*
X86250706Y-115254014D01*
X86260000Y-115236626D01*
X86269294Y-115254014D01*
X86454866Y-115480134D01*
X86680987Y-115665706D01*
X86938967Y-115803599D01*
X87218890Y-115888513D01*
X87510000Y-115917185D01*
X87801111Y-115888513D01*
X88081034Y-115803599D01*
X88339014Y-115665706D01*
X88565134Y-115480134D01*
X88750706Y-115254014D01*
X88760000Y-115236626D01*
X88769294Y-115254014D01*
X88954866Y-115480134D01*
X89180987Y-115665706D01*
X89438967Y-115803599D01*
X89718890Y-115888513D01*
X90010000Y-115917185D01*
X90301111Y-115888513D01*
X90581034Y-115803599D01*
X90839014Y-115665706D01*
X91065134Y-115480134D01*
X91250706Y-115254014D01*
X91260000Y-115236626D01*
X91269294Y-115254014D01*
X91454866Y-115480134D01*
X91680987Y-115665706D01*
X91938967Y-115803599D01*
X92218890Y-115888513D01*
X92510000Y-115917185D01*
X92801111Y-115888513D01*
X93081034Y-115803599D01*
X93339014Y-115665706D01*
X93565134Y-115480134D01*
X93750706Y-115254014D01*
X93760000Y-115236626D01*
X93769294Y-115254014D01*
X93954866Y-115480134D01*
X94180987Y-115665706D01*
X94438967Y-115803599D01*
X94718890Y-115888513D01*
X95010000Y-115917185D01*
X95301111Y-115888513D01*
X95581034Y-115803599D01*
X95839014Y-115665706D01*
X96065134Y-115480134D01*
X96250706Y-115254014D01*
X96260000Y-115236626D01*
X96269294Y-115254014D01*
X96454866Y-115480134D01*
X96680987Y-115665706D01*
X96938967Y-115803599D01*
X97218890Y-115888513D01*
X97510000Y-115917185D01*
X97801111Y-115888513D01*
X98081034Y-115803599D01*
X98339014Y-115665706D01*
X98565134Y-115480134D01*
X98750706Y-115254014D01*
X98888599Y-114996033D01*
X98973513Y-114716110D01*
X98995000Y-114497949D01*
X98995000Y-114102050D01*
X98973513Y-113883889D01*
X98888599Y-113603966D01*
X98750706Y-113345986D01*
X98565134Y-113119866D01*
X98339013Y-112934294D01*
X98081033Y-112796401D01*
X97801110Y-112711487D01*
X97510000Y-112682815D01*
X97218889Y-112711487D01*
X96938966Y-112796401D01*
X96680986Y-112934294D01*
X96454866Y-113119866D01*
X96269294Y-113345987D01*
X96260000Y-113363374D01*
X96250706Y-113345986D01*
X96065134Y-113119866D01*
X95839013Y-112934294D01*
X95581033Y-112796401D01*
X95301110Y-112711487D01*
X95010000Y-112682815D01*
X94718889Y-112711487D01*
X94438966Y-112796401D01*
X94180986Y-112934294D01*
X93954866Y-113119866D01*
X93769294Y-113345987D01*
X93760000Y-113363374D01*
X93750706Y-113345986D01*
X93565134Y-113119866D01*
X93339013Y-112934294D01*
X93081033Y-112796401D01*
X92801110Y-112711487D01*
X92510000Y-112682815D01*
X92218889Y-112711487D01*
X91938966Y-112796401D01*
X91680986Y-112934294D01*
X91454866Y-113119866D01*
X91269294Y-113345987D01*
X91260000Y-113363374D01*
X91250706Y-113345986D01*
X91065134Y-113119866D01*
X90839013Y-112934294D01*
X90581033Y-112796401D01*
X90301110Y-112711487D01*
X90010000Y-112682815D01*
X89718889Y-112711487D01*
X89438966Y-112796401D01*
X89180986Y-112934294D01*
X88954866Y-113119866D01*
X88769294Y-113345987D01*
X88760000Y-113363374D01*
X88750706Y-113345986D01*
X88565134Y-113119866D01*
X88339013Y-112934294D01*
X88081033Y-112796401D01*
X87801110Y-112711487D01*
X87510000Y-112682815D01*
X87218889Y-112711487D01*
X86938966Y-112796401D01*
X86680986Y-112934294D01*
X86454866Y-113119866D01*
X86269294Y-113345987D01*
X86260000Y-113363374D01*
X86250706Y-113345986D01*
X86065134Y-113119866D01*
X85839013Y-112934294D01*
X85581033Y-112796401D01*
X85301110Y-112711487D01*
X85010000Y-112682815D01*
X84718889Y-112711487D01*
X84438966Y-112796401D01*
X84180986Y-112934294D01*
X83954866Y-113119866D01*
X83769294Y-113345987D01*
X83760000Y-113363374D01*
X83750706Y-113345986D01*
X83565134Y-113119866D01*
X83339013Y-112934294D01*
X83081033Y-112796401D01*
X82801110Y-112711487D01*
X82510000Y-112682815D01*
X82218889Y-112711487D01*
X81938966Y-112796401D01*
X81680986Y-112934294D01*
X81454866Y-113119866D01*
X81269294Y-113345987D01*
X81260000Y-113363374D01*
X81250706Y-113345986D01*
X81065134Y-113119866D01*
X80839013Y-112934294D01*
X80581033Y-112796401D01*
X80301110Y-112711487D01*
X80010000Y-112682815D01*
X79718889Y-112711487D01*
X79438966Y-112796401D01*
X79180986Y-112934294D01*
X78954866Y-113119866D01*
X78769294Y-113345987D01*
X78760000Y-113363374D01*
X78750706Y-113345986D01*
X78565134Y-113119866D01*
X78339013Y-112934294D01*
X78081033Y-112796401D01*
X77801110Y-112711487D01*
X77510000Y-112682815D01*
X77218889Y-112711487D01*
X76938966Y-112796401D01*
X76680986Y-112934294D01*
X76460451Y-113115282D01*
X76422730Y-113024215D01*
X76353237Y-112920211D01*
X76264789Y-112831763D01*
X76160785Y-112762270D01*
X76045223Y-112714403D01*
X75922542Y-112690000D01*
X75295750Y-112690000D01*
X75137000Y-112848750D01*
X74883000Y-112848750D01*
X74724250Y-112690000D01*
X74097458Y-112690000D01*
X73974777Y-112714403D01*
X73859215Y-112762270D01*
X73755211Y-112831763D01*
X73666763Y-112920211D01*
X73597270Y-113024215D01*
X73549403Y-113139777D01*
X73525000Y-113262458D01*
X63727000Y-113262458D01*
X63727000Y-112495000D01*
X108993001Y-112495000D01*
X108993001Y-117268025D01*
G04 #@! TO.N,/PWR_GND*
G36*
X88530476Y-170767725D02*
X88807403Y-170795000D01*
X89654129Y-170795000D01*
X89600247Y-172411459D01*
X88902582Y-173109124D01*
X88830655Y-173168153D01*
X88595097Y-173455181D01*
X88420061Y-173782651D01*
X88368179Y-173953683D01*
X88318638Y-174117000D01*
X88312275Y-174137975D01*
X88285000Y-174414902D01*
X88285000Y-174414909D01*
X88275881Y-174507498D01*
X88285000Y-174600088D01*
X88285001Y-177527206D01*
X86619731Y-179192477D01*
X86360000Y-179166896D01*
X86031643Y-179199236D01*
X85715904Y-179295015D01*
X85424918Y-179450550D01*
X85169866Y-179659866D01*
X84960550Y-179914919D01*
X84805015Y-180205905D01*
X84709236Y-180521644D01*
X84685000Y-180767719D01*
X84685000Y-182452282D01*
X84709236Y-182698357D01*
X84805016Y-183014096D01*
X84960551Y-183305082D01*
X85169867Y-183560134D01*
X85424919Y-183769450D01*
X85715905Y-183924985D01*
X86031644Y-184020764D01*
X86360000Y-184053104D01*
X86688357Y-184020764D01*
X87004096Y-183924985D01*
X87295082Y-183769450D01*
X87550134Y-183560134D01*
X87679163Y-183402912D01*
X90146146Y-183433749D01*
X90249867Y-183560134D01*
X90504919Y-183769450D01*
X90795905Y-183924985D01*
X91111644Y-184020764D01*
X91440000Y-184053104D01*
X91768357Y-184020764D01*
X92084096Y-183924985D01*
X92375082Y-183769450D01*
X92630134Y-183560134D01*
X92707579Y-183465767D01*
X95278799Y-183497907D01*
X95329867Y-183560134D01*
X95584919Y-183769450D01*
X95875905Y-183924985D01*
X96191644Y-184020764D01*
X96520000Y-184053104D01*
X96848357Y-184020764D01*
X97164096Y-183924985D01*
X97455082Y-183769450D01*
X97710134Y-183560134D01*
X97919450Y-183305082D01*
X98074985Y-183014096D01*
X98170764Y-182698357D01*
X98192251Y-182480189D01*
X98269938Y-182334848D01*
X98377724Y-181979523D01*
X98414119Y-181609999D01*
X98377724Y-181240475D01*
X98269938Y-180885151D01*
X98207169Y-180767719D01*
X99925000Y-180767719D01*
X99925000Y-182452282D01*
X99949236Y-182698357D01*
X100045016Y-183014096D01*
X100200551Y-183305082D01*
X100409867Y-183560134D01*
X100664919Y-183769450D01*
X100955905Y-183924985D01*
X101271644Y-184020764D01*
X101600000Y-184053104D01*
X101928357Y-184020764D01*
X102244096Y-183924985D01*
X102535082Y-183769450D01*
X102790134Y-183560134D01*
X102999450Y-183305082D01*
X103154985Y-183014096D01*
X103250764Y-182698357D01*
X103275000Y-182452282D01*
X103275000Y-180767718D01*
X103250764Y-180521643D01*
X103154985Y-180205904D01*
X102999450Y-179914918D01*
X102790134Y-179659866D01*
X102535081Y-179450550D01*
X102244095Y-179295015D01*
X101928356Y-179199236D01*
X101600000Y-179166896D01*
X101271643Y-179199236D01*
X100955904Y-179295015D01*
X100664918Y-179450550D01*
X100409866Y-179659866D01*
X100200550Y-179914919D01*
X100045015Y-180205905D01*
X99949236Y-180521644D01*
X99925000Y-180767719D01*
X98207169Y-180767719D01*
X98192251Y-180739810D01*
X98170764Y-180521643D01*
X98074985Y-180205904D01*
X97919450Y-179914918D01*
X97710134Y-179659866D01*
X97455081Y-179450550D01*
X97164095Y-179295015D01*
X97135000Y-179286189D01*
X97135000Y-176437403D01*
X97107725Y-176160476D01*
X96999939Y-175805152D01*
X96951746Y-175714990D01*
X108877668Y-175714990D01*
X108914990Y-175718666D01*
X108952312Y-175714990D01*
X108952323Y-175714990D01*
X108993000Y-175710984D01*
X108993000Y-185447000D01*
X77848206Y-185447000D01*
X77815700Y-182813948D01*
X77850764Y-182698357D01*
X77872251Y-182480192D01*
X77949939Y-182334848D01*
X78057725Y-181979524D01*
X78085000Y-181702597D01*
X78085000Y-180231792D01*
X78737423Y-179579370D01*
X78809345Y-179520345D01*
X78869358Y-179447220D01*
X79044902Y-179233318D01*
X79044903Y-179233317D01*
X79219939Y-178905848D01*
X79327725Y-178550524D01*
X79355000Y-178273597D01*
X79355000Y-178273588D01*
X79364119Y-178181001D01*
X79355000Y-178088414D01*
X79355000Y-176437403D01*
X79327725Y-176160476D01*
X79219939Y-175805152D01*
X79051578Y-175490172D01*
X80846947Y-175460739D01*
X81173000Y-175786792D01*
X81173001Y-176660054D01*
X80465105Y-177367950D01*
X80393178Y-177426979D01*
X80157620Y-177714007D01*
X79982584Y-178041477D01*
X79874798Y-178396801D01*
X79847523Y-178673728D01*
X79847523Y-178673735D01*
X79838404Y-178766324D01*
X79847523Y-178858913D01*
X79847523Y-179976708D01*
X79725015Y-180205905D01*
X79629236Y-180521644D01*
X79605000Y-180767719D01*
X79605000Y-182452282D01*
X79629236Y-182698357D01*
X79725016Y-183014096D01*
X79880551Y-183305082D01*
X80089867Y-183560134D01*
X80344919Y-183769450D01*
X80635905Y-183924985D01*
X80951644Y-184020764D01*
X81280000Y-184053104D01*
X81608357Y-184020764D01*
X81924096Y-183924985D01*
X82215082Y-183769450D01*
X82470134Y-183560134D01*
X82679450Y-183305082D01*
X82834985Y-183014096D01*
X82930764Y-182698357D01*
X82955000Y-182452282D01*
X82955000Y-181947805D01*
X83071868Y-181851894D01*
X83307426Y-181564866D01*
X83482462Y-181237397D01*
X83590248Y-180882073D01*
X83617523Y-180605146D01*
X83617523Y-179547116D01*
X84325418Y-178839221D01*
X84397345Y-178780192D01*
X84632903Y-178493164D01*
X84807939Y-178165695D01*
X84915725Y-177810371D01*
X84943000Y-177533444D01*
X84952120Y-177440847D01*
X84943000Y-177348250D01*
X84943000Y-175393591D01*
X85346082Y-175386983D01*
X85370815Y-175384137D01*
X85394517Y-175376520D01*
X85416279Y-175364426D01*
X85435262Y-175348319D01*
X85450739Y-175328817D01*
X85462114Y-175306671D01*
X85468949Y-175282731D01*
X85471000Y-175260000D01*
X85471000Y-170921301D01*
X85704301Y-170688000D01*
X88267657Y-170688000D01*
X88530476Y-170767725D01*
X88530476Y-170767725D01*
G37*
X88530476Y-170767725D02*
X88807403Y-170795000D01*
X89654129Y-170795000D01*
X89600247Y-172411459D01*
X88902582Y-173109124D01*
X88830655Y-173168153D01*
X88595097Y-173455181D01*
X88420061Y-173782651D01*
X88368179Y-173953683D01*
X88318638Y-174117000D01*
X88312275Y-174137975D01*
X88285000Y-174414902D01*
X88285000Y-174414909D01*
X88275881Y-174507498D01*
X88285000Y-174600088D01*
X88285001Y-177527206D01*
X86619731Y-179192477D01*
X86360000Y-179166896D01*
X86031643Y-179199236D01*
X85715904Y-179295015D01*
X85424918Y-179450550D01*
X85169866Y-179659866D01*
X84960550Y-179914919D01*
X84805015Y-180205905D01*
X84709236Y-180521644D01*
X84685000Y-180767719D01*
X84685000Y-182452282D01*
X84709236Y-182698357D01*
X84805016Y-183014096D01*
X84960551Y-183305082D01*
X85169867Y-183560134D01*
X85424919Y-183769450D01*
X85715905Y-183924985D01*
X86031644Y-184020764D01*
X86360000Y-184053104D01*
X86688357Y-184020764D01*
X87004096Y-183924985D01*
X87295082Y-183769450D01*
X87550134Y-183560134D01*
X87679163Y-183402912D01*
X90146146Y-183433749D01*
X90249867Y-183560134D01*
X90504919Y-183769450D01*
X90795905Y-183924985D01*
X91111644Y-184020764D01*
X91440000Y-184053104D01*
X91768357Y-184020764D01*
X92084096Y-183924985D01*
X92375082Y-183769450D01*
X92630134Y-183560134D01*
X92707579Y-183465767D01*
X95278799Y-183497907D01*
X95329867Y-183560134D01*
X95584919Y-183769450D01*
X95875905Y-183924985D01*
X96191644Y-184020764D01*
X96520000Y-184053104D01*
X96848357Y-184020764D01*
X97164096Y-183924985D01*
X97455082Y-183769450D01*
X97710134Y-183560134D01*
X97919450Y-183305082D01*
X98074985Y-183014096D01*
X98170764Y-182698357D01*
X98192251Y-182480189D01*
X98269938Y-182334848D01*
X98377724Y-181979523D01*
X98414119Y-181609999D01*
X98377724Y-181240475D01*
X98269938Y-180885151D01*
X98207169Y-180767719D01*
X99925000Y-180767719D01*
X99925000Y-182452282D01*
X99949236Y-182698357D01*
X100045016Y-183014096D01*
X100200551Y-183305082D01*
X100409867Y-183560134D01*
X100664919Y-183769450D01*
X100955905Y-183924985D01*
X101271644Y-184020764D01*
X101600000Y-184053104D01*
X101928357Y-184020764D01*
X102244096Y-183924985D01*
X102535082Y-183769450D01*
X102790134Y-183560134D01*
X102999450Y-183305082D01*
X103154985Y-183014096D01*
X103250764Y-182698357D01*
X103275000Y-182452282D01*
X103275000Y-180767718D01*
X103250764Y-180521643D01*
X103154985Y-180205904D01*
X102999450Y-179914918D01*
X102790134Y-179659866D01*
X102535081Y-179450550D01*
X102244095Y-179295015D01*
X101928356Y-179199236D01*
X101600000Y-179166896D01*
X101271643Y-179199236D01*
X100955904Y-179295015D01*
X100664918Y-179450550D01*
X100409866Y-179659866D01*
X100200550Y-179914919D01*
X100045015Y-180205905D01*
X99949236Y-180521644D01*
X99925000Y-180767719D01*
X98207169Y-180767719D01*
X98192251Y-180739810D01*
X98170764Y-180521643D01*
X98074985Y-180205904D01*
X97919450Y-179914918D01*
X97710134Y-179659866D01*
X97455081Y-179450550D01*
X97164095Y-179295015D01*
X97135000Y-179286189D01*
X97135000Y-176437403D01*
X97107725Y-176160476D01*
X96999939Y-175805152D01*
X96951746Y-175714990D01*
X108877668Y-175714990D01*
X108914990Y-175718666D01*
X108952312Y-175714990D01*
X108952323Y-175714990D01*
X108993000Y-175710984D01*
X108993000Y-185447000D01*
X77848206Y-185447000D01*
X77815700Y-182813948D01*
X77850764Y-182698357D01*
X77872251Y-182480192D01*
X77949939Y-182334848D01*
X78057725Y-181979524D01*
X78085000Y-181702597D01*
X78085000Y-180231792D01*
X78737423Y-179579370D01*
X78809345Y-179520345D01*
X78869358Y-179447220D01*
X79044902Y-179233318D01*
X79044903Y-179233317D01*
X79219939Y-178905848D01*
X79327725Y-178550524D01*
X79355000Y-178273597D01*
X79355000Y-178273588D01*
X79364119Y-178181001D01*
X79355000Y-178088414D01*
X79355000Y-176437403D01*
X79327725Y-176160476D01*
X79219939Y-175805152D01*
X79051578Y-175490172D01*
X80846947Y-175460739D01*
X81173000Y-175786792D01*
X81173001Y-176660054D01*
X80465105Y-177367950D01*
X80393178Y-177426979D01*
X80157620Y-177714007D01*
X79982584Y-178041477D01*
X79874798Y-178396801D01*
X79847523Y-178673728D01*
X79847523Y-178673735D01*
X79838404Y-178766324D01*
X79847523Y-178858913D01*
X79847523Y-179976708D01*
X79725015Y-180205905D01*
X79629236Y-180521644D01*
X79605000Y-180767719D01*
X79605000Y-182452282D01*
X79629236Y-182698357D01*
X79725016Y-183014096D01*
X79880551Y-183305082D01*
X80089867Y-183560134D01*
X80344919Y-183769450D01*
X80635905Y-183924985D01*
X80951644Y-184020764D01*
X81280000Y-184053104D01*
X81608357Y-184020764D01*
X81924096Y-183924985D01*
X82215082Y-183769450D01*
X82470134Y-183560134D01*
X82679450Y-183305082D01*
X82834985Y-183014096D01*
X82930764Y-182698357D01*
X82955000Y-182452282D01*
X82955000Y-181947805D01*
X83071868Y-181851894D01*
X83307426Y-181564866D01*
X83482462Y-181237397D01*
X83590248Y-180882073D01*
X83617523Y-180605146D01*
X83617523Y-179547116D01*
X84325418Y-178839221D01*
X84397345Y-178780192D01*
X84632903Y-178493164D01*
X84807939Y-178165695D01*
X84915725Y-177810371D01*
X84943000Y-177533444D01*
X84952120Y-177440847D01*
X84943000Y-177348250D01*
X84943000Y-175393591D01*
X85346082Y-175386983D01*
X85370815Y-175384137D01*
X85394517Y-175376520D01*
X85416279Y-175364426D01*
X85435262Y-175348319D01*
X85450739Y-175328817D01*
X85462114Y-175306671D01*
X85468949Y-175282731D01*
X85471000Y-175260000D01*
X85471000Y-170921301D01*
X85704301Y-170688000D01*
X88267657Y-170688000D01*
X88530476Y-170767725D01*
G04 #@! TD*
M02*
