M48
;DRILL file {KiCad 5.0.0} date Thu Oct 18 22:04:30 2018
;FORMAT={-:-/ absolute / inch / decimal}
FMAT,2
INCH,TZ
T1C0.0276
T2C0.0315
T3C0.0354
T4C0.0374
T5C0.0433
T6C0.0551
%
G90
G05
M72
T1
X3.73Y-5.35
X3.93Y-5.35
X2.8Y-4.65
X2.8Y-4.85
X3.2Y-6.05
X3.2Y-6.25
X2.6Y-4.65
X2.6Y-4.85
X3.45Y-4.65
X3.45Y-4.85
X3.6Y-6.05
X3.6Y-6.25
X3.45Y-5.35
X3.65Y-5.35
X3.2Y-5.55
X3.2Y-5.75
X3.65Y-4.65
X3.65Y-4.85
X2.89Y-5.35
X3.09Y-5.35
X3.17Y-5.35
X3.37Y-5.35
X3.85Y-4.65
X3.85Y-4.85
X3.Y-4.65
X3.Y-4.85
X4.05Y-4.65
X4.05Y-4.85
X3.6Y-5.55
X3.6Y-5.75
X3.2Y-4.65
X3.2Y-4.85
X4.25Y-4.65
X4.25Y-4.85
T2
X3.45Y-4.95
X3.45Y-5.25
X3.55Y-4.95
X3.55Y-5.25
X3.65Y-4.95
X3.65Y-5.25
X3.75Y-4.95
X3.75Y-5.25
X3.85Y-4.95
X3.85Y-5.25
X3.95Y-4.95
X3.95Y-5.25
X4.05Y-4.95
X4.05Y-5.25
X4.15Y-4.95
X4.15Y-5.25
X2.6Y-4.95
X2.6Y-5.25
X2.7Y-4.95
X2.7Y-5.25
X2.8Y-4.95
X2.8Y-5.25
X2.9Y-4.95
X2.9Y-5.25
X3.Y-4.95
X3.Y-5.25
X3.1Y-4.95
X3.1Y-5.25
X3.2Y-4.95
X3.2Y-5.25
X3.3Y-4.95
X3.3Y-5.25
X4.25Y-4.95
X4.25Y-5.25
T3
X3.55Y-4.75
X3.55Y-4.85
X2.7Y-4.75
X2.7Y-4.85
X3.1Y-4.75
X3.1Y-4.85
X3.75Y-4.75
X3.75Y-4.85
X3.95Y-4.75
X3.95Y-4.85
X3.3Y-4.75
X3.3Y-4.85
X2.9Y-4.75
X2.9Y-4.85
X4.15Y-4.75
X4.15Y-4.85
T4
X2.9531Y-4.5
X3.0516Y-4.5
X3.15Y-4.5
X3.2484Y-4.5
X3.3469Y-4.5
X3.4453Y-4.5
X3.5437Y-4.5
X3.6421Y-4.5
X3.7406Y-4.5
X3.839Y-4.5
T5
X3.3Y-5.55
X3.3Y-5.65
X3.3Y-5.75
X3.3Y-6.05
X3.3Y-6.15
X3.3Y-6.25
X3.5Y-6.05
X3.5Y-6.15
X3.5Y-6.25
X3.5Y-5.55
X3.5Y-5.65
X3.5Y-5.75
X3.5Y-6.55
X3.5Y-6.65
X3.5Y-6.75
X3.3Y-6.55
X3.3Y-6.65
X3.3Y-6.75
X2.95Y-6.95
X3.05Y-6.95
X3.15Y-6.95
X3.65Y-6.95
X3.75Y-6.95
X3.85Y-6.95
T6
X2.6Y-7.15
X2.8Y-7.15
X3.Y-7.15
X3.2Y-7.15
X3.4Y-7.15
X3.6Y-7.15
X3.8Y-7.15
X4.Y-7.15
X4.2Y-7.15
T0
M30
