G04 #@! TF.GenerationSoftware,KiCad,Pcbnew,5.0.0*
G04 #@! TF.CreationDate,2018-10-18T22:04:33+02:00*
G04 #@! TF.ProjectId,module_8x_100VDC_16A_out,6D6F64756C655F38785F313030564443,rev?*
G04 #@! TF.SameCoordinates,Original*
G04 #@! TF.FileFunction,Legend,Top*
G04 #@! TF.FilePolarity,Positive*
%FSLAX46Y46*%
G04 Gerber Fmt 4.6, Leading zero omitted, Abs format (unit mm)*
G04 Created by KiCad (PCBNEW 5.0.0) date Thu Oct 18 22:04:33 2018*
%MOMM*%
%LPD*%
G01*
G04 APERTURE LIST*
%ADD10C,0.120000*%
%ADD11C,0.150000*%
G04 APERTURE END LIST*
D10*
G04 #@! TO.C,D1*
X69816000Y-120360000D02*
X69660000Y-120360000D01*
X67500000Y-120360000D02*
X67344000Y-120360000D01*
X69658608Y-123592335D02*
G75*
G03X69815516Y-120360000I-1078608J1672335D01*
G01*
X67501392Y-123592335D02*
G75*
G02X67344484Y-120360000I1078608J1672335D01*
G01*
X69659837Y-122961130D02*
G75*
G03X69660000Y-120879039I-1079837J1041130D01*
G01*
X67500163Y-122961130D02*
G75*
G02X67500000Y-120879039I1079837J1041130D01*
G01*
G04 #@! TO.C,D2*
X74896000Y-120360000D02*
X74740000Y-120360000D01*
X72580000Y-120360000D02*
X72424000Y-120360000D01*
X74738608Y-123592335D02*
G75*
G03X74895516Y-120360000I-1078608J1672335D01*
G01*
X72581392Y-123592335D02*
G75*
G02X72424484Y-120360000I1078608J1672335D01*
G01*
X74739837Y-122961130D02*
G75*
G03X74740000Y-120879039I-1079837J1041130D01*
G01*
X72580163Y-122961130D02*
G75*
G02X72580000Y-120879039I1079837J1041130D01*
G01*
G04 #@! TO.C,D3*
X77660163Y-122961130D02*
G75*
G02X77660000Y-120879039I1079837J1041130D01*
G01*
X79819837Y-122961130D02*
G75*
G03X79820000Y-120879039I-1079837J1041130D01*
G01*
X77661392Y-123592335D02*
G75*
G02X77504484Y-120360000I1078608J1672335D01*
G01*
X79818608Y-123592335D02*
G75*
G03X79975516Y-120360000I-1078608J1672335D01*
G01*
X77660000Y-120360000D02*
X77504000Y-120360000D01*
X79976000Y-120360000D02*
X79820000Y-120360000D01*
G04 #@! TO.C,D4*
X85056000Y-120360000D02*
X84900000Y-120360000D01*
X82740000Y-120360000D02*
X82584000Y-120360000D01*
X84898608Y-123592335D02*
G75*
G03X85055516Y-120360000I-1078608J1672335D01*
G01*
X82741392Y-123592335D02*
G75*
G02X82584484Y-120360000I1078608J1672335D01*
G01*
X84899837Y-122961130D02*
G75*
G03X84900000Y-120879039I-1079837J1041130D01*
G01*
X82740163Y-122961130D02*
G75*
G02X82740000Y-120879039I1079837J1041130D01*
G01*
G04 #@! TO.C,D5*
X89090163Y-122961130D02*
G75*
G02X89090000Y-120879039I1079837J1041130D01*
G01*
X91249837Y-122961130D02*
G75*
G03X91250000Y-120879039I-1079837J1041130D01*
G01*
X89091392Y-123592335D02*
G75*
G02X88934484Y-120360000I1078608J1672335D01*
G01*
X91248608Y-123592335D02*
G75*
G03X91405516Y-120360000I-1078608J1672335D01*
G01*
X89090000Y-120360000D02*
X88934000Y-120360000D01*
X91406000Y-120360000D02*
X91250000Y-120360000D01*
G04 #@! TO.C,D6*
X96486000Y-120360000D02*
X96330000Y-120360000D01*
X94170000Y-120360000D02*
X94014000Y-120360000D01*
X96328608Y-123592335D02*
G75*
G03X96485516Y-120360000I-1078608J1672335D01*
G01*
X94171392Y-123592335D02*
G75*
G02X94014484Y-120360000I1078608J1672335D01*
G01*
X96329837Y-122961130D02*
G75*
G03X96330000Y-120879039I-1079837J1041130D01*
G01*
X94170163Y-122961130D02*
G75*
G02X94170000Y-120879039I1079837J1041130D01*
G01*
G04 #@! TO.C,D7*
X99250163Y-122961130D02*
G75*
G02X99250000Y-120879039I1079837J1041130D01*
G01*
X101409837Y-122961130D02*
G75*
G03X101410000Y-120879039I-1079837J1041130D01*
G01*
X99251392Y-123592335D02*
G75*
G02X99094484Y-120360000I1078608J1672335D01*
G01*
X101408608Y-123592335D02*
G75*
G03X101565516Y-120360000I-1078608J1672335D01*
G01*
X99250000Y-120360000D02*
X99094000Y-120360000D01*
X101566000Y-120360000D02*
X101410000Y-120360000D01*
G04 #@! TO.C,D8*
X104330163Y-122961130D02*
G75*
G02X104330000Y-120879039I1079837J1041130D01*
G01*
X106489837Y-122961130D02*
G75*
G03X106490000Y-120879039I-1079837J1041130D01*
G01*
X104331392Y-123592335D02*
G75*
G02X104174484Y-120360000I1078608J1672335D01*
G01*
X106488608Y-123592335D02*
G75*
G03X106645516Y-120360000I-1078608J1672335D01*
G01*
X104330000Y-120360000D02*
X104174000Y-120360000D01*
X106646000Y-120360000D02*
X106490000Y-120360000D01*
G04 #@! TO.C,D9*
X109070000Y-127420000D02*
X106830000Y-127420000D01*
X106830000Y-127420000D02*
X106830000Y-131660000D01*
X106830000Y-131660000D02*
X109070000Y-131660000D01*
X109070000Y-131660000D02*
X109070000Y-127420000D01*
X107950000Y-126770000D02*
X107950000Y-127420000D01*
X107950000Y-132310000D02*
X107950000Y-131660000D01*
X109070000Y-128140000D02*
X106830000Y-128140000D01*
X109070000Y-128260000D02*
X106830000Y-128260000D01*
X109070000Y-128020000D02*
X106830000Y-128020000D01*
G04 #@! TO.C,J1*
X72450000Y-111840000D02*
X72450000Y-117810000D01*
X72450000Y-117810000D02*
X100070000Y-117810000D01*
X100070000Y-117810000D02*
X100070000Y-111840000D01*
X100070000Y-111840000D02*
X72450000Y-111840000D01*
X75760000Y-111850000D02*
X75760000Y-112600000D01*
X75760000Y-112600000D02*
X96760000Y-112600000D01*
X96760000Y-112600000D02*
X96760000Y-111850000D01*
X96760000Y-111850000D02*
X75760000Y-111850000D01*
X72460000Y-111850000D02*
X72460000Y-112600000D01*
X72460000Y-112600000D02*
X74260000Y-112600000D01*
X74260000Y-112600000D02*
X74260000Y-111850000D01*
X74260000Y-111850000D02*
X72460000Y-111850000D01*
X98260000Y-111850000D02*
X98260000Y-112600000D01*
X98260000Y-112600000D02*
X100060000Y-112600000D01*
X100060000Y-112600000D02*
X100060000Y-111850000D01*
X100060000Y-111850000D02*
X98260000Y-111850000D01*
X72460000Y-114100000D02*
X73210000Y-114100000D01*
X73210000Y-114100000D02*
X73210000Y-117050000D01*
X73210000Y-117050000D02*
X86260000Y-117050000D01*
X100060000Y-114100000D02*
X99310000Y-114100000D01*
X99310000Y-114100000D02*
X99310000Y-117050000D01*
X99310000Y-117050000D02*
X86260000Y-117050000D01*
X73410000Y-111550000D02*
X72160000Y-111550000D01*
X72160000Y-111550000D02*
X72160000Y-112800000D01*
G04 #@! TO.C,J2*
X68026841Y-183825821D02*
G75*
G02X64040000Y-183810000I-1986841J1665821D01*
G01*
X73106841Y-183825821D02*
G75*
G02X69120000Y-183810000I-1986841J1665821D01*
G01*
X78186841Y-183825821D02*
G75*
G02X74200000Y-183810000I-1986841J1665821D01*
G01*
X83266841Y-183825821D02*
G75*
G02X79280000Y-183810000I-1986841J1665821D01*
G01*
X88346841Y-183825821D02*
G75*
G02X84360000Y-183810000I-1986841J1665821D01*
G01*
X93426841Y-183825821D02*
G75*
G02X89440000Y-183810000I-1986841J1665821D01*
G01*
X98506841Y-183825821D02*
G75*
G02X94520000Y-183810000I-1986841J1665821D01*
G01*
X103586841Y-183825821D02*
G75*
G02X99600000Y-183810000I-1986841J1665821D01*
G01*
X108666841Y-183825821D02*
G75*
G02X104680000Y-183810000I-1986841J1665821D01*
G01*
X62420000Y-176730000D02*
X62420000Y-185490000D01*
X62420000Y-185490000D02*
X110300000Y-185490000D01*
X110300000Y-185490000D02*
X110300000Y-176730000D01*
X110300000Y-176730000D02*
X62420000Y-176730000D01*
X62420000Y-177510000D02*
X64960000Y-177510000D01*
X110300000Y-177510000D02*
X107760000Y-177510000D01*
X67040000Y-177510000D02*
X70120000Y-177510000D01*
X72120000Y-177510000D02*
X75200000Y-177510000D01*
X77200000Y-177510000D02*
X80280000Y-177510000D01*
X82280000Y-177510000D02*
X85360000Y-177510000D01*
X87360000Y-177510000D02*
X90440000Y-177510000D01*
X92440000Y-177510000D02*
X95520000Y-177510000D01*
X97520000Y-177510000D02*
X100600000Y-177510000D01*
X102600000Y-177510000D02*
X105680000Y-177510000D01*
X65040000Y-178510000D02*
X65040000Y-176730000D01*
X65040000Y-176730000D02*
X67040000Y-176730000D01*
X67040000Y-176730000D02*
X67040000Y-178510000D01*
X67040000Y-178510000D02*
X65040000Y-178510000D01*
X70120000Y-178510000D02*
X70120000Y-176730000D01*
X70120000Y-176730000D02*
X72120000Y-176730000D01*
X72120000Y-176730000D02*
X72120000Y-178510000D01*
X72120000Y-178510000D02*
X70120000Y-178510000D01*
X75200000Y-178510000D02*
X75200000Y-176730000D01*
X75200000Y-176730000D02*
X77200000Y-176730000D01*
X77200000Y-176730000D02*
X77200000Y-178510000D01*
X77200000Y-178510000D02*
X75200000Y-178510000D01*
X80280000Y-178510000D02*
X80280000Y-176730000D01*
X80280000Y-176730000D02*
X82280000Y-176730000D01*
X82280000Y-176730000D02*
X82280000Y-178510000D01*
X82280000Y-178510000D02*
X80280000Y-178510000D01*
X85360000Y-178510000D02*
X85360000Y-176730000D01*
X85360000Y-176730000D02*
X87360000Y-176730000D01*
X87360000Y-176730000D02*
X87360000Y-178510000D01*
X87360000Y-178510000D02*
X85360000Y-178510000D01*
X90440000Y-178510000D02*
X90440000Y-176730000D01*
X90440000Y-176730000D02*
X92440000Y-176730000D01*
X92440000Y-176730000D02*
X92440000Y-178510000D01*
X92440000Y-178510000D02*
X90440000Y-178510000D01*
X95520000Y-178510000D02*
X95520000Y-176730000D01*
X95520000Y-176730000D02*
X97520000Y-176730000D01*
X97520000Y-176730000D02*
X97520000Y-178510000D01*
X97520000Y-178510000D02*
X95520000Y-178510000D01*
X100600000Y-178510000D02*
X100600000Y-176730000D01*
X100600000Y-176730000D02*
X102600000Y-176730000D01*
X102600000Y-176730000D02*
X102600000Y-178510000D01*
X102600000Y-178510000D02*
X100600000Y-178510000D01*
X105680000Y-178510000D02*
X105680000Y-176730000D01*
X105680000Y-176730000D02*
X107680000Y-176730000D01*
X107680000Y-176730000D02*
X107680000Y-178510000D01*
X107680000Y-178510000D02*
X105680000Y-178510000D01*
X68040000Y-183810000D02*
X69120000Y-183810000D01*
X73120000Y-183810000D02*
X74200000Y-183810000D01*
X78200000Y-183810000D02*
X79280000Y-183810000D01*
X83280000Y-183810000D02*
X84360000Y-183810000D01*
X88360000Y-183810000D02*
X89440000Y-183810000D01*
X93440000Y-183810000D02*
X94520000Y-183810000D01*
X98520000Y-183810000D02*
X99600000Y-183810000D01*
X103600000Y-183810000D02*
X104680000Y-183810000D01*
X64040000Y-183810000D02*
X63300000Y-183810000D01*
X63300000Y-183810000D02*
X63300000Y-178510000D01*
X63300000Y-178510000D02*
X109420000Y-178510000D01*
X109420000Y-178510000D02*
X109420000Y-183810000D01*
X109420000Y-183810000D02*
X108680000Y-183810000D01*
X66340000Y-175930000D02*
X66040000Y-176530000D01*
X66040000Y-176530000D02*
X65740000Y-175930000D01*
X65740000Y-175930000D02*
X66340000Y-175930000D01*
G04 #@! TO.C,R1*
X66960000Y-118730000D02*
X66960000Y-122570000D01*
X65120000Y-118730000D02*
X65120000Y-122570000D01*
G04 #@! TO.C,R2*
X70200000Y-118730000D02*
X70200000Y-122570000D01*
X72040000Y-118730000D02*
X72040000Y-122570000D01*
G04 #@! TO.C,R3*
X75280000Y-118730000D02*
X75280000Y-122570000D01*
X77120000Y-118730000D02*
X77120000Y-122570000D01*
G04 #@! TO.C,R4*
X80360000Y-118730000D02*
X80360000Y-122570000D01*
X82200000Y-118730000D02*
X82200000Y-122570000D01*
G04 #@! TO.C,R5*
X88550000Y-118730000D02*
X88550000Y-122570000D01*
X86710000Y-118730000D02*
X86710000Y-122570000D01*
G04 #@! TO.C,R6*
X93630000Y-118730000D02*
X93630000Y-122570000D01*
X91790000Y-118730000D02*
X91790000Y-122570000D01*
G04 #@! TO.C,R7*
X96870000Y-118730000D02*
X96870000Y-122570000D01*
X98710000Y-118730000D02*
X98710000Y-122570000D01*
G04 #@! TO.C,R8*
X101950000Y-118730000D02*
X101950000Y-122570000D01*
X103790000Y-118730000D02*
X103790000Y-122570000D01*
G04 #@! TO.C,R9*
X107030000Y-118730000D02*
X107030000Y-122570000D01*
X108870000Y-118730000D02*
X108870000Y-122570000D01*
G04 #@! TO.C,R10*
X80360000Y-145430000D02*
X80360000Y-141590000D01*
X82200000Y-145430000D02*
X82200000Y-141590000D01*
G04 #@! TO.C,R11*
X80360000Y-158130000D02*
X80360000Y-154290000D01*
X82200000Y-158130000D02*
X82200000Y-154290000D01*
G04 #@! TO.C,R12*
X77866000Y-136810000D02*
X74026000Y-136810000D01*
X77866000Y-134970000D02*
X74026000Y-134970000D01*
G04 #@! TO.C,R13*
X84978000Y-136810000D02*
X81138000Y-136810000D01*
X84978000Y-134970000D02*
X81138000Y-134970000D01*
G04 #@! TO.C,R14*
X88250000Y-136810000D02*
X92090000Y-136810000D01*
X88250000Y-134970000D02*
X92090000Y-134970000D01*
G04 #@! TO.C,R15*
X90520000Y-154290000D02*
X90520000Y-158130000D01*
X92360000Y-154290000D02*
X92360000Y-158130000D01*
G04 #@! TO.C,R16*
X99202000Y-136810000D02*
X95362000Y-136810000D01*
X99202000Y-134970000D02*
X95362000Y-134970000D01*
G04 #@! TO.C,R17*
X92360000Y-141590000D02*
X92360000Y-145430000D01*
X90520000Y-141590000D02*
X90520000Y-145430000D01*
G04 #@! TO.C,U1*
X64710000Y-128540000D02*
G75*
G02X64710000Y-130540000I0J-1000000D01*
G01*
X64710000Y-130540000D02*
X64710000Y-131790000D01*
X64710000Y-131790000D02*
X85150000Y-131790000D01*
X85150000Y-131790000D02*
X85150000Y-127290000D01*
X85150000Y-127290000D02*
X64710000Y-127290000D01*
X64710000Y-127290000D02*
X64710000Y-128540000D01*
G04 #@! TO.C,U2*
X86300000Y-127290000D02*
X86300000Y-128540000D01*
X106740000Y-127290000D02*
X86300000Y-127290000D01*
X106740000Y-131790000D02*
X106740000Y-127290000D01*
X86300000Y-131790000D02*
X106740000Y-131790000D01*
X86300000Y-130540000D02*
X86300000Y-131790000D01*
X86300000Y-128540000D02*
G75*
G02X86300000Y-130540000I0J-1000000D01*
G01*
G04 #@! TO.C,Q4*
X80130000Y-174030000D02*
X80130000Y-163790000D01*
X64240000Y-174030000D02*
X64240000Y-163790000D01*
X64240000Y-174030000D02*
X80130000Y-174030000D01*
X64240000Y-163790000D02*
X80130000Y-163790000D01*
X80130000Y-171450000D02*
X82670000Y-171450000D01*
X80130000Y-168910000D02*
X82670000Y-168910000D01*
X80130000Y-166370000D02*
X82670000Y-166370000D01*
G04 #@! TO.C,Q2*
X80130000Y-153670000D02*
X82670000Y-153670000D01*
X80130000Y-156210000D02*
X82670000Y-156210000D01*
X80130000Y-158750000D02*
X82670000Y-158750000D01*
X64240000Y-151090000D02*
X80130000Y-151090000D01*
X64240000Y-161330000D02*
X80130000Y-161330000D01*
X64240000Y-161330000D02*
X64240000Y-151090000D01*
X80130000Y-161330000D02*
X80130000Y-151090000D01*
G04 #@! TO.C,Q5*
X92590000Y-163790000D02*
X92590000Y-174030000D01*
X108480000Y-163790000D02*
X108480000Y-174030000D01*
X108480000Y-163790000D02*
X92590000Y-163790000D01*
X108480000Y-174030000D02*
X92590000Y-174030000D01*
X92590000Y-166370000D02*
X90050000Y-166370000D01*
X92590000Y-168910000D02*
X90050000Y-168910000D01*
X92590000Y-171450000D02*
X90050000Y-171450000D01*
G04 #@! TO.C,Q1*
X80130000Y-140970000D02*
X82670000Y-140970000D01*
X80130000Y-143510000D02*
X82670000Y-143510000D01*
X80130000Y-146050000D02*
X82670000Y-146050000D01*
X64240000Y-138390000D02*
X80130000Y-138390000D01*
X64240000Y-148630000D02*
X80130000Y-148630000D01*
X64240000Y-148630000D02*
X64240000Y-138390000D01*
X80130000Y-148630000D02*
X80130000Y-138390000D01*
G04 #@! TO.C,Q6*
X92590000Y-151090000D02*
X92590000Y-161330000D01*
X108480000Y-151090000D02*
X108480000Y-161330000D01*
X108480000Y-151090000D02*
X92590000Y-151090000D01*
X108480000Y-161330000D02*
X92590000Y-161330000D01*
X92590000Y-153670000D02*
X90050000Y-153670000D01*
X92590000Y-156210000D02*
X90050000Y-156210000D01*
X92590000Y-158750000D02*
X90050000Y-158750000D01*
G04 #@! TO.C,Q8*
X92590000Y-138390000D02*
X92590000Y-148630000D01*
X108480000Y-138390000D02*
X108480000Y-148630000D01*
X108480000Y-138390000D02*
X92590000Y-138390000D01*
X108480000Y-148630000D02*
X92590000Y-148630000D01*
X92590000Y-140970000D02*
X90050000Y-140970000D01*
X92590000Y-143510000D02*
X90050000Y-143510000D01*
X92590000Y-146050000D02*
X90050000Y-146050000D01*
G04 #@! TO.C,D1*
D11*
X69032380Y-119102095D02*
X68032380Y-119102095D01*
X68032380Y-118864000D01*
X68080000Y-118721142D01*
X68175238Y-118625904D01*
X68270476Y-118578285D01*
X68460952Y-118530666D01*
X68603809Y-118530666D01*
X68794285Y-118578285D01*
X68889523Y-118625904D01*
X68984761Y-118721142D01*
X69032380Y-118864000D01*
X69032380Y-119102095D01*
X69032380Y-117578285D02*
X69032380Y-118149714D01*
X69032380Y-117864000D02*
X68032380Y-117864000D01*
X68175238Y-117959238D01*
X68270476Y-118054476D01*
X68318095Y-118149714D01*
G04 #@! TO.C,D2*
X74112380Y-119102095D02*
X73112380Y-119102095D01*
X73112380Y-118864000D01*
X73160000Y-118721142D01*
X73255238Y-118625904D01*
X73350476Y-118578285D01*
X73540952Y-118530666D01*
X73683809Y-118530666D01*
X73874285Y-118578285D01*
X73969523Y-118625904D01*
X74064761Y-118721142D01*
X74112380Y-118864000D01*
X74112380Y-119102095D01*
X73207619Y-118149714D02*
X73160000Y-118102095D01*
X73112380Y-118006857D01*
X73112380Y-117768761D01*
X73160000Y-117673523D01*
X73207619Y-117625904D01*
X73302857Y-117578285D01*
X73398095Y-117578285D01*
X73540952Y-117625904D01*
X74112380Y-118197333D01*
X74112380Y-117578285D01*
G04 #@! TO.C,D3*
X79192380Y-119102095D02*
X78192380Y-119102095D01*
X78192380Y-118864000D01*
X78240000Y-118721142D01*
X78335238Y-118625904D01*
X78430476Y-118578285D01*
X78620952Y-118530666D01*
X78763809Y-118530666D01*
X78954285Y-118578285D01*
X79049523Y-118625904D01*
X79144761Y-118721142D01*
X79192380Y-118864000D01*
X79192380Y-119102095D01*
X78192380Y-118197333D02*
X78192380Y-117578285D01*
X78573333Y-117911619D01*
X78573333Y-117768761D01*
X78620952Y-117673523D01*
X78668571Y-117625904D01*
X78763809Y-117578285D01*
X79001904Y-117578285D01*
X79097142Y-117625904D01*
X79144761Y-117673523D01*
X79192380Y-117768761D01*
X79192380Y-118054476D01*
X79144761Y-118149714D01*
X79097142Y-118197333D01*
G04 #@! TO.C,D4*
X84272380Y-119102095D02*
X83272380Y-119102095D01*
X83272380Y-118864000D01*
X83320000Y-118721142D01*
X83415238Y-118625904D01*
X83510476Y-118578285D01*
X83700952Y-118530666D01*
X83843809Y-118530666D01*
X84034285Y-118578285D01*
X84129523Y-118625904D01*
X84224761Y-118721142D01*
X84272380Y-118864000D01*
X84272380Y-119102095D01*
X83605714Y-117673523D02*
X84272380Y-117673523D01*
X83224761Y-117911619D02*
X83939047Y-118149714D01*
X83939047Y-117530666D01*
G04 #@! TO.C,D5*
X90876380Y-119102095D02*
X89876380Y-119102095D01*
X89876380Y-118864000D01*
X89924000Y-118721142D01*
X90019238Y-118625904D01*
X90114476Y-118578285D01*
X90304952Y-118530666D01*
X90447809Y-118530666D01*
X90638285Y-118578285D01*
X90733523Y-118625904D01*
X90828761Y-118721142D01*
X90876380Y-118864000D01*
X90876380Y-119102095D01*
X89876380Y-117625904D02*
X89876380Y-118102095D01*
X90352571Y-118149714D01*
X90304952Y-118102095D01*
X90257333Y-118006857D01*
X90257333Y-117768761D01*
X90304952Y-117673523D01*
X90352571Y-117625904D01*
X90447809Y-117578285D01*
X90685904Y-117578285D01*
X90781142Y-117625904D01*
X90828761Y-117673523D01*
X90876380Y-117768761D01*
X90876380Y-118006857D01*
X90828761Y-118102095D01*
X90781142Y-118149714D01*
G04 #@! TO.C,D6*
X95702380Y-119356095D02*
X94702380Y-119356095D01*
X94702380Y-119118000D01*
X94750000Y-118975142D01*
X94845238Y-118879904D01*
X94940476Y-118832285D01*
X95130952Y-118784666D01*
X95273809Y-118784666D01*
X95464285Y-118832285D01*
X95559523Y-118879904D01*
X95654761Y-118975142D01*
X95702380Y-119118000D01*
X95702380Y-119356095D01*
X94702380Y-117927523D02*
X94702380Y-118118000D01*
X94750000Y-118213238D01*
X94797619Y-118260857D01*
X94940476Y-118356095D01*
X95130952Y-118403714D01*
X95511904Y-118403714D01*
X95607142Y-118356095D01*
X95654761Y-118308476D01*
X95702380Y-118213238D01*
X95702380Y-118022761D01*
X95654761Y-117927523D01*
X95607142Y-117879904D01*
X95511904Y-117832285D01*
X95273809Y-117832285D01*
X95178571Y-117879904D01*
X95130952Y-117927523D01*
X95083333Y-118022761D01*
X95083333Y-118213238D01*
X95130952Y-118308476D01*
X95178571Y-118356095D01*
X95273809Y-118403714D01*
G04 #@! TO.C,D7*
X100782380Y-119102095D02*
X99782380Y-119102095D01*
X99782380Y-118864000D01*
X99830000Y-118721142D01*
X99925238Y-118625904D01*
X100020476Y-118578285D01*
X100210952Y-118530666D01*
X100353809Y-118530666D01*
X100544285Y-118578285D01*
X100639523Y-118625904D01*
X100734761Y-118721142D01*
X100782380Y-118864000D01*
X100782380Y-119102095D01*
X99782380Y-118197333D02*
X99782380Y-117530666D01*
X100782380Y-117959238D01*
G04 #@! TO.C,D8*
X105862380Y-119102095D02*
X104862380Y-119102095D01*
X104862380Y-118864000D01*
X104910000Y-118721142D01*
X105005238Y-118625904D01*
X105100476Y-118578285D01*
X105290952Y-118530666D01*
X105433809Y-118530666D01*
X105624285Y-118578285D01*
X105719523Y-118625904D01*
X105814761Y-118721142D01*
X105862380Y-118864000D01*
X105862380Y-119102095D01*
X105290952Y-117959238D02*
X105243333Y-118054476D01*
X105195714Y-118102095D01*
X105100476Y-118149714D01*
X105052857Y-118149714D01*
X104957619Y-118102095D01*
X104910000Y-118054476D01*
X104862380Y-117959238D01*
X104862380Y-117768761D01*
X104910000Y-117673523D01*
X104957619Y-117625904D01*
X105052857Y-117578285D01*
X105100476Y-117578285D01*
X105195714Y-117625904D01*
X105243333Y-117673523D01*
X105290952Y-117768761D01*
X105290952Y-117959238D01*
X105338571Y-118054476D01*
X105386190Y-118102095D01*
X105481428Y-118149714D01*
X105671904Y-118149714D01*
X105767142Y-118102095D01*
X105814761Y-118054476D01*
X105862380Y-117959238D01*
X105862380Y-117768761D01*
X105814761Y-117673523D01*
X105767142Y-117625904D01*
X105671904Y-117578285D01*
X105481428Y-117578285D01*
X105386190Y-117625904D01*
X105338571Y-117673523D01*
X105290952Y-117768761D01*
G04 #@! TO.C,D9*
X108402380Y-136374095D02*
X107402380Y-136374095D01*
X107402380Y-136136000D01*
X107450000Y-135993142D01*
X107545238Y-135897904D01*
X107640476Y-135850285D01*
X107830952Y-135802666D01*
X107973809Y-135802666D01*
X108164285Y-135850285D01*
X108259523Y-135897904D01*
X108354761Y-135993142D01*
X108402380Y-136136000D01*
X108402380Y-136374095D01*
X108402380Y-135326476D02*
X108402380Y-135136000D01*
X108354761Y-135040761D01*
X108307142Y-134993142D01*
X108164285Y-134897904D01*
X107973809Y-134850285D01*
X107592857Y-134850285D01*
X107497619Y-134897904D01*
X107450000Y-134945523D01*
X107402380Y-135040761D01*
X107402380Y-135231238D01*
X107450000Y-135326476D01*
X107497619Y-135374095D01*
X107592857Y-135421714D01*
X107830952Y-135421714D01*
X107926190Y-135374095D01*
X107973809Y-135326476D01*
X108021428Y-135231238D01*
X108021428Y-135040761D01*
X107973809Y-134945523D01*
X107926190Y-134897904D01*
X107830952Y-134850285D01*
X109672380Y-124721904D02*
X108672380Y-124721904D01*
X109672380Y-124150476D02*
X109100952Y-124579047D01*
X108672380Y-124150476D02*
X109243809Y-124721904D01*
G04 #@! TO.C,J1*
X70786666Y-112736380D02*
X70786666Y-113450666D01*
X70739047Y-113593523D01*
X70643809Y-113688761D01*
X70500952Y-113736380D01*
X70405714Y-113736380D01*
X71786666Y-113736380D02*
X71215238Y-113736380D01*
X71500952Y-113736380D02*
X71500952Y-112736380D01*
X71405714Y-112879238D01*
X71310476Y-112974476D01*
X71215238Y-113022095D01*
G04 #@! TO.C,J2*
X86026666Y-175262380D02*
X86026666Y-175976666D01*
X85979047Y-176119523D01*
X85883809Y-176214761D01*
X85740952Y-176262380D01*
X85645714Y-176262380D01*
X86455238Y-175357619D02*
X86502857Y-175310000D01*
X86598095Y-175262380D01*
X86836190Y-175262380D01*
X86931428Y-175310000D01*
X86979047Y-175357619D01*
X87026666Y-175452857D01*
X87026666Y-175548095D01*
X86979047Y-175690952D01*
X86407619Y-176262380D01*
X87026666Y-176262380D01*
G04 #@! TO.C,R1*
X66492380Y-116244666D02*
X66016190Y-116578000D01*
X66492380Y-116816095D02*
X65492380Y-116816095D01*
X65492380Y-116435142D01*
X65540000Y-116339904D01*
X65587619Y-116292285D01*
X65682857Y-116244666D01*
X65825714Y-116244666D01*
X65920952Y-116292285D01*
X65968571Y-116339904D01*
X66016190Y-116435142D01*
X66016190Y-116816095D01*
X66492380Y-115292285D02*
X66492380Y-115863714D01*
X66492380Y-115578000D02*
X65492380Y-115578000D01*
X65635238Y-115673238D01*
X65730476Y-115768476D01*
X65778095Y-115863714D01*
G04 #@! TO.C,R2*
X71572380Y-116244666D02*
X71096190Y-116578000D01*
X71572380Y-116816095D02*
X70572380Y-116816095D01*
X70572380Y-116435142D01*
X70620000Y-116339904D01*
X70667619Y-116292285D01*
X70762857Y-116244666D01*
X70905714Y-116244666D01*
X71000952Y-116292285D01*
X71048571Y-116339904D01*
X71096190Y-116435142D01*
X71096190Y-116816095D01*
X70667619Y-115863714D02*
X70620000Y-115816095D01*
X70572380Y-115720857D01*
X70572380Y-115482761D01*
X70620000Y-115387523D01*
X70667619Y-115339904D01*
X70762857Y-115292285D01*
X70858095Y-115292285D01*
X71000952Y-115339904D01*
X71572380Y-115911333D01*
X71572380Y-115292285D01*
G04 #@! TO.C,R3*
X75382380Y-116752666D02*
X74906190Y-117086000D01*
X75382380Y-117324095D02*
X74382380Y-117324095D01*
X74382380Y-116943142D01*
X74430000Y-116847904D01*
X74477619Y-116800285D01*
X74572857Y-116752666D01*
X74715714Y-116752666D01*
X74810952Y-116800285D01*
X74858571Y-116847904D01*
X74906190Y-116943142D01*
X74906190Y-117324095D01*
X74382380Y-116419333D02*
X74382380Y-115800285D01*
X74763333Y-116133619D01*
X74763333Y-115990761D01*
X74810952Y-115895523D01*
X74858571Y-115847904D01*
X74953809Y-115800285D01*
X75191904Y-115800285D01*
X75287142Y-115847904D01*
X75334761Y-115895523D01*
X75382380Y-115990761D01*
X75382380Y-116276476D01*
X75334761Y-116371714D01*
X75287142Y-116419333D01*
G04 #@! TO.C,R4*
X83510380Y-116498666D02*
X83034190Y-116832000D01*
X83510380Y-117070095D02*
X82510380Y-117070095D01*
X82510380Y-116689142D01*
X82558000Y-116593904D01*
X82605619Y-116546285D01*
X82700857Y-116498666D01*
X82843714Y-116498666D01*
X82938952Y-116546285D01*
X82986571Y-116593904D01*
X83034190Y-116689142D01*
X83034190Y-117070095D01*
X82843714Y-115641523D02*
X83510380Y-115641523D01*
X82462761Y-115879619D02*
X83177047Y-116117714D01*
X83177047Y-115498666D01*
G04 #@! TO.C,R5*
X89352380Y-116498666D02*
X88876190Y-116832000D01*
X89352380Y-117070095D02*
X88352380Y-117070095D01*
X88352380Y-116689142D01*
X88400000Y-116593904D01*
X88447619Y-116546285D01*
X88542857Y-116498666D01*
X88685714Y-116498666D01*
X88780952Y-116546285D01*
X88828571Y-116593904D01*
X88876190Y-116689142D01*
X88876190Y-117070095D01*
X88352380Y-115593904D02*
X88352380Y-116070095D01*
X88828571Y-116117714D01*
X88780952Y-116070095D01*
X88733333Y-115974857D01*
X88733333Y-115736761D01*
X88780952Y-115641523D01*
X88828571Y-115593904D01*
X88923809Y-115546285D01*
X89161904Y-115546285D01*
X89257142Y-115593904D01*
X89304761Y-115641523D01*
X89352380Y-115736761D01*
X89352380Y-115974857D01*
X89304761Y-116070095D01*
X89257142Y-116117714D01*
G04 #@! TO.C,R6*
X94178380Y-116244666D02*
X93702190Y-116578000D01*
X94178380Y-116816095D02*
X93178380Y-116816095D01*
X93178380Y-116435142D01*
X93226000Y-116339904D01*
X93273619Y-116292285D01*
X93368857Y-116244666D01*
X93511714Y-116244666D01*
X93606952Y-116292285D01*
X93654571Y-116339904D01*
X93702190Y-116435142D01*
X93702190Y-116816095D01*
X93178380Y-115387523D02*
X93178380Y-115578000D01*
X93226000Y-115673238D01*
X93273619Y-115720857D01*
X93416476Y-115816095D01*
X93606952Y-115863714D01*
X93987904Y-115863714D01*
X94083142Y-115816095D01*
X94130761Y-115768476D01*
X94178380Y-115673238D01*
X94178380Y-115482761D01*
X94130761Y-115387523D01*
X94083142Y-115339904D01*
X93987904Y-115292285D01*
X93749809Y-115292285D01*
X93654571Y-115339904D01*
X93606952Y-115387523D01*
X93559333Y-115482761D01*
X93559333Y-115673238D01*
X93606952Y-115768476D01*
X93654571Y-115816095D01*
X93749809Y-115863714D01*
G04 #@! TO.C,R7*
X99512380Y-116244666D02*
X99036190Y-116578000D01*
X99512380Y-116816095D02*
X98512380Y-116816095D01*
X98512380Y-116435142D01*
X98560000Y-116339904D01*
X98607619Y-116292285D01*
X98702857Y-116244666D01*
X98845714Y-116244666D01*
X98940952Y-116292285D01*
X98988571Y-116339904D01*
X99036190Y-116435142D01*
X99036190Y-116816095D01*
X98512380Y-115911333D02*
X98512380Y-115244666D01*
X99512380Y-115673238D01*
G04 #@! TO.C,R8*
X103322380Y-116244666D02*
X102846190Y-116578000D01*
X103322380Y-116816095D02*
X102322380Y-116816095D01*
X102322380Y-116435142D01*
X102370000Y-116339904D01*
X102417619Y-116292285D01*
X102512857Y-116244666D01*
X102655714Y-116244666D01*
X102750952Y-116292285D01*
X102798571Y-116339904D01*
X102846190Y-116435142D01*
X102846190Y-116816095D01*
X102750952Y-115673238D02*
X102703333Y-115768476D01*
X102655714Y-115816095D01*
X102560476Y-115863714D01*
X102512857Y-115863714D01*
X102417619Y-115816095D01*
X102370000Y-115768476D01*
X102322380Y-115673238D01*
X102322380Y-115482761D01*
X102370000Y-115387523D01*
X102417619Y-115339904D01*
X102512857Y-115292285D01*
X102560476Y-115292285D01*
X102655714Y-115339904D01*
X102703333Y-115387523D01*
X102750952Y-115482761D01*
X102750952Y-115673238D01*
X102798571Y-115768476D01*
X102846190Y-115816095D01*
X102941428Y-115863714D01*
X103131904Y-115863714D01*
X103227142Y-115816095D01*
X103274761Y-115768476D01*
X103322380Y-115673238D01*
X103322380Y-115482761D01*
X103274761Y-115387523D01*
X103227142Y-115339904D01*
X103131904Y-115292285D01*
X102941428Y-115292285D01*
X102846190Y-115339904D01*
X102798571Y-115387523D01*
X102750952Y-115482761D01*
G04 #@! TO.C,R9*
X108402380Y-115736666D02*
X107926190Y-116070000D01*
X108402380Y-116308095D02*
X107402380Y-116308095D01*
X107402380Y-115927142D01*
X107450000Y-115831904D01*
X107497619Y-115784285D01*
X107592857Y-115736666D01*
X107735714Y-115736666D01*
X107830952Y-115784285D01*
X107878571Y-115831904D01*
X107926190Y-115927142D01*
X107926190Y-116308095D01*
X108402380Y-115260476D02*
X108402380Y-115070000D01*
X108354761Y-114974761D01*
X108307142Y-114927142D01*
X108164285Y-114831904D01*
X107973809Y-114784285D01*
X107592857Y-114784285D01*
X107497619Y-114831904D01*
X107450000Y-114879523D01*
X107402380Y-114974761D01*
X107402380Y-115165238D01*
X107450000Y-115260476D01*
X107497619Y-115308095D01*
X107592857Y-115355714D01*
X107830952Y-115355714D01*
X107926190Y-115308095D01*
X107973809Y-115260476D01*
X108021428Y-115165238D01*
X108021428Y-114974761D01*
X107973809Y-114879523D01*
X107926190Y-114831904D01*
X107830952Y-114784285D01*
G04 #@! TO.C,R10*
X81732380Y-149486857D02*
X81256190Y-149820190D01*
X81732380Y-150058285D02*
X80732380Y-150058285D01*
X80732380Y-149677333D01*
X80780000Y-149582095D01*
X80827619Y-149534476D01*
X80922857Y-149486857D01*
X81065714Y-149486857D01*
X81160952Y-149534476D01*
X81208571Y-149582095D01*
X81256190Y-149677333D01*
X81256190Y-150058285D01*
X81732380Y-148534476D02*
X81732380Y-149105904D01*
X81732380Y-148820190D02*
X80732380Y-148820190D01*
X80875238Y-148915428D01*
X80970476Y-149010666D01*
X81018095Y-149105904D01*
X80732380Y-147915428D02*
X80732380Y-147820190D01*
X80780000Y-147724952D01*
X80827619Y-147677333D01*
X80922857Y-147629714D01*
X81113333Y-147582095D01*
X81351428Y-147582095D01*
X81541904Y-147629714D01*
X81637142Y-147677333D01*
X81684761Y-147724952D01*
X81732380Y-147820190D01*
X81732380Y-147915428D01*
X81684761Y-148010666D01*
X81637142Y-148058285D01*
X81541904Y-148105904D01*
X81351428Y-148153523D01*
X81113333Y-148153523D01*
X80922857Y-148105904D01*
X80827619Y-148058285D01*
X80780000Y-148010666D01*
X80732380Y-147915428D01*
G04 #@! TO.C,R11*
X81732380Y-161932857D02*
X81256190Y-162266190D01*
X81732380Y-162504285D02*
X80732380Y-162504285D01*
X80732380Y-162123333D01*
X80780000Y-162028095D01*
X80827619Y-161980476D01*
X80922857Y-161932857D01*
X81065714Y-161932857D01*
X81160952Y-161980476D01*
X81208571Y-162028095D01*
X81256190Y-162123333D01*
X81256190Y-162504285D01*
X81732380Y-160980476D02*
X81732380Y-161551904D01*
X81732380Y-161266190D02*
X80732380Y-161266190D01*
X80875238Y-161361428D01*
X80970476Y-161456666D01*
X81018095Y-161551904D01*
X81732380Y-160028095D02*
X81732380Y-160599523D01*
X81732380Y-160313809D02*
X80732380Y-160313809D01*
X80875238Y-160409047D01*
X80970476Y-160504285D01*
X81018095Y-160599523D01*
G04 #@! TO.C,R12*
X70223142Y-136342380D02*
X69889809Y-135866190D01*
X69651714Y-136342380D02*
X69651714Y-135342380D01*
X70032666Y-135342380D01*
X70127904Y-135390000D01*
X70175523Y-135437619D01*
X70223142Y-135532857D01*
X70223142Y-135675714D01*
X70175523Y-135770952D01*
X70127904Y-135818571D01*
X70032666Y-135866190D01*
X69651714Y-135866190D01*
X71175523Y-136342380D02*
X70604095Y-136342380D01*
X70889809Y-136342380D02*
X70889809Y-135342380D01*
X70794571Y-135485238D01*
X70699333Y-135580476D01*
X70604095Y-135628095D01*
X71556476Y-135437619D02*
X71604095Y-135390000D01*
X71699333Y-135342380D01*
X71937428Y-135342380D01*
X72032666Y-135390000D01*
X72080285Y-135437619D01*
X72127904Y-135532857D01*
X72127904Y-135628095D01*
X72080285Y-135770952D01*
X71508857Y-136342380D01*
X72127904Y-136342380D01*
G04 #@! TO.C,R13*
X80129142Y-138120380D02*
X79795809Y-137644190D01*
X79557714Y-138120380D02*
X79557714Y-137120380D01*
X79938666Y-137120380D01*
X80033904Y-137168000D01*
X80081523Y-137215619D01*
X80129142Y-137310857D01*
X80129142Y-137453714D01*
X80081523Y-137548952D01*
X80033904Y-137596571D01*
X79938666Y-137644190D01*
X79557714Y-137644190D01*
X81081523Y-138120380D02*
X80510095Y-138120380D01*
X80795809Y-138120380D02*
X80795809Y-137120380D01*
X80700571Y-137263238D01*
X80605333Y-137358476D01*
X80510095Y-137406095D01*
X81414857Y-137120380D02*
X82033904Y-137120380D01*
X81700571Y-137501333D01*
X81843428Y-137501333D01*
X81938666Y-137548952D01*
X81986285Y-137596571D01*
X82033904Y-137691809D01*
X82033904Y-137929904D01*
X81986285Y-138025142D01*
X81938666Y-138072761D01*
X81843428Y-138120380D01*
X81557714Y-138120380D01*
X81462476Y-138072761D01*
X81414857Y-138025142D01*
G04 #@! TO.C,R14*
X89527142Y-138120380D02*
X89193809Y-137644190D01*
X88955714Y-138120380D02*
X88955714Y-137120380D01*
X89336666Y-137120380D01*
X89431904Y-137168000D01*
X89479523Y-137215619D01*
X89527142Y-137310857D01*
X89527142Y-137453714D01*
X89479523Y-137548952D01*
X89431904Y-137596571D01*
X89336666Y-137644190D01*
X88955714Y-137644190D01*
X90479523Y-138120380D02*
X89908095Y-138120380D01*
X90193809Y-138120380D02*
X90193809Y-137120380D01*
X90098571Y-137263238D01*
X90003333Y-137358476D01*
X89908095Y-137406095D01*
X91336666Y-137453714D02*
X91336666Y-138120380D01*
X91098571Y-137072761D02*
X90860476Y-137787047D01*
X91479523Y-137787047D01*
G04 #@! TO.C,R15*
X91892380Y-162186857D02*
X91416190Y-162520190D01*
X91892380Y-162758285D02*
X90892380Y-162758285D01*
X90892380Y-162377333D01*
X90940000Y-162282095D01*
X90987619Y-162234476D01*
X91082857Y-162186857D01*
X91225714Y-162186857D01*
X91320952Y-162234476D01*
X91368571Y-162282095D01*
X91416190Y-162377333D01*
X91416190Y-162758285D01*
X91892380Y-161234476D02*
X91892380Y-161805904D01*
X91892380Y-161520190D02*
X90892380Y-161520190D01*
X91035238Y-161615428D01*
X91130476Y-161710666D01*
X91178095Y-161805904D01*
X90892380Y-160329714D02*
X90892380Y-160805904D01*
X91368571Y-160853523D01*
X91320952Y-160805904D01*
X91273333Y-160710666D01*
X91273333Y-160472571D01*
X91320952Y-160377333D01*
X91368571Y-160329714D01*
X91463809Y-160282095D01*
X91701904Y-160282095D01*
X91797142Y-160329714D01*
X91844761Y-160377333D01*
X91892380Y-160472571D01*
X91892380Y-160710666D01*
X91844761Y-160805904D01*
X91797142Y-160853523D01*
G04 #@! TO.C,R16*
X101719142Y-136342380D02*
X101385809Y-135866190D01*
X101147714Y-136342380D02*
X101147714Y-135342380D01*
X101528666Y-135342380D01*
X101623904Y-135390000D01*
X101671523Y-135437619D01*
X101719142Y-135532857D01*
X101719142Y-135675714D01*
X101671523Y-135770952D01*
X101623904Y-135818571D01*
X101528666Y-135866190D01*
X101147714Y-135866190D01*
X102671523Y-136342380D02*
X102100095Y-136342380D01*
X102385809Y-136342380D02*
X102385809Y-135342380D01*
X102290571Y-135485238D01*
X102195333Y-135580476D01*
X102100095Y-135628095D01*
X103528666Y-135342380D02*
X103338190Y-135342380D01*
X103242952Y-135390000D01*
X103195333Y-135437619D01*
X103100095Y-135580476D01*
X103052476Y-135770952D01*
X103052476Y-136151904D01*
X103100095Y-136247142D01*
X103147714Y-136294761D01*
X103242952Y-136342380D01*
X103433428Y-136342380D01*
X103528666Y-136294761D01*
X103576285Y-136247142D01*
X103623904Y-136151904D01*
X103623904Y-135913809D01*
X103576285Y-135818571D01*
X103528666Y-135770952D01*
X103433428Y-135723333D01*
X103242952Y-135723333D01*
X103147714Y-135770952D01*
X103100095Y-135818571D01*
X103052476Y-135913809D01*
G04 #@! TO.C,R17*
X91892380Y-149232857D02*
X91416190Y-149566190D01*
X91892380Y-149804285D02*
X90892380Y-149804285D01*
X90892380Y-149423333D01*
X90940000Y-149328095D01*
X90987619Y-149280476D01*
X91082857Y-149232857D01*
X91225714Y-149232857D01*
X91320952Y-149280476D01*
X91368571Y-149328095D01*
X91416190Y-149423333D01*
X91416190Y-149804285D01*
X91892380Y-148280476D02*
X91892380Y-148851904D01*
X91892380Y-148566190D02*
X90892380Y-148566190D01*
X91035238Y-148661428D01*
X91130476Y-148756666D01*
X91178095Y-148851904D01*
X90892380Y-147947142D02*
X90892380Y-147280476D01*
X91892380Y-147709047D01*
G04 #@! TO.C,U1*
X63162380Y-130301904D02*
X63971904Y-130301904D01*
X64067142Y-130254285D01*
X64114761Y-130206666D01*
X64162380Y-130111428D01*
X64162380Y-129920952D01*
X64114761Y-129825714D01*
X64067142Y-129778095D01*
X63971904Y-129730476D01*
X63162380Y-129730476D01*
X64162380Y-128730476D02*
X64162380Y-129301904D01*
X64162380Y-129016190D02*
X63162380Y-129016190D01*
X63305238Y-129111428D01*
X63400476Y-129206666D01*
X63448095Y-129301904D01*
G04 #@! TO.C,U2*
X84752380Y-130301904D02*
X85561904Y-130301904D01*
X85657142Y-130254285D01*
X85704761Y-130206666D01*
X85752380Y-130111428D01*
X85752380Y-129920952D01*
X85704761Y-129825714D01*
X85657142Y-129778095D01*
X85561904Y-129730476D01*
X84752380Y-129730476D01*
X84847619Y-129301904D02*
X84800000Y-129254285D01*
X84752380Y-129159047D01*
X84752380Y-128920952D01*
X84800000Y-128825714D01*
X84847619Y-128778095D01*
X84942857Y-128730476D01*
X85038095Y-128730476D01*
X85180952Y-128778095D01*
X85752380Y-129349523D01*
X85752380Y-128730476D01*
G04 #@! TO.C,Q4*
X68111619Y-162655238D02*
X68064000Y-162750476D01*
X67968761Y-162845714D01*
X67825904Y-162988571D01*
X67778285Y-163083809D01*
X67778285Y-163179047D01*
X68016380Y-163131428D02*
X67968761Y-163226666D01*
X67873523Y-163321904D01*
X67683047Y-163369523D01*
X67349714Y-163369523D01*
X67159238Y-163321904D01*
X67064000Y-163226666D01*
X67016380Y-163131428D01*
X67016380Y-162940952D01*
X67064000Y-162845714D01*
X67159238Y-162750476D01*
X67349714Y-162702857D01*
X67683047Y-162702857D01*
X67873523Y-162750476D01*
X67968761Y-162845714D01*
X68016380Y-162940952D01*
X68016380Y-163131428D01*
X67349714Y-161845714D02*
X68016380Y-161845714D01*
X66968761Y-162083809D02*
X67683047Y-162321904D01*
X67683047Y-161702857D01*
G04 #@! TO.C,Q2*
X67857619Y-149955238D02*
X67810000Y-150050476D01*
X67714761Y-150145714D01*
X67571904Y-150288571D01*
X67524285Y-150383809D01*
X67524285Y-150479047D01*
X67762380Y-150431428D02*
X67714761Y-150526666D01*
X67619523Y-150621904D01*
X67429047Y-150669523D01*
X67095714Y-150669523D01*
X66905238Y-150621904D01*
X66810000Y-150526666D01*
X66762380Y-150431428D01*
X66762380Y-150240952D01*
X66810000Y-150145714D01*
X66905238Y-150050476D01*
X67095714Y-150002857D01*
X67429047Y-150002857D01*
X67619523Y-150050476D01*
X67714761Y-150145714D01*
X67762380Y-150240952D01*
X67762380Y-150431428D01*
X66857619Y-149621904D02*
X66810000Y-149574285D01*
X66762380Y-149479047D01*
X66762380Y-149240952D01*
X66810000Y-149145714D01*
X66857619Y-149098095D01*
X66952857Y-149050476D01*
X67048095Y-149050476D01*
X67190952Y-149098095D01*
X67762380Y-149669523D01*
X67762380Y-149050476D01*
G04 #@! TO.C,Q5*
X106211619Y-162909238D02*
X106164000Y-163004476D01*
X106068761Y-163099714D01*
X105925904Y-163242571D01*
X105878285Y-163337809D01*
X105878285Y-163433047D01*
X106116380Y-163385428D02*
X106068761Y-163480666D01*
X105973523Y-163575904D01*
X105783047Y-163623523D01*
X105449714Y-163623523D01*
X105259238Y-163575904D01*
X105164000Y-163480666D01*
X105116380Y-163385428D01*
X105116380Y-163194952D01*
X105164000Y-163099714D01*
X105259238Y-163004476D01*
X105449714Y-162956857D01*
X105783047Y-162956857D01*
X105973523Y-163004476D01*
X106068761Y-163099714D01*
X106116380Y-163194952D01*
X106116380Y-163385428D01*
X105116380Y-162052095D02*
X105116380Y-162528285D01*
X105592571Y-162575904D01*
X105544952Y-162528285D01*
X105497333Y-162433047D01*
X105497333Y-162194952D01*
X105544952Y-162099714D01*
X105592571Y-162052095D01*
X105687809Y-162004476D01*
X105925904Y-162004476D01*
X106021142Y-162052095D01*
X106068761Y-162099714D01*
X106116380Y-162194952D01*
X106116380Y-162433047D01*
X106068761Y-162528285D01*
X106021142Y-162575904D01*
G04 #@! TO.C,Q1*
X67857619Y-137255238D02*
X67810000Y-137350476D01*
X67714761Y-137445714D01*
X67571904Y-137588571D01*
X67524285Y-137683809D01*
X67524285Y-137779047D01*
X67762380Y-137731428D02*
X67714761Y-137826666D01*
X67619523Y-137921904D01*
X67429047Y-137969523D01*
X67095714Y-137969523D01*
X66905238Y-137921904D01*
X66810000Y-137826666D01*
X66762380Y-137731428D01*
X66762380Y-137540952D01*
X66810000Y-137445714D01*
X66905238Y-137350476D01*
X67095714Y-137302857D01*
X67429047Y-137302857D01*
X67619523Y-137350476D01*
X67714761Y-137445714D01*
X67762380Y-137540952D01*
X67762380Y-137731428D01*
X67762380Y-136350476D02*
X67762380Y-136921904D01*
X67762380Y-136636190D02*
X66762380Y-136636190D01*
X66905238Y-136731428D01*
X67000476Y-136826666D01*
X67048095Y-136921904D01*
G04 #@! TO.C,Q6*
X106211619Y-150209238D02*
X106164000Y-150304476D01*
X106068761Y-150399714D01*
X105925904Y-150542571D01*
X105878285Y-150637809D01*
X105878285Y-150733047D01*
X106116380Y-150685428D02*
X106068761Y-150780666D01*
X105973523Y-150875904D01*
X105783047Y-150923523D01*
X105449714Y-150923523D01*
X105259238Y-150875904D01*
X105164000Y-150780666D01*
X105116380Y-150685428D01*
X105116380Y-150494952D01*
X105164000Y-150399714D01*
X105259238Y-150304476D01*
X105449714Y-150256857D01*
X105783047Y-150256857D01*
X105973523Y-150304476D01*
X106068761Y-150399714D01*
X106116380Y-150494952D01*
X106116380Y-150685428D01*
X105116380Y-149399714D02*
X105116380Y-149590190D01*
X105164000Y-149685428D01*
X105211619Y-149733047D01*
X105354476Y-149828285D01*
X105544952Y-149875904D01*
X105925904Y-149875904D01*
X106021142Y-149828285D01*
X106068761Y-149780666D01*
X106116380Y-149685428D01*
X106116380Y-149494952D01*
X106068761Y-149399714D01*
X106021142Y-149352095D01*
X105925904Y-149304476D01*
X105687809Y-149304476D01*
X105592571Y-149352095D01*
X105544952Y-149399714D01*
X105497333Y-149494952D01*
X105497333Y-149685428D01*
X105544952Y-149780666D01*
X105592571Y-149828285D01*
X105687809Y-149875904D01*
G04 #@! TO.C,Q8*
X106211619Y-137255238D02*
X106164000Y-137350476D01*
X106068761Y-137445714D01*
X105925904Y-137588571D01*
X105878285Y-137683809D01*
X105878285Y-137779047D01*
X106116380Y-137731428D02*
X106068761Y-137826666D01*
X105973523Y-137921904D01*
X105783047Y-137969523D01*
X105449714Y-137969523D01*
X105259238Y-137921904D01*
X105164000Y-137826666D01*
X105116380Y-137731428D01*
X105116380Y-137540952D01*
X105164000Y-137445714D01*
X105259238Y-137350476D01*
X105449714Y-137302857D01*
X105783047Y-137302857D01*
X105973523Y-137350476D01*
X106068761Y-137445714D01*
X106116380Y-137540952D01*
X106116380Y-137731428D01*
X105544952Y-136731428D02*
X105497333Y-136826666D01*
X105449714Y-136874285D01*
X105354476Y-136921904D01*
X105306857Y-136921904D01*
X105211619Y-136874285D01*
X105164000Y-136826666D01*
X105116380Y-136731428D01*
X105116380Y-136540952D01*
X105164000Y-136445714D01*
X105211619Y-136398095D01*
X105306857Y-136350476D01*
X105354476Y-136350476D01*
X105449714Y-136398095D01*
X105497333Y-136445714D01*
X105544952Y-136540952D01*
X105544952Y-136731428D01*
X105592571Y-136826666D01*
X105640190Y-136874285D01*
X105735428Y-136921904D01*
X105925904Y-136921904D01*
X106021142Y-136874285D01*
X106068761Y-136826666D01*
X106116380Y-136731428D01*
X106116380Y-136540952D01*
X106068761Y-136445714D01*
X106021142Y-136398095D01*
X105925904Y-136350476D01*
X105735428Y-136350476D01*
X105640190Y-136398095D01*
X105592571Y-136445714D01*
X105544952Y-136540952D01*
G04 #@! TD*
M02*
